<svg width="48" height="48" viewBox="0 0 48 48" fill="none" xmlns="http://www.w3.org/2000/svg">
<path d="M0 10C0 4.47715 4.47715 0 10 0H38C43.5229 0 48 4.47715 48 10V38C48 43.5229 43.5228 48 38 48H10C4.47715 48 0 43.5228 0 38V10Z" fill="#34A853" fill-opacity="0.2"/>
<path d="M31 29H33C33.6 29 34 28.6 34 28V25C34 24.1 33.3 23.3 32.5 23.1C30.7 22.6 28 22 28 22C28 22 26.7 20.6 25.8 19.7C25.3 19.3 24.7 19 24 19H17C16.4 19 15.9 19.4 15.6 19.9L14.2 22.8C14.0676 23.1862 14 23.5917 14 24V28C14 28.6 14.4 29 15 29H17" stroke="#34A853" stroke-width="1.66652" stroke-linecap="round" stroke-linejoin="round"/>
<path d="M19 31C20.1046 31 21 30.1046 21 29C21 27.8954 20.1046 27 19 27C17.8954 27 17 27.8954 17 29C17 30.1046 17.8954 31 19 31Z" stroke="#34A853" stroke-width="1.66652" stroke-linecap="round" stroke-linejoin="round"/>
<path d="M21 29H27" stroke="#34A853" stroke-width="1.66652" stroke-linecap="round" stroke-linejoin="round"/>
<path d="M29 31C30.1046 31 31 30.1046 31 29C31 27.8954 30.1046 27 29 27C27.8954 27 27 27.8954 27 29C27 30.1046 27.8954 31 29 31Z" stroke="#34A853" stroke-width="1.66652" stroke-linecap="round" stroke-linejoin="round"/>
</svg>
