<svg width="48" height="48" viewBox="0 0 48 48" fill="none" xmlns="http://www.w3.org/2000/svg">
<path d="M0 10C0 4.47715 4.47715 0 10 0H38C43.5229 0 48 4.47715 48 10V38C48 43.5229 43.5228 48 38 48H10C4.47715 48 0 43.5228 0 38V10Z" fill="#34A853" fill-opacity="0.1"/>
<path d="M24 14.5C21.4804 14.5 19.0641 15.5009 17.2825 17.2825C15.5009 19.0641 14.5 21.4804 14.5 24C14.5 26.5196 15.5009 28.9359 17.2825 30.7175C19.0641 32.4991 21.4804 33.5 24 33.5C24.1989 33.5 24.3897 33.579 24.5303 33.7197C24.671 33.8603 24.75 34.0511 24.75 34.25C24.75 34.4489 24.671 34.6397 24.5303 34.7803C24.3897 34.921 24.1989 35 24 35C17.925 35 13 30.075 13 24C13 17.925 17.925 13 24 13C30.075 13 35 17.925 35 24C35 24.1989 34.921 24.3897 34.7803 24.5303C34.6397 24.671 34.4489 24.75 34.25 24.75C34.0511 24.75 33.8603 24.671 33.7197 24.5303C33.579 24.3897 33.5 24.1989 33.5 24C33.5 21.4804 32.4991 19.0641 30.7175 17.2825C28.9359 15.5009 26.5196 14.5 24 14.5Z" fill="#34A853"/>
<path d="M25.759 29.48L29.487 32.794C29.5314 32.8336 29.5862 32.8595 29.645 32.8685C29.7037 32.8776 29.7638 32.8695 29.818 32.8452C29.8723 32.8209 29.9183 32.7814 29.9506 32.7315C29.9829 32.6816 30 32.6235 30 32.564V30H34.25C34.4489 30 34.6397 29.921 34.7804 29.7804C34.921 29.6397 35 29.4489 35 29.25C35 29.0511 34.921 28.8603 34.7804 28.7197C34.6397 28.579 34.4489 28.5 34.25 28.5H30V25.936C30 25.8766 29.9829 25.8184 29.9506 25.7685C29.9183 25.7186 29.8723 25.6792 29.818 25.6548C29.7638 25.6305 29.7037 25.6224 29.645 25.6315C29.5862 25.6406 29.5314 25.6665 29.487 25.706L25.759 29.02C25.7264 29.0488 25.7003 29.0842 25.6825 29.1239C25.6646 29.1635 25.6554 29.2065 25.6554 29.25C25.6554 29.2935 25.6646 29.3365 25.6825 29.3762C25.7003 29.4158 25.7264 29.4512 25.759 29.48ZM29.28 21.28C29.3496 21.2104 29.4048 21.1278 29.4425 21.0369C29.4802 20.9459 29.4996 20.8485 29.4996 20.75C29.4996 20.6516 29.4802 20.5541 29.4425 20.4632C29.4048 20.3723 29.3496 20.2896 29.28 20.22C29.2104 20.1504 29.1278 20.0952 29.0369 20.0575C28.9459 20.0199 28.8485 20.0005 28.75 20.0005C28.6516 20.0005 28.5541 20.0199 28.4632 20.0575C28.3722 20.0952 28.2896 20.1504 28.22 20.22L22.25 26.189L19.78 23.72C19.7104 23.6504 19.6278 23.5952 19.5369 23.5575C19.4459 23.5199 19.3485 23.5005 19.25 23.5005C19.1516 23.5005 19.0541 23.5199 18.9632 23.5575C18.8723 23.5952 18.7896 23.6504 18.72 23.72C18.6504 23.7896 18.5952 23.8723 18.5575 23.9632C18.5199 24.0541 18.5005 24.1516 18.5005 24.25C18.5005 24.3485 18.5199 24.4459 18.5575 24.5369C18.5952 24.6278 18.6504 24.7104 18.72 24.78L21.72 27.78C21.8606 27.9205 22.0513 27.9994 22.25 27.9994C22.4488 27.9994 22.6394 27.9205 22.78 27.78L29.28 21.28Z" fill="#34A853"/>
</svg>
