<svg width="48" height="48" viewBox="0 0 48 48" fill="none" xmlns="http://www.w3.org/2000/svg">
<path d="M0 10C0 4.47715 4.47715 0 10 0H38C43.5229 0 48 4.47715 48 10V38C48 43.5229 43.5228 48 38 48H10C4.47715 48 0 43.5228 0 38V10Z" fill="#FAAD14" fill-opacity="0.2"/>
<path d="M26 26.9986V16.9995C26 16.5575 25.7893 16.1337 25.4142 15.8211C25.0391 15.5086 24.5304 15.333 24 15.333H16C15.4696 15.333 14.9609 15.5086 14.5858 15.8211C14.2107 16.1337 14 16.5575 14 16.9995V26.1654C14 26.3864 14.1054 26.5983 14.2929 26.7546C14.4804 26.9108 14.7348 26.9986 15 26.9986H17" stroke="#FAAD14" stroke-width="1.66652" stroke-linecap="round" stroke-linejoin="round"/>
<path d="M27 26.9987H21" stroke="#FAAD14" stroke-width="1.66652" stroke-linecap="round" stroke-linejoin="round"/>
<path d="M31 26.9986H33C33.2652 26.9986 33.5196 26.9108 33.7071 26.7545C33.8946 26.5983 34 26.3863 34 26.1653V23.1239C33.9996 22.9348 33.922 22.7515 33.78 22.604L30.3 18.9793C30.2065 18.8817 30.0878 18.8029 29.9528 18.7487C29.8178 18.6944 29.6699 18.6662 29.52 18.666H26" stroke="#FAAD14" stroke-width="1.66652" stroke-linecap="round" stroke-linejoin="round"/>
<path d="M29 28.6652C30.1046 28.6652 31 27.9191 31 26.9987C31 26.0783 30.1046 25.3322 29 25.3322C27.8954 25.3322 27 26.0783 27 26.9987C27 27.9191 27.8954 28.6652 29 28.6652Z" stroke="#FAAD14" stroke-width="1.66652" stroke-linecap="round" stroke-linejoin="round"/>
<path d="M19 28.6652C20.1046 28.6652 21 27.9191 21 26.9987C21 26.0783 20.1046 25.3322 19 25.3322C17.8954 25.3322 17 26.0783 17 26.9987C17 27.9191 17.8954 28.6652 19 28.6652Z" stroke="#FAAD14" stroke-width="1.66652" stroke-linecap="round" stroke-linejoin="round"/>
</svg>
