<svg width="154" height="99" viewBox="0 0 154 99" fill="none" xmlns="http://www.w3.org/2000/svg">
<path d="M130.337 14.656C129.688 13.7623 128.811 13.6986 127.98 13.5692C123.024 12.791 118.042 12.9363 113.052 13.0896C106.201 13.3005 99.3472 13.406 92.496 13.5792C80.2551 13.8877 68.0162 14.2181 55.7774 14.5345C50.0563 14.6818 44.3293 14.7017 38.6162 14.9943C31.8368 15.3426 25.1413 16.2602 18.8831 19.1382C17.9545 19.5662 17.0619 20.0817 16.1853 20.6131C15.2867 21.1565 14.9333 21.9128 15.3846 22.9637C15.6961 23.6882 15.9317 24.4485 16.1653 25.2029C16.8183 27.3087 16.9801 29.3189 14.6817 30.9829C17.4254 31.7392 20.0053 31.586 22.5394 31.9064C22.4076 30.5669 22.1859 29.313 22.1799 28.0571C22.154 22.9239 26.3694 18.2466 31.2757 17.745C37.6218 17.0961 42.2685 21.3515 43.1551 26.2458C44.3892 33.0668 39.2093 39.1772 32.2602 38.9961C29.191 38.9165 26.609 37.6267 24.6481 35.2522C24.1349 34.6312 23.6556 34.4003 22.823 34.4103C20.265 34.4402 17.7069 34.3267 15.1489 34.2471C14.7556 34.2351 14.3602 34.1336 13.9748 34.0361C11.0873 33.3017 10.3225 31.7233 11.5905 29.0403C12.2195 27.7067 12.1277 26.3473 11.8781 24.968C11.8022 24.5441 11.7003 24.1261 11.6065 23.7061C11.0394 21.1485 11.892 19.2198 14.0626 17.7251C16.5587 16.0054 19.3364 15.0063 22.2079 14.1803C29.824 11.9889 37.6557 11.3858 45.5194 10.9678C46.2603 10.928 47.061 10.5777 47.692 10.1597C53.9003 6.03769 60.5779 3.00837 67.8725 1.36632C73.0923 0.192009 78.384 -0.0806742 83.7157 0.0188439C94.7744 0.225841 105.294 2.84713 115.5 6.9214C120.316 8.84409 125.281 10.2095 130.449 10.7588C132.13 10.938 133.005 11.8973 133.364 13.4179C133.676 14.7356 133.855 16.083 134.183 17.3967C134.42 18.3481 134.7 19.3174 135.139 20.1872C137.014 23.9052 135.748 28.2282 132.096 30.2863C129.746 31.6118 127.17 32.203 124.508 32.4617C123.715 32.5394 122.92 32.615 122.124 32.6508C121.405 32.6826 121.151 32.2109 121.547 31.7134C122.04 31.0943 122.659 30.4495 123.366 30.1549C124.823 29.5459 126.407 29.2393 127.881 28.6621C129.159 28.1606 130.495 27.6311 131.563 26.8051C133.284 25.4736 133.532 22.8164 132.206 21.0848C131.8 20.5554 131.04 20.2688 130.405 19.9424C129.288 19.3711 128.132 18.8815 127.02 18.3043C126.649 18.1112 126.325 17.7888 126.047 17.4683C125.241 16.5369 125.432 15.888 126.635 15.5576C127.817 15.2272 129.011 14.9744 130.337 14.656ZM109.17 9.51286C108.878 9.24416 108.82 9.1546 108.739 9.11877C107.86 8.73861 106.993 8.32859 106.097 7.9962C99.9263 5.70331 93.5923 4.16079 87.0105 3.55771C82.3059 3.12779 77.6332 3.25119 72.9845 3.87616C65.9854 4.81761 59.5774 7.42299 53.6327 11.1887C53.5149 11.2644 53.4331 11.3938 53.1755 11.6644C71.9022 10.6693 90.4452 10.6892 109.17 9.51286ZM32.6815 35.2423C36.234 35.2343 39.6526 32.6747 39.6526 28.3417C39.6526 24.2793 36.5734 21.4152 32.8213 21.3953C28.8355 21.3754 25.7364 24.568 25.7703 28.4511C25.8023 32.1273 28.9993 35.2681 32.6815 35.2423Z" fill="#00695C"/>
<path d="M154 43.0233C150.346 55.033 146.72 66.9577 143.078 78.9299C140.342 78.9299 137.603 78.9299 134.77 78.9299C132.458 71.5758 130.14 64.198 127.739 56.5592C127.142 58.4175 126.611 60.0227 126.108 61.6359C124.381 67.1673 122.657 72.6987 120.956 78.238C120.783 78.7995 120.546 79.007 119.922 78.9952C117.846 78.9517 115.765 78.9497 113.689 78.9991C113 79.015 112.721 78.8153 112.524 78.157C110.753 72.1946 108.938 66.2441 107.137 60.2896C105.497 54.8709 103.859 49.4522 102.223 44.0315C102.131 43.7251 102.08 43.4087 102 43.0549C105 43.0549 107.908 43.0549 110.847 43.0549C113.006 50.7925 115.159 58.5084 117.367 66.4259C117.53 66.0306 117.65 65.7953 117.727 65.5462C119.918 58.3443 122.107 51.1405 124.285 43.9326C124.478 43.2941 124.739 42.962 125.522 43.0035C127.059 43.0845 128.607 43.0766 130.146 43.0094C130.911 42.9758 131.144 43.2644 131.345 43.9385C133.605 51.4587 135.905 58.969 138.382 66.5129C138.828 64.9986 139.285 63.4883 139.722 61.972C141.462 55.9325 143.209 49.893 144.913 43.8437C145.09 43.217 145.328 43.0055 145.984 43.0134C148.63 43.043 151.274 43.0233 154 43.0233Z" fill="#00695C"/>
<path d="M20.982 62.7633C22.2117 60.7399 23.3575 58.8711 24.4834 56.9904C27.1383 52.5591 29.7753 48.12 32.4442 43.6986C32.6219 43.4053 32.9991 43.0407 33.2886 43.0367C36.1751 42.9872 39.0616 43.007 42 43.007C42 55.0245 42 66.9805 42 78.9921C39.3051 78.9921 36.6262 78.9921 33.8176 78.9921C33.8176 71.5961 33.8176 64.1704 33.8176 56.7447C33.7138 56.707 33.61 56.6713 33.5042 56.6337C29.414 63.4431 25.3218 70.2544 21.2316 77.0638C21.0978 77.0678 20.9621 77.0717 20.8283 77.0777C16.792 70.2683 12.7537 63.4569 8.7174 56.6476C8.65353 56.6634 8.59163 56.6793 8.52775 56.6951C8.52775 64.1149 8.52775 71.5366 8.52775 79C5.63726 79 2.85456 79 0 79C0 67.0499 0 55.0938 0 43.0704C0.231559 43.0486 0.485091 43.007 0.738608 43.007C3.46541 43.003 6.19421 42.9852 8.92102 43.0288C9.26037 43.0347 9.74744 43.2725 9.90913 43.55C12.9394 48.7521 15.9297 53.9761 18.928 59.1961C19.5827 60.3317 20.2355 61.4672 20.982 62.7633Z" fill="#00695C"/>
<path d="M80.6614 43.002C85.429 54.9736 90.1926 66.9295 95 78.9982C92.058 78.9982 89.2848 79.0101 86.5116 78.9725C86.305 78.9705 86.009 78.6415 85.9157 78.4017C85.1906 76.5389 84.4794 74.6721 83.8279 72.7835C83.6471 72.2623 83.4445 72.0641 82.8704 72.0681C78.3371 72.0978 73.8039 72.1077 69.2707 72.072C68.631 72.0681 68.4324 72.3237 68.2437 72.841C67.5722 74.686 66.873 76.523 66.1499 78.3482C66.0505 78.5999 65.7685 78.9606 65.5678 78.9625C62.7649 79.0022 59.9599 78.9903 57 78.9903C61.8173 66.9314 66.5869 54.9895 71.3744 43C74.4555 43.002 77.5584 43.002 80.6614 43.002ZM80.6474 65.0646C79.1317 60.9684 77.6478 56.9593 76.1639 52.9523C76.0824 52.9661 76.001 52.982 75.9215 52.9959C74.4138 57.0069 72.908 61.0199 71.3883 65.0646C74.523 65.0646 77.5187 65.0646 80.6474 65.0646Z" fill="#00695C"/>
<path d="M109.298 38.9999C103.621 38.9733 98.9707 33.9282 99.0001 27.8287C99.0296 21.8559 103.816 16.9293 109.52 17.0008C115.427 17.0743 120.064 22.0357 119.999 28.2129C119.938 33.92 114.871 39.0265 109.298 38.9999ZM109.483 35.1359C113.371 35.1134 116.335 31.9216 116.298 27.8021C116.265 24.0872 113.108 20.826 109.575 20.8628C105.636 20.9016 102.67 24.0076 102.65 28.1148C102.631 31.9114 105.792 35.1583 109.483 35.1359Z" fill="#00695C"/>
<path d="M46.0006 31.9976C45.9802 30.9369 46.5057 30.6115 47.1311 30.4912C49.3249 30.0656 51.5146 29.562 53.7268 29.3102C58.8803 28.7263 64.044 28.2383 69.2097 27.7748C72.4852 27.4807 75.7708 27.3047 79.0503 27.0618C83.6131 26.7253 88.1759 26.3532 92.7407 26.0434C94.0505 25.9543 95.3704 26.03 97 26.03C96.2748 26.8723 95.7269 27.6456 95.0588 28.2629C92.8772 30.2728 90.2821 31.1976 87.4752 31.2555C74.1127 31.5341 60.7502 31.7547 47.3878 31.9954C46.9498 32.0043 46.5119 31.9976 46.0006 31.9976Z" fill="#00695C"/>
<path d="M59 59C59 61.3465 59 63.6278 59 66C54.6743 66 50.363 66 46 66C46 63.6861 46 61.3792 46 59C50.3154 59 54.6059 59 59 59Z" fill="#00695C"/>
<path d="M114.094 95.9263C114.752 93.8326 115.405 91.8705 115.975 89.8829C116.161 89.2347 116.41 89.0148 117.077 89.0266C117.722 89.0383 117.909 89.3015 118.074 89.8907C118.625 91.8803 119.248 93.8483 119.923 96.0932C120.521 94.0918 121.059 92.3556 121.557 90.6057C122.054 88.8537 122.037 88.8478 124 89.1503C122.982 92.4322 121.969 95.6965 120.949 98.9843C120.296 98.9843 119.673 98.9843 119.037 98.9843C118.398 96.9397 117.766 94.9167 117.133 92.8938C117.06 92.88 116.986 92.8663 116.914 92.8525C116.233 94.901 115.551 96.9495 114.868 99C114.257 99 113.693 99 113.045 99C112.046 95.7299 111.043 92.4558 110 89.0423C110.462 89.0423 110.854 89.0757 111.238 89.0344C111.843 88.9696 112.114 89.221 112.286 89.8377C112.837 91.8312 113.458 93.807 114.094 95.9263Z" fill="#00695C"/>
<path d="M94 59C97.6825 59 101.304 59 105 59C105 61.304 105 63.6219 105 66C101.351 66 97.7044 66 94 66C94 63.7145 94 61.4266 94 59Z" fill="#00695C"/>
<path d="M10 89.1547C10 92.4267 10 95.6592 10 98.9666C9.34426 98.9666 8.71025 98.9666 7.97353 98.9666C7.97353 96.9578 7.97353 94.949 7.97353 92.9402C7.90835 92.9225 7.84515 92.9048 7.77997 92.889C7.16769 93.979 6.58109 95.0847 5.93523 96.157C5.13333 97.487 4.81929 97.4595 4.03714 96.0862C3.46634 95.0847 2.87774 94.0912 2.29706 93.0956C2.21015 93.1173 2.12326 93.1409 2.03635 93.1625C2.03635 95.0965 2.03635 97.0286 2.03635 99C1.28779 99 0.673514 99 0 99C0 95.732 0 92.4739 0 89.2138C1.73612 88.7789 2.10548 88.9285 2.94292 90.4061C3.56706 91.5059 4.18921 92.6057 4.91211 93.8787C5.59945 92.7218 6.36974 91.7321 6.80821 90.6146C7.4205 89.0564 8.47324 88.7986 10 89.1547Z" fill="#00695C"/>
<path d="M27 89.0217C28.3279 89.0217 29.6133 88.9626 30.8895 89.0395C32.042 89.1085 33.0725 89.5345 33.4899 90.8401C33.8667 92.0214 33.5435 93.0134 32.6108 93.7707C33.8667 94.7785 34.2231 95.7034 33.8722 96.9695C33.5416 98.1607 32.5185 98.9318 31.1075 98.9772C29.8793 99.0166 28.6511 98.993 27.4211 98.993C27.301 98.993 27.181 98.9673 27 98.9476C27 95.6738 27 92.4119 27 89.0217ZM28.8616 97.1963C29.6336 97.1963 30.3964 97.2653 31.1425 97.1746C31.7612 97.0997 32.1897 96.5711 32.0235 95.9341C31.9127 95.5062 31.4639 94.9737 31.0816 94.879C30.3927 94.7075 29.641 94.8317 28.8616 94.8317C28.8616 95.6363 28.8616 96.372 28.8616 97.1963ZM28.8247 93.0804C29.4896 93.0804 30.1231 93.108 30.751 93.0725C31.3494 93.039 31.7058 92.682 31.7095 92.0135C31.7132 91.3666 31.4159 90.9426 30.8009 90.9012C30.1508 90.8558 29.4951 90.8913 28.8247 90.8913C28.8247 91.6605 28.8247 92.331 28.8247 93.0804Z" fill="#00695C"/>
<path d="M98.0006 93.5859C97.9573 90.4001 100.089 88.0275 103.021 88.0002C105.844 87.9751 107.958 90.2659 107.999 93.3994C108.043 96.6124 105.988 98.9746 103.123 98.9997C100.083 99.027 98.046 96.8744 98.0006 93.5859ZM105.992 93.5482C105.994 91.3747 104.792 89.9306 102.991 89.9431C101.244 89.9557 100.034 91.4522 100.032 93.6069C100.03 95.6085 101.273 97.061 102.971 97.0442C104.752 97.0274 105.99 95.5938 105.992 93.5482Z" fill="#00695C"/>
<path d="M23.9999 93.5734C23.9849 96.7274 21.6766 99.0042 18.4935 99C15.2632 98.9958 12.9872 96.6938 13.0001 93.4433C13.013 90.239 15.3298 87.9895 18.6053 88C21.6959 88.0105 24.015 90.4048 23.9999 93.5734ZM18.5172 89.9348C16.585 89.9054 15.1966 91.3848 15.1686 93.5C15.1429 95.5103 16.5055 96.9939 18.4312 97.0505C20.3032 97.1051 21.769 95.5984 21.7926 93.5902C21.8184 91.5401 20.4064 89.9642 18.5172 89.9348Z" fill="#00695C"/>
<path d="M83.1071 89.0058C83.7361 89.0058 84.3143 89.0058 84.9622 89.0058C84.9622 91.2324 85.0657 93.4164 84.9301 95.585C84.8153 97.4401 83.4254 99.1754 80.6249 98.9858C78.6098 98.8504 77.0768 97.3898 77.0259 95.2987C76.9751 93.2152 77.0147 91.1279 77.0147 89C77.655 89 78.2331 89 78.9394 89C78.9394 91.0177 78.9243 92.9986 78.945 94.9814C78.9545 95.9138 79.2991 96.678 80.2257 97.0146C81.7474 97.5697 83.0073 96.6915 83.0544 94.993C83.1015 93.2907 83.0657 91.5845 83.0713 89.8802C83.0713 89.5978 83.0939 89.3173 83.1071 89.0058Z" fill="#00695C"/>
<path d="M76 98.9446C75.7002 98.9602 75.5074 98.9778 75.3147 98.9817C73.3873 99.011 73.3373 99.0246 72.702 97.5322C72.4402 96.9169 72.05 96.7313 71.3218 96.7997C70.8911 96.8407 70.439 96.8661 70.0178 96.8036C68.2522 96.5477 67.0601 96.9462 66.7484 98.5422C66.715 98.716 66.301 98.9407 66.0369 98.9661C65.4158 99.0286 64.7781 98.9856 64 98.9856C64.9899 96.9657 65.9465 95.0318 66.8888 93.0921C67.4551 91.9219 67.9572 90.7284 68.583 89.5817C68.721 89.3297 69.2683 89.0934 69.63 89.0895C70.2225 89.0836 71.0173 88.73 71.379 89.4704C72.9138 92.6115 74.4438 95.7527 76 98.9446ZM71.6169 95.0338C71.0649 93.8617 70.577 92.8225 70.0892 91.7852C69.9964 91.8008 69.9036 91.8145 69.8108 91.8301C69.3301 92.8694 68.8519 93.9106 68.3331 95.0338C69.4682 95.0338 70.4414 95.0338 71.6169 95.0338Z" fill="#00695C"/>
<path d="M129.171 94.915C129.171 95.7057 129.171 96.4151 129.171 97.2277C130.77 97.2277 132.358 97.2277 134 97.2277C134 97.8695 134 98.4119 134 99C131.662 99 129.356 99 127 99C127 95.672 127 92.3598 127 89C129.338 89 131.612 89 133.966 89C133.966 89.606 133.966 90.1762 133.966 90.8279C132.405 90.8279 130.845 90.8279 129.201 90.8279C129.201 91.577 129.201 92.2525 129.201 93.0294C130.482 93.0294 131.821 93.0294 133.254 93.0294C133.254 93.697 133.254 94.2652 133.254 94.9169C131.896 94.915 130.561 94.915 129.171 94.915Z" fill="#00695C"/>
<path d="M52 99C52 95.6321 52 92.326 52 89C54.3649 89 56.6738 89 59 89C59 89.6229 59 90.1759 59 90.8167C57.399 90.8167 55.8389 90.8167 54.2057 90.8167C54.2057 91.5794 54.2057 92.2581 54.2057 93.0367C55.5183 93.0367 56.8568 93.0367 58.249 93.0367C58.249 93.6876 58.249 94.2406 58.249 94.8954C56.9364 94.8954 55.5957 94.8954 54.197 94.8954C54.197 95.7059 54.197 96.4166 54.197 97.2172C55.7765 97.2172 57.3366 97.2172 58.9742 97.2172C58.9742 97.8461 58.9742 98.3891 58.9742 99C56.6975 99 54.3886 99 52 99Z" fill="#00695C"/>
<path d="M93.7971 99C92.8793 99 92.1137 99 91.2638 99C91.2638 96.2977 91.2638 93.6331 91.2638 90.8771C90.1517 90.8771 89.1191 90.8771 88 90.8771C88 90.2149 88 89.6383 88 89C90.9524 89 93.9352 89 97 89C97 89.5965 97 90.1652 97 90.8294C95.9441 90.8294 94.9069 90.8294 93.7971 90.8294C93.7971 93.5814 93.7971 96.242 93.7971 99Z" fill="#00695C"/>
<path d="M148.523 99C147.851 99 147.271 99 146.59 99C146.59 96.3129 146.59 93.6238 146.59 90.8372C145.675 90.8372 144.861 90.8372 144 90.8372C144 90.1843 144 89.631 144 89C146.32 89 148.634 89 151 89C151 89.5892 151 90.1664 151 90.8252C150.189 90.8252 149.4 90.8252 148.523 90.8252C148.523 93.592 148.523 96.283 148.523 99Z" fill="#00695C"/>
<path d="M144 97.2018C144 97.8787 144 98.4013 144 99C141.689 99 139.379 99 137 99C137 95.7141 137 92.4041 137 89C137.674 89 138.374 89 139.157 89C139.157 91.6992 139.157 94.4065 139.157 97.2018C140.783 97.2018 142.332 97.2018 144 97.2018Z" fill="#00695C"/>
<path d="M44.389 97.259C46.0212 97.259 47.4889 97.259 49 97.259C49 97.8685 49 98.4124 49 99C46.6545 99 44.3547 99 42 99C42 95.6653 42 92.3685 42 89C42.7704 89 43.5408 89 44.389 89C44.389 91.7351 44.389 94.4323 44.389 97.259Z" fill="#00695C"/>
<path d="M37 99C37 95.662 37 92.3639 37 89C37.6798 89 38.3104 89 39 89C39 92.332 39 95.6281 39 99C38.3615 99 37.7269 99 37 99Z" fill="#00695C"/>
</svg>
