<svg width="48" height="48" viewBox="0 0 48 48" fill="none" xmlns="http://www.w3.org/2000/svg">
<path d="M0 10C0 4.47715 4.47715 0 10 0H38C43.5229 0 48 4.47715 48 10V38C48 43.5229 43.5228 48 38 48H10C4.47715 48 0 43.5228 0 38V10Z" fill="#14B8A6" fill-opacity="0.2"/>
<path d="M15.9995 26C15.8103 26.0007 15.6247 25.9476 15.4645 25.847C15.3042 25.7464 15.1757 25.6024 15.0941 25.4317C15.0124 25.261 14.9808 25.0706 15.003 24.8827C15.0252 24.6948 15.1003 24.517 15.2195 24.37L25.1195 14.17C25.1938 14.0843 25.295 14.0264 25.4065 14.0058C25.518 13.9852 25.6332 14.0031 25.7332 14.0565C25.8332 14.11 25.9121 14.1959 25.9568 14.3001C26.0016 14.4044 26.0096 14.5207 25.9795 14.63L24.0595 20.65C24.0029 20.8016 23.9839 20.9646 24.0041 21.125C24.0243 21.2855 24.0832 21.4387 24.1756 21.5715C24.268 21.7042 24.3913 21.8126 24.5348 21.8872C24.6783 21.9618 24.8377 22.0006 24.9995 22H31.9995C32.1887 21.9994 32.3743 22.0525 32.5345 22.1531C32.6948 22.2537 32.8233 22.3977 32.905 22.5684C32.9866 22.7391 33.0182 22.9295 32.996 23.1174C32.9738 23.3053 32.8987 23.4831 32.7795 23.63L22.8795 33.83C22.8052 33.9158 22.704 33.9737 22.5925 33.9943C22.481 34.0149 22.3658 33.997 22.2658 33.9435C22.1658 33.89 22.0869 33.8041 22.0422 33.6999C21.9974 33.5957 21.9894 33.4794 22.0195 33.37L23.9395 27.35C23.9961 27.1985 24.0151 27.0355 23.9949 26.875C23.9747 26.7145 23.9158 26.5614 23.8234 26.4286C23.731 26.2959 23.6077 26.1875 23.4642 26.1129C23.3207 26.0382 23.1613 25.9995 22.9995 26H15.9995Z" stroke="#14B8A6" stroke-width="1.66652" stroke-linecap="round" stroke-linejoin="round"/>
</svg>
