<svg width="48" height="48" viewBox="0 0 48 48" fill="none" xmlns="http://www.w3.org/2000/svg">
<path d="M0 10C0 4.47715 4.47715 0 10 0H38C43.5229 0 48 4.47715 48 10V38C48 43.5229 43.5228 48 38 48H10C4.47715 48 0 43.5228 0 38V10Z" fill="#155DFC" fill-opacity="0.1"/>
<path d="M18.996 14.6208L16.1251 17.4926L15.0042 16.37L13.7451 17.63L15.4951 19.38L16.1242 19.9811L16.7534 19.38L20.2534 15.88L18.996 14.6208ZM23.1251 16.125V17.875H34.5001V16.125H23.1251ZM18.996 21.6208L16.1251 24.4917L15.0042 23.3717L13.746 24.6291L15.496 26.3791L16.1251 26.9802L16.7542 26.3791L20.2542 22.8791L18.996 21.6208ZM23.1251 23.125V24.875H34.5001V23.125H23.1251ZM18.996 28.6208L16.1251 31.4926L15.0042 30.37L13.7451 31.63L15.4951 33.38L16.1242 33.9811L16.7534 33.38L20.2534 29.88L18.996 28.6208ZM23.1251 30.125V31.875H34.5001V30.125H23.1251Z" fill="#2196F3"/>
</svg>
