<svg width="48" height="48" viewBox="0 0 48 48" fill="none" xmlns="http://www.w3.org/2000/svg">
<path d="M0 10C0 4.47715 4.47715 0 10 0H38C43.5229 0 48 4.47715 48 10V38C48 43.5229 43.5228 48 38 48H10C4.47715 48 0 43.5228 0 38V10Z" fill="#34A853" fill-opacity="0.1"/>
<path d="M23 18C26.0414 18.0783 29.0139 17.0875 31.4 15.2C31.5486 15.0886 31.7252 15.0207 31.9102 15.004C32.0952 14.9874 32.2811 15.0225 32.4472 15.1056C32.6133 15.1886 32.753 15.3163 32.8507 15.4743C32.9483 15.6322 33 15.8143 33 16V28C33 28.1857 32.9483 28.3678 32.8507 28.5257C32.753 28.6837 32.6133 28.8114 32.4472 28.8944C32.2811 28.9775 32.0952 29.0126 31.9102 28.996C31.7252 28.9793 31.5486 28.9114 31.4 28.8C29.0139 26.9125 26.0414 25.9217 23 26H17C16.4696 26 15.9609 25.7893 15.5858 25.4142C15.2107 25.0391 15 24.5304 15 24V20C15 19.4696 15.2107 18.9609 15.5858 18.5858C15.9609 18.2107 16.4696 18 17 18H23Z" stroke="#34A853" stroke-width="2" stroke-linecap="round" stroke-linejoin="round"/>
<path d="M18 26C18 28.5964 18.8421 31.1228 20.4 33.2C20.7183 33.6243 21.1921 33.9049 21.7172 33.9799C22.2423 34.0549 22.7757 33.9183 23.2 33.6C23.6243 33.2817 23.9049 32.8079 23.9799 32.2828C24.0549 31.7577 23.9183 31.2243 23.6 30.8C22.5614 29.4152 22 27.731 22 26" stroke="#34A853" stroke-width="2" stroke-linecap="round" stroke-linejoin="round"/>
<path d="M20 18V26" stroke="#34A853" stroke-width="2" stroke-linecap="round" stroke-linejoin="round"/>
</svg>
