<svg width="48" height="48" viewBox="0 0 48 48" fill="none" xmlns="http://www.w3.org/2000/svg">
<path d="M0 10C0 4.47715 4.47715 0 10 0H38C43.5229 0 48 4.47715 48 10V38C48 43.5229 43.5228 48 38 48H10C4.47715 48 0 43.5228 0 38V10Z" fill="#FAAD14" fill-opacity="0.1"/>
<path d="M29 34C27.6167 34 26.4377 33.5123 25.463 32.537C24.4883 31.5617 24.0007 30.3827 24 29C23.9993 27.6173 24.487 26.4383 25.463 25.463C26.439 24.4877 27.618 24 29 24C30.382 24 31.5613 24.4877 32.538 25.463C33.5147 26.4383 34.002 27.6173 34 29C33.998 30.3827 33.5103 31.562 32.537 32.538C31.5637 33.514 30.3847 34.0013 29 34ZM29.5 28.8V26.5C29.5 26.3667 29.45 26.25 29.35 26.15C29.25 26.05 29.1333 26 29 26C28.8667 26 28.75 26.05 28.65 26.15C28.55 26.25 28.5 26.3667 28.5 26.5V28.775C28.5 28.9083 28.525 29.0377 28.575 29.163C28.625 29.2883 28.7 29.4007 28.8 29.5L30.325 31.025C30.425 31.125 30.5417 31.175 30.675 31.175C30.8083 31.175 30.925 31.125 31.025 31.025C31.125 30.925 31.175 30.8083 31.175 30.675C31.175 30.5417 31.125 30.425 31.025 30.325L29.5 28.8ZM17 33C16.45 33 15.9793 32.8043 15.588 32.413C15.1967 32.0217 15.0007 31.5507 15 31V17C15 16.45 15.196 15.9793 15.588 15.588C15.98 15.1967 16.4507 15.0007 17 15H21.175C21.3583 14.4167 21.7167 13.9377 22.25 13.563C22.7833 13.1883 23.3667 13.0007 24 13C24.6667 13 25.2627 13.1877 25.788 13.563C26.3133 13.9383 26.6673 14.4173 26.85 15H31C31.55 15 32.021 15.196 32.413 15.588C32.805 15.98 33.0007 16.4507 33 17V21C33 21.2833 32.904 21.521 32.712 21.713C32.52 21.905 32.2827 22.0007 32 22C31.7173 21.9993 31.48 21.9033 31.288 21.712C31.096 21.5207 31 21.2833 31 21V17H29V19C29 19.2833 28.904 19.521 28.712 19.713C28.52 19.905 28.2827 20.0007 28 20H20C19.7167 20 19.4793 19.904 19.288 19.712C19.0967 19.52 19.0007 19.2827 19 19V17H17V31H21.5C21.7833 31 22.021 31.096 22.213 31.288C22.405 31.48 22.5007 31.7173 22.5 32C22.4993 32.2827 22.4033 32.5203 22.212 32.713C22.0207 32.9057 21.7833 33.0013 21.5 33H17ZM24 17C24.2833 17 24.521 16.904 24.713 16.712C24.905 16.52 25.0007 16.2827 25 16C24.9993 15.7173 24.9033 15.48 24.712 15.288C24.5207 15.096 24.2833 15 24 15C23.7167 15 23.4793 15.096 23.288 15.288C23.0967 15.48 23.0007 15.7173 23 16C22.9993 16.2827 23.0953 16.5203 23.288 16.713C23.4807 16.9057 23.718 17.0013 24 17Z" fill="#FAAD14"/>
</svg>
