<svg width="48" height="48" viewBox="0 0 48 48" fill="none" xmlns="http://www.w3.org/2000/svg">
<path d="M0 10C0 4.47715 4.47715 0 10 0H38C43.5229 0 48 4.47715 48 10V38C48 43.5229 43.5228 48 38 48H10C4.47715 48 0 43.5228 0 38V10Z" fill="#9810FA" fill-opacity="0.1"/>
<path d="M33.544 23.045C33.848 23.4713 34 23.6845 34 24C34 24.3155 33.848 24.5287 33.544 24.955C32.1779 26.8706 28.6892 31 24 31C19.3108 31 15.8221 26.8706 14.456 24.955C14.152 24.5287 14 24.3155 14 24C14 23.6845 14.152 23.4713 14.456 23.045C15.8221 21.1294 19.3108 17 24 17C28.6892 17 32.1779 21.1294 33.544 23.045Z" stroke="#9810FA" stroke-width="1.5"/>
<path d="M27 24C27 22.3431 25.6569 21 24 21C22.3431 21 21 22.3431 21 24C21 25.6569 22.3431 27 24 27C25.6569 27 27 25.6569 27 24Z" stroke="#9810FA" stroke-width="1.5"/>
</svg>
