<svg width="60" height="60" viewBox="0 0 60 60" fill="none" xmlns="http://www.w3.org/2000/svg">
<rect width="60" height="60" rx="30" fill="#00695C"/>
<path d="M36.4095 15H24.1135C22.3966 15 21 16.3966 21 18.1135V41.8865C21 43.6034 22.3966 45 24.1135 45H36.4095C38.1263 45 39.5232 43.6034 39.5232 41.8865V18.1135C39.5232 16.3966 38.1263 15 36.4095 15ZM36.4095 43.2191H24.1135C23.3788 43.2191 22.7809 42.6212 22.7809 41.8865V39.8444H37.742V41.8865C37.742 42.6212 37.1442 43.2191 36.4095 43.2191ZM37.742 21.9365V38.0635H22.7809V21.9365H37.742ZM22.7809 20.1556V18.1135C22.7809 17.3788 23.3788 16.7809 24.1135 16.7809H36.4095C37.1442 16.7809 37.742 17.3788 37.742 18.1135V20.1556H22.7809Z" fill="white"/>
<path d="M31.6552 40.6221H28.8766C28.3764 40.6221 27.9707 41.0208 27.9707 41.5126C27.9707 42.0045 28.3764 42.4032 28.8766 42.4032H31.6552C32.1557 42.4032 32.5613 42.0045 32.5613 41.5126C32.5613 41.0208 32.1557 40.6221 31.6552 40.6221Z" fill="white"/>
<path d="M25.3729 27.3583H35.1585C35.6589 27.3583 36.0646 26.9596 36.0646 26.4677C36.0646 25.9759 35.6589 25.5771 35.1585 25.5771H25.3729C24.8725 25.5771 24.4668 25.9759 24.4668 26.4677C24.4668 26.9596 24.8725 27.3583 25.3729 27.3583Z" fill="white"/>
<path d="M25.3729 30.8905H35.1585C35.6589 30.8905 36.0646 30.4918 36.0646 30C36.0646 29.5081 35.6589 29.1094 35.1585 29.1094H25.3729C24.8725 29.1094 24.4668 29.5081 24.4668 30C24.4668 30.4918 24.8725 30.8905 25.3729 30.8905Z" fill="white"/>
<path d="M25.3729 34.4225H31.5645C32.065 34.4225 32.4707 34.0238 32.4707 33.532C32.4707 33.0403 32.065 32.6416 31.5645 32.6416H25.3729C24.8725 32.6416 24.4668 33.0403 24.4668 33.532C24.4668 34.0238 24.8725 34.4225 25.3729 34.4225Z" fill="white"/>
</svg>
