<svg width="36" height="39" viewBox="0 0 36 39" fill="none" xmlns="http://www.w3.org/2000/svg">
<g clip-path="url(#clip0_27095_17982)">
<path d="M16.8115 18.5928L0.148438 35.7011C0.335562 36.351 0.671831 36.9503 1.13154 37.4533C1.59125 37.9563 2.16222 38.3496 2.80082 38.6032C3.43942 38.8568 4.12873 38.964 4.81606 38.9165C5.50339 38.869 6.17055 38.6681 6.76653 38.3293L25.5156 27.8649L16.8115 18.5928Z" fill="#EA4335"/>
<path d="M33.6598 15.6848L25.5521 11.1338L16.4258 18.982L25.5892 27.8404L33.6352 23.3382C34.348 22.9724 34.945 22.4225 35.3616 21.7479C35.7781 21.0733 35.9983 20.2999 35.9983 19.5114C35.9983 18.7229 35.7781 17.9495 35.3616 17.2749C34.945 16.6004 34.348 16.0504 33.6352 15.6847L33.6598 15.6848Z" fill="#FBBC04"/>
<path d="M0.149106 3.23633C0.0484457 3.60124 -0.00169097 3.97775 4.35044e-05 4.35575V34.581C0.00103745 34.9589 0.0511278 35.3351 0.149106 35.7006L17.3834 19.0304L0.149106 3.23633Z" fill="#4285F4"/>
<path d="M16.9357 19.4689L25.5529 11.1337L6.82869 0.620563C6.12419 0.216259 5.32295 0.00213958 4.50655 8.45188e-06C2.48056 -0.0038502 0.699406 1.31388 0.148438 3.2246L16.9357 19.4689Z" fill="#34A853"/>
</g>
<defs>
<clipPath id="clip0_27095_17982">
<rect width="36" height="39" fill="white"/>
</clipPath>
</defs>
</svg>
