<svg width="224" height="74" viewBox="0 0 224 74" fill="none" xmlns="http://www.w3.org/2000/svg">
<rect width="224" height="74" rx="14" fill="#101010"/>
<g clip-path="url(#clip0_27095_17981)">
<path d="M32.8115 36.0928L16.1484 53.2011C16.3356 53.851 16.6718 54.4503 17.1315 54.9533C17.5912 55.4563 18.1622 55.8496 18.8008 56.1032C19.4394 56.3568 20.1287 56.464 20.8161 56.4165C21.5034 56.369 22.1706 56.1681 22.7665 55.8293L41.5156 45.3649L32.8115 36.0928Z" fill="#EA4335"/>
<path d="M49.6598 33.1848L41.5521 28.6338L32.4258 36.482L41.5892 45.3404L49.6352 40.8382C50.348 40.4724 50.945 39.9225 51.3616 39.2479C51.7781 38.5733 51.9983 37.7999 51.9983 37.0114C51.9983 36.2229 51.7781 35.4495 51.3616 34.7749C50.945 34.1004 50.348 33.5504 49.6352 33.1847L49.6598 33.1848Z" fill="#FBBC04"/>
<path d="M16.1491 20.7363C16.0484 21.1012 15.9983 21.4778 16 21.8558V52.081C16.001 52.4589 16.0511 52.8351 16.1491 53.2006L33.3834 36.5304L16.1491 20.7363Z" fill="#4285F4"/>
<path d="M32.9357 36.9689L41.5529 28.6337L22.8287 18.1206C22.1242 17.7163 21.3229 17.5021 20.5065 17.5C18.4806 17.4961 16.6994 18.8139 16.1484 20.7246L32.9357 36.9689Z" fill="#34A853"/>
</g>
<path d="M71.68 17.08C71.3707 16.4293 70.9227 15.928 70.336 15.576C69.7493 15.2133 69.0667 15.032 68.288 15.032C67.5093 15.032 66.8053 15.2133 66.176 15.576C65.5573 15.928 65.0667 16.44 64.704 17.112C64.352 17.7733 64.176 18.5413 64.176 19.416C64.176 20.2907 64.352 21.0587 64.704 21.72C65.0667 22.3813 65.5573 22.8933 66.176 23.256C66.8053 23.608 67.5093 23.784 68.288 23.784C69.376 23.784 70.272 23.4587 70.976 22.808C71.68 22.1573 72.0907 21.2773 72.208 20.168H67.76V18.984H73.76V20.104C73.6747 21.0213 73.3867 21.864 72.896 22.632C72.4053 23.3893 71.76 23.992 70.96 24.44C70.16 24.8773 69.2693 25.096 68.288 25.096C67.2533 25.096 66.3093 24.856 65.456 24.376C64.6027 23.8853 63.9253 23.208 63.424 22.344C62.9333 21.48 62.688 20.504 62.688 19.416C62.688 18.328 62.9333 17.352 63.424 16.488C63.9253 15.6133 64.6027 14.936 65.456 14.456C66.3093 13.9653 67.2533 13.72 68.288 13.72C69.472 13.72 70.5173 14.0133 71.424 14.6C72.3413 15.1867 73.008 16.0133 73.424 17.08H71.68ZM77.1411 15.032V18.76H81.2051V19.96H77.1411V23.8H81.6851V25H75.6851V13.832H81.6851V15.032H77.1411ZM90.7523 13.848V15.032H87.7123V25H86.2563V15.032H83.2003V13.848H90.7523ZM98.2661 13.848V25H96.8101V13.848H98.2661ZM107.612 13.848V15.032H104.572V25H103.116V15.032H100.06V13.848H107.612ZM118.726 25.112C117.691 25.112 116.747 24.872 115.894 24.392C115.04 23.9013 114.363 23.224 113.862 22.36C113.371 21.4853 113.126 20.504 113.126 19.416C113.126 18.328 113.371 17.352 113.862 16.488C114.363 15.6133 115.04 14.936 115.894 14.456C116.747 13.9653 117.691 13.72 118.726 13.72C119.771 13.72 120.72 13.9653 121.574 14.456C122.427 14.936 123.099 15.608 123.59 16.472C124.08 17.336 124.326 18.3173 124.326 19.416C124.326 20.5147 124.08 21.496 123.59 22.36C123.099 23.224 122.427 23.9013 121.574 24.392C120.72 24.872 119.771 25.112 118.726 25.112ZM118.726 23.848C119.504 23.848 120.203 23.6667 120.822 23.304C121.451 22.9413 121.942 22.424 122.294 21.752C122.656 21.08 122.838 20.3013 122.838 19.416C122.838 18.52 122.656 17.7413 122.294 17.08C121.942 16.408 121.456 15.8907 120.838 15.528C120.219 15.1653 119.515 14.984 118.726 14.984C117.936 14.984 117.232 15.1653 116.614 15.528C115.995 15.8907 115.504 16.408 115.142 17.08C114.79 17.7413 114.614 18.52 114.614 19.416C114.614 20.3013 114.79 21.08 115.142 21.752C115.504 22.424 115.995 22.9413 116.614 23.304C117.243 23.6667 117.947 23.848 118.726 23.848ZM135.016 25H133.56L127.704 16.12V25H126.248V13.832H127.704L133.56 22.696V13.832H135.016V25Z" fill="white"/>
<path d="M75.32 44.288C74.936 43.584 74.408 43.048 73.736 42.68C73.064 42.312 72.28 42.128 71.384 42.128C70.392 42.128 69.512 42.352 68.744 42.8C67.976 43.248 67.376 43.888 66.944 44.72C66.512 45.552 66.296 46.512 66.296 47.6C66.296 48.72 66.512 49.696 66.944 50.528C67.392 51.36 68.008 52 68.792 52.448C69.576 52.896 70.488 53.12 71.528 53.12C72.808 53.12 73.856 52.784 74.672 52.112C75.488 51.424 76.024 50.472 76.28 49.256H70.52V46.688H79.592V49.616C79.368 50.784 78.888 51.864 78.152 52.856C77.416 53.848 76.464 54.648 75.296 55.256C74.144 55.848 72.848 56.144 71.408 56.144C69.792 56.144 68.328 55.784 67.016 55.064C65.72 54.328 64.696 53.312 63.944 52.016C63.208 50.72 62.84 49.248 62.84 47.6C62.84 45.952 63.208 44.48 63.944 43.184C64.696 41.872 65.72 40.856 67.016 40.136C68.328 39.4 69.784 39.032 71.384 39.032C73.272 39.032 74.912 39.496 76.304 40.424C77.696 41.336 78.656 42.624 79.184 44.288H75.32ZM87.9819 56.216C86.7019 56.216 85.5499 55.936 84.5259 55.376C83.5019 54.8 82.6939 53.992 82.1019 52.952C81.5259 51.912 81.2379 50.712 81.2379 49.352C81.2379 47.992 81.5339 46.792 82.1259 45.752C82.7339 44.712 83.5579 43.912 84.5979 43.352C85.6379 42.776 86.7979 42.488 88.0779 42.488C89.3579 42.488 90.5179 42.776 91.5579 43.352C92.5979 43.912 93.4139 44.712 94.0059 45.752C94.6139 46.792 94.9179 47.992 94.9179 49.352C94.9179 50.712 94.6059 51.912 93.9819 52.952C93.3739 53.992 92.5419 54.8 91.4859 55.376C90.4459 55.936 89.2779 56.216 87.9819 56.216ZM87.9819 53.288C88.5899 53.288 89.1579 53.144 89.6859 52.856C90.2299 52.552 90.6619 52.104 90.9819 51.512C91.3019 50.92 91.4619 50.2 91.4619 49.352C91.4619 48.088 91.1259 47.12 90.4539 46.448C89.7979 45.76 88.9899 45.416 88.0299 45.416C87.0699 45.416 86.2619 45.76 85.6059 46.448C84.9659 47.12 84.6459 48.088 84.6459 49.352C84.6459 50.616 84.9579 51.592 85.5819 52.28C86.2219 52.952 87.0219 53.288 87.9819 53.288ZM103.287 56.216C102.007 56.216 100.855 55.936 99.8306 55.376C98.8066 54.8 97.9986 53.992 97.4066 52.952C96.8306 51.912 96.5426 50.712 96.5426 49.352C96.5426 47.992 96.8386 46.792 97.4306 45.752C98.0386 44.712 98.8626 43.912 99.9026 43.352C100.943 42.776 102.103 42.488 103.383 42.488C104.663 42.488 105.823 42.776 106.863 43.352C107.903 43.912 108.719 44.712 109.311 45.752C109.919 46.792 110.223 47.992 110.223 49.352C110.223 50.712 109.911 51.912 109.287 52.952C108.679 53.992 107.847 54.8 106.791 55.376C105.751 55.936 104.583 56.216 103.287 56.216ZM103.287 53.288C103.895 53.288 104.463 53.144 104.991 52.856C105.535 52.552 105.967 52.104 106.287 51.512C106.607 50.92 106.767 50.2 106.767 49.352C106.767 48.088 106.431 47.12 105.759 46.448C105.103 45.76 104.295 45.416 103.335 45.416C102.375 45.416 101.567 45.76 100.911 46.448C100.271 47.12 99.9506 48.088 99.9506 49.352C99.9506 50.616 100.263 51.592 100.887 52.28C101.527 52.952 102.327 53.288 103.287 53.288ZM117.895 42.488C118.887 42.488 119.759 42.688 120.511 43.088C121.263 43.472 121.855 43.976 122.287 44.6V42.704H125.671V56.096C125.671 57.328 125.423 58.424 124.927 59.384C124.431 60.36 123.687 61.128 122.695 61.688C121.703 62.264 120.503 62.552 119.095 62.552C117.207 62.552 115.655 62.112 114.439 61.232C113.239 60.352 112.559 59.152 112.399 57.632H115.735C115.911 58.24 116.287 58.72 116.863 59.072C117.455 59.44 118.167 59.624 118.999 59.624C119.975 59.624 120.767 59.328 121.375 58.736C121.983 58.16 122.287 57.28 122.287 56.096V54.032C121.855 54.656 121.255 55.176 120.487 55.592C119.735 56.008 118.871 56.216 117.895 56.216C116.775 56.216 115.751 55.928 114.823 55.352C113.895 54.776 113.159 53.968 112.615 52.928C112.087 51.872 111.823 50.664 111.823 49.304C111.823 47.96 112.087 46.768 112.615 45.728C113.159 44.688 113.887 43.888 114.799 43.328C115.727 42.768 116.759 42.488 117.895 42.488ZM122.287 49.352C122.287 48.536 122.127 47.84 121.807 47.264C121.487 46.672 121.055 46.224 120.511 45.92C119.967 45.6 119.383 45.44 118.759 45.44C118.135 45.44 117.559 45.592 117.031 45.896C116.503 46.2 116.071 46.648 115.735 47.24C115.415 47.816 115.255 48.504 115.255 49.304C115.255 50.104 115.415 50.808 115.735 51.416C116.071 52.008 116.503 52.464 117.031 52.784C117.575 53.104 118.151 53.264 118.759 53.264C119.383 53.264 119.967 53.112 120.511 52.808C121.055 52.488 121.487 52.04 121.807 51.464C122.127 50.872 122.287 50.168 122.287 49.352ZM132.313 38.24V56H128.953V38.24H132.313ZM147.993 49.064C147.993 49.544 147.961 49.976 147.897 50.36H138.177C138.257 51.32 138.593 52.072 139.185 52.616C139.777 53.16 140.505 53.432 141.369 53.432C142.617 53.432 143.505 52.896 144.033 51.824H147.657C147.273 53.104 146.537 54.16 145.449 54.992C144.361 55.808 143.025 56.216 141.441 56.216C140.161 56.216 139.009 55.936 137.985 55.376C136.977 54.8 136.185 53.992 135.609 52.952C135.049 51.912 134.769 50.712 134.769 49.352C134.769 47.976 135.049 46.768 135.609 45.728C136.169 44.688 136.953 43.888 137.961 43.328C138.969 42.768 140.129 42.488 141.441 42.488C142.705 42.488 143.833 42.76 144.825 43.304C145.833 43.848 146.609 44.624 147.153 45.632C147.713 46.624 147.993 47.768 147.993 49.064ZM144.513 48.104C144.497 47.24 144.185 46.552 143.577 46.04C142.969 45.512 142.225 45.248 141.345 45.248C140.513 45.248 139.809 45.504 139.233 46.016C138.673 46.512 138.329 47.208 138.201 48.104H144.513ZM168.38 44.432C168.38 45.328 168.164 46.168 167.732 46.952C167.316 47.736 166.652 48.368 165.74 48.848C164.844 49.328 163.708 49.568 162.332 49.568H159.524V56H156.164V39.248H162.332C163.628 39.248 164.732 39.472 165.644 39.92C166.556 40.368 167.236 40.984 167.684 41.768C168.148 42.552 168.38 43.44 168.38 44.432ZM162.188 46.856C163.116 46.856 163.804 46.648 164.252 46.232C164.7 45.8 164.924 45.2 164.924 44.432C164.924 42.8 164.012 41.984 162.188 41.984H159.524V46.856H162.188ZM174.125 38.24V56H170.765V38.24H174.125ZM176.581 49.304C176.581 47.96 176.845 46.768 177.373 45.728C177.917 44.688 178.645 43.888 179.557 43.328C180.485 42.768 181.517 42.488 182.653 42.488C183.645 42.488 184.509 42.688 185.245 43.088C185.997 43.488 186.597 43.992 187.045 44.6V42.704H190.429V56H187.045V54.056C186.613 54.68 186.013 55.2 185.245 55.616C184.493 56.016 183.621 56.216 182.629 56.216C181.509 56.216 180.485 55.928 179.557 55.352C178.645 54.776 177.917 53.968 177.373 52.928C176.845 51.872 176.581 50.664 176.581 49.304ZM187.045 49.352C187.045 48.536 186.885 47.84 186.565 47.264C186.245 46.672 185.813 46.224 185.269 45.92C184.725 45.6 184.141 45.44 183.517 45.44C182.893 45.44 182.317 45.592 181.789 45.896C181.261 46.2 180.829 46.648 180.493 47.24C180.173 47.816 180.013 48.504 180.013 49.304C180.013 50.104 180.173 50.808 180.493 51.416C180.829 52.008 181.261 52.464 181.789 52.784C182.333 53.104 182.909 53.264 183.517 53.264C184.141 53.264 184.725 53.112 185.269 52.808C185.813 52.488 186.245 52.04 186.565 51.464C186.885 50.872 187.045 50.168 187.045 49.352ZM206.431 42.704L198.199 62.288H194.623L197.503 55.664L192.175 42.704H195.943L199.375 51.992L202.855 42.704H206.431Z" fill="white"/>
<defs>
<clipPath id="clip0_27095_17981">
<rect width="36" height="39" fill="white" transform="translate(16 17.5)"/>
</clipPath>
</defs>
</svg>
