<svg width="89" height="50" viewBox="0 0 89 50" fill="none" xmlns="http://www.w3.org/2000/svg">
<g opacity="0.4">
<path d="M60.563 16.5625C55.9033 16.5625 52.125 20.3401 52.125 25C52.125 29.6599 55.9033 33.4375 60.563 33.4375C65.2226 33.4375 69 29.6599 69 25C69 20.3401 65.2226 16.5625 60.563 16.5625ZM60.563 31.0714C57.2157 31.0714 54.4928 28.3474 54.4928 25C54.4928 21.6525 57.2157 18.9295 60.563 18.9295C63.9102 18.9295 66.6331 21.6525 66.6331 25C66.6331 28.3474 63.9103 31.0714 60.563 31.0714Z" fill="#00695C"/>
<path d="M60.5623 16.5625C60.1606 16.5625 59.7656 16.5912 59.3789 16.6456C63.4783 17.2211 67.3752 20.7419 67.3752 25C67.3752 29.2581 63.4782 32.7789 59.3789 33.3544C59.7656 33.4087 60.1606 33.4375 60.5623 33.4375C65.222 33.4375 69.0003 29.6599 69.0003 25C69.0003 20.3401 65.222 16.5625 60.5623 16.5625Z" fill="#00695C"/>
<path d="M50.2494 16.5625C45.5899 16.5625 41.8125 20.3401 41.8125 25C41.8125 29.6599 45.5898 33.4375 50.2494 33.4375C54.9091 33.4375 58.6873 29.6599 58.6873 25C58.6873 20.3401 54.909 16.5625 50.2494 16.5625ZM50.2494 31.0714C46.9022 31.0714 44.1794 28.3474 44.1794 25C44.1794 21.6525 46.9022 18.9295 50.2494 18.9295C53.5967 18.9295 56.3205 21.6525 56.3205 25C56.3205 28.3474 53.5967 31.0714 50.2494 31.0714Z" fill="#00695C"/>
<path d="M50.2498 16.5625C49.8481 16.5625 49.4531 16.5912 49.0664 16.6456C53.1657 17.2211 57.0626 20.7419 57.0626 25C57.0626 29.2581 53.1657 32.7789 49.0664 33.3544C49.4531 33.4087 49.8481 33.4375 50.2498 33.4375C54.9094 33.4375 58.6877 29.6599 58.6877 25C58.6877 20.3401 54.9094 16.5625 50.2498 16.5625Z" fill="#00695C"/>
<path d="M39.7505 16.5625C35.0908 16.5625 31.3125 20.3401 31.3125 25C31.3125 29.6599 35.0908 33.4375 39.7505 33.4375C44.4101 33.4375 48.1875 29.6599 48.1875 25C48.1875 20.3401 44.4101 16.5625 39.7505 16.5625ZM39.7505 31.0714C36.4032 31.0714 33.6803 28.3474 33.6803 25C33.6803 21.6525 36.4032 18.9295 39.7505 18.9295C43.0977 18.9295 45.8206 21.6525 45.8206 25C45.8206 28.3474 43.0978 31.0714 39.7505 31.0714Z" fill="#00695C"/>
<path d="M39.7498 16.5625C39.3481 16.5625 38.9531 16.5912 38.5664 16.6456C42.6658 17.2211 46.5627 20.7419 46.5627 25C46.5627 29.2581 42.6657 32.7789 38.5664 33.3544C38.9531 33.4087 39.3481 33.4375 39.7498 33.4375C44.4095 33.4375 48.1878 29.6599 48.1878 25C48.1878 20.3401 44.4095 16.5625 39.7498 16.5625Z" fill="#00695C"/>
<path d="M29.437 16.5625C24.7774 16.5625 21 20.3401 21 25C21 29.6599 24.7774 33.4375 29.437 33.4375C34.0967 33.4375 37.875 29.6599 37.875 25C37.875 20.3401 34.0967 16.5625 29.437 16.5625ZM29.437 31.0714C26.0898 31.0714 23.3669 28.3474 23.3669 25C23.3669 21.6525 26.0898 18.9295 29.437 18.9295C32.7843 18.9295 35.5082 21.6525 35.5082 25C35.5081 28.3474 32.7843 31.0714 29.437 31.0714Z" fill="#00695C"/>
<path d="M29.4373 16.5625C29.0356 16.5625 28.6406 16.5912 28.2539 16.6456C32.3533 17.2211 36.2502 20.7419 36.2502 25C36.2502 29.2581 32.3532 32.7789 28.2539 33.3544C28.6406 33.4088 29.0356 33.4375 29.4373 33.4375C34.097 33.4375 37.8753 29.6599 37.8753 25C37.8753 20.3401 34.097 16.5625 29.4373 16.5625Z" fill="#00695C"/>
</g>
</svg>
