<svg width="386" height="542" viewBox="0 0 386 542" fill="none" xmlns="http://www.w3.org/2000/svg">
<path d="M268.839 154.741L28.8555 180.015L61.0583 486L301.042 460.726L268.839 154.741Z" fill="#E2E8F0"/>
<path d="M277.992 161.291L40.4023 196.939L82.3587 476.773L319.948 441.125L277.992 161.291Z" fill="#F3F4F6"/>
<path d="M371.44 186.56C371.44 186.56 362.003 180.338 350.57 202.829C339.138 225.321 334.764 238.278 334.764 238.278C334.764 238.278 331.733 242.942 328.498 239.911C325.262 236.879 320.823 228.082 315.321 229.649C309.614 231.282 307.73 237.653 308.793 247.019C309.856 256.385 311.516 276.982 311.656 278.848C311.796 280.714 310.724 283.372 308.206 281.647C305.688 279.921 291.038 263.615 283.727 271.021C276.416 278.428 283.727 304.007 284.482 306.825C285.238 309.642 284.678 310.836 283.335 311.489C281.992 312.142 277.6 306.246 273.255 301.787C268.909 297.328 263.081 292.916 259.22 297.533C255.359 302.151 254.128 321.359 272.387 352.572L281.806 366.5L298.591 365.567C334.475 361.378 349.06 348.831 350.421 342.954C351.783 337.077 344.761 335.1 338.578 334.307C332.395 333.514 325.01 333.588 324.758 332.105C324.506 330.622 325.14 329.456 327.835 328.374C330.53 327.292 355.354 317.711 356.856 307.412C358.357 297.113 336.555 295.285 333.626 294.268C330.698 293.251 332.228 290.835 333.766 289.837C335.305 288.839 352.762 277.71 360.894 272.952C369.025 268.195 372.97 262.85 370.844 257.308C368.783 251.963 359.131 253.689 354.72 252.961C350.309 252.234 352.249 246.972 352.249 246.972C352.249 246.972 359.998 235.685 371.049 212.979C382.099 190.273 371.189 186.458 371.189 186.458" fill="#F3F4F6"/>
<path opacity="0.1" d="M361.15 206.688C361.15 206.688 361.085 206.856 360.936 207.173L360.283 208.581L357.709 214.02C355.471 218.684 352.18 225.447 348.086 233.769C339.898 250.401 328.437 273.266 315.624 298.509C302.812 323.752 291.285 346.645 282.986 363.24L273.213 382.914L270.621 388.259L269.912 389.649C269.753 389.957 269.66 390.107 269.66 390.107C269.66 390.107 269.725 389.939 269.865 389.621L270.527 388.213L273.101 382.83C275.339 378.166 278.622 371.403 282.716 363.082C290.903 346.439 302.401 323.538 315.186 298.276C327.971 273.014 339.516 250.159 347.825 233.554C351.937 225.261 355.285 218.554 357.588 213.88C358.735 211.576 359.63 209.775 360.255 208.535L360.955 207.154C361.076 206.846 361.15 206.688 361.15 206.688Z" fill="#101010"/>
<path opacity="0.1" d="M321.039 242.187C321.227 242.548 321.371 242.93 321.468 243.325C321.71 244.062 322.028 245.19 322.401 246.487C323.165 249.174 324.116 252.905 325.096 257.038C326.075 261.17 326.905 264.818 327.567 267.644C327.874 268.913 328.126 269.986 328.331 270.853C328.451 271.24 328.532 271.636 328.574 272.038C328.385 271.677 328.238 271.295 328.136 270.9C327.893 270.163 327.576 269.081 327.203 267.738C326.466 265.042 325.562 261.301 324.583 257.159C323.604 253.017 322.718 249.398 322.037 246.58C321.729 245.312 321.468 244.239 321.254 243.381C321.146 242.99 321.074 242.59 321.039 242.187Z" fill="#101010"/>
<path opacity="0.1" d="M330.117 272.336C330.117 272.196 337.68 269.892 347.098 267.177C356.517 264.462 364.192 262.391 364.229 262.513C364.266 262.634 356.666 264.966 347.248 267.671C337.829 270.377 330.154 272.476 330.117 272.336Z" fill="#101010"/>
<path opacity="0.1" d="M308.734 310.226C309.144 310.161 309.56 310.142 309.975 310.17H313.341C316.185 310.17 320.111 310.17 324.438 310.002C328.765 309.834 332.691 309.564 335.517 309.34L338.874 309.079C339.285 309.028 339.702 309.028 340.114 309.079C339.718 309.194 339.312 309.272 338.902 309.312C338.109 309.433 336.971 309.582 335.554 309.741C332.756 310.068 328.802 310.403 324.457 310.562C320.111 310.721 316.185 310.683 313.332 310.562C311.914 310.506 310.767 310.45 309.965 310.385C309.551 310.376 309.138 310.322 308.734 310.226Z" fill="#101010"/>
<path opacity="0.1" d="M294.527 284.764C294.78 285.049 294.999 285.362 295.18 285.697C295.618 286.415 296.159 287.311 296.803 288.356C298.155 290.613 299.255 294.484 301.988 297.218C303.983 300.697 305.774 303.86 307.042 306.164C307.62 307.237 308.114 308.16 308.525 308.897C308.728 309.223 308.887 309.575 309 309.942C308.748 309.657 308.529 309.344 308.347 309.009C307.9 308.294 307.359 307.408 306.725 306.35C305.373 304.102 303.536 300.968 301.54 297.488C299.544 294.009 297.754 290.846 296.486 288.551L295.003 285.855C294.796 285.515 294.636 285.148 294.527 284.764Z" fill="#101010"/>
<path opacity="0.1" d="M271.406 315.816C271.721 316.192 271.999 316.598 272.236 317.028L274.325 320.424C276.078 323.307 278.456 327.308 281.067 331.74C283.678 336.171 286 340.201 287.67 343.12C288.453 344.529 289.115 345.695 289.618 346.609C289.874 347.024 290.093 347.462 290.271 347.915C289.958 347.541 289.68 347.138 289.441 346.712L287.352 343.307C285.599 340.434 283.221 336.432 280.62 332.001C278.018 327.57 275.677 323.54 274.008 320.611C273.225 319.211 272.572 318.036 272.059 317.131C271.804 316.712 271.586 316.272 271.406 315.816Z" fill="#101010"/>
<path opacity="0.1" d="M290.035 347.02C290.554 346.942 291.077 346.905 291.602 346.908L295.873 346.778C299.472 346.647 304.452 346.46 309.935 346.106C315.419 345.751 320.389 345.304 323.979 344.949L328.231 344.539C328.75 344.462 329.274 344.43 329.798 344.445C329.293 344.577 328.778 344.674 328.259 344.735C327.262 344.893 325.807 345.098 324.016 345.313C320.436 345.761 315.475 346.246 309.973 346.619C304.471 346.992 299.491 347.113 295.873 347.141C294.073 347.141 292.609 347.141 291.602 347.141C291.077 347.152 290.552 347.111 290.035 347.02Z" fill="#101010"/>
<path d="M11.304 340.032C12.9651 339.188 14.7796 338.689 16.6384 338.564C18.4973 338.439 20.3622 338.691 22.1213 339.305C25.6446 340.552 28.8348 342.591 31.4466 345.266C36.6128 350.266 39.8393 357.887 41.7044 364.856C33.8712 366.423 25.7675 361.926 21.8043 359.389C15.5284 355.378 6.62272 344.323 11.3133 340.051" fill="#00695C"/>
<path d="M55.3123 366.476C53.4525 365.55 51.8696 364.151 50.7235 362.418C49.5774 360.685 48.9086 358.68 48.7846 356.606C48.6933 354.526 49.0165 352.449 49.7353 350.495C50.4542 348.541 51.5543 346.75 52.9717 345.225C54.2586 343.798 55.9651 342.492 57.8768 342.585C58.7718 342.685 59.6242 343.021 60.3468 343.559C61.0694 344.096 61.6362 344.816 61.9892 345.645C62.669 347.32 62.8911 349.145 62.6326 350.934C62.0451 357.063 60.3573 362.884 55.3589 366.476" fill="#00695C"/>
<path d="M67.9636 385.969C67.5873 385.649 67.2437 385.293 66.9378 384.905L64.2335 381.911C62.014 379.355 58.7688 375.782 56.68 370.931C54.8299 366.822 54.1026 362.296 54.5725 357.815C54.7236 356.47 55.0367 355.148 55.505 353.878C55.6335 353.532 55.7798 353.193 55.9433 352.861C56.0459 352.638 56.1111 352.516 56.1298 352.526C55.5439 354.259 55.1346 356.046 54.9082 357.862C54.5586 362.278 55.335 366.71 57.1649 370.744C59.1978 375.502 62.3591 379.084 64.5132 381.696C65.6043 383.002 66.4995 384.056 67.087 384.803C67.4155 385.163 67.709 385.553 67.9636 385.969Z" fill="#1E293B"/>
<path d="M18.8438 347.851C19.0401 347.946 19.2273 348.058 19.4033 348.187L20.9233 349.222C22.2475 350.155 24.1405 351.47 26.4625 353.14C31.1251 356.489 37.4756 361.2 44.3763 366.564C51.277 371.928 57.4317 376.928 61.8239 380.604C64.0154 382.469 65.7779 383.943 66.9901 384.997L68.3703 386.219C68.6873 386.509 68.8459 386.658 68.8272 386.677C68.6419 386.569 68.467 386.444 68.305 386.303L66.8596 385.156L61.5908 380.893C57.0774 377.273 50.9413 372.339 44.022 367.012C37.1026 361.685 30.7988 356.9 26.2107 353.476L20.7741 349.427L19.3007 348.308C19.1312 348.174 18.9779 348.02 18.8438 347.851Z" fill="#1E293B"/>
<path d="M52.4128 377.392C48.5368 375.327 44.2249 374.214 39.8337 374.146C35.4425 374.078 31.0982 375.056 27.16 377C25.1737 378.008 23.0755 379.706 23.2527 381.926C23.4299 384.146 25.7892 385.499 27.9153 386.133C32.4129 387.365 37.1744 387.237 41.5991 385.764C46.0237 384.291 49.9131 381.54 52.7765 377.859" fill="#00695C"/>
<path d="M33.1328 380.368C33.5149 380.101 33.9244 379.875 34.3544 379.696C34.837 379.438 35.3353 379.21 35.8465 379.015C36.5094 378.728 37.1882 378.479 37.8794 378.269C38.708 377.986 39.5517 377.749 40.4065 377.56C41.3881 377.33 42.3811 377.153 43.3813 377.028C45.6805 376.77 48.0014 376.77 50.3006 377.028C52.5977 377.313 54.8539 377.864 57.0242 378.67C57.9797 379.026 58.9139 379.437 59.8218 379.901C60.6085 380.296 61.3742 380.732 62.1158 381.207C62.8152 381.608 63.3654 382.084 63.8876 382.448C64.3314 382.766 64.7549 383.112 65.1558 383.483C65.52 383.762 65.8572 384.074 66.1629 384.416C66.079 384.509 64.6336 383.138 61.9199 381.487C61.1807 381.036 60.418 380.625 59.6352 380.256C58.7438 379.813 57.8285 379.421 56.8936 379.08C54.7543 378.315 52.5369 377.79 50.282 377.513C48.0193 377.27 45.7372 377.27 43.4745 377.513C42.4877 377.624 41.5072 377.786 40.5371 377.998C39.6046 378.157 38.7839 378.418 38.0193 378.623C34.9419 379.537 33.1794 380.47 33.1328 380.368Z" fill="#1E293B"/>
<path d="M294.487 413.979C287.96 409.782 285.61 404.399 284.584 396.703C284.099 392.842 284.446 388.921 285.602 385.206C286.759 381.49 288.698 378.066 291.289 375.163C295.634 370.368 301.733 367.094 304.894 361.441C308.251 355.414 307.822 347.448 312.616 342.457C315.917 339.052 320.887 337.989 324.953 335.563C328.282 333.585 330.968 330.722 333.98 328.305C336.992 325.889 340.61 323.837 344.471 323.977C350.299 324.192 355.046 329.723 355.54 335.535C356.034 341.347 353.013 347.037 348.714 350.983C345.599 353.838 341.71 356.086 339.743 359.836C336.013 366.861 340.554 376.264 336.554 383.158C333.635 388.167 326.678 390.779 325.923 396.535C325.643 398.653 326.324 400.77 326.389 402.906C326.594 409.576 320.57 415.183 314.052 416.619C307.533 418.056 300.763 416.256 294.469 414.007" fill="#E2E8F0"/>
<path opacity="0.2" d="M332.794 347.894C332.606 348.176 332.391 348.438 332.151 348.678L330.183 350.795C329.316 351.728 328.253 352.82 327.106 354.182C325.959 355.543 324.541 356.98 323.18 358.79C321.818 360.6 320.214 362.437 318.704 364.602C317.948 365.684 317.1 366.747 316.335 367.932L313.957 371.551C310.527 376.986 307.51 382.671 304.93 388.557C302.42 394.474 300.378 400.578 298.822 406.813C298.16 409.705 297.517 412.411 297.144 415.06C296.771 417.709 296.397 420.088 296.146 422.318C295.894 424.547 295.81 426.571 295.661 428.353C295.512 430.135 295.502 431.665 295.484 432.924C295.465 434.184 295.437 435.07 295.418 435.816C295.426 436.154 295.398 436.492 295.334 436.824C295.271 436.492 295.246 436.154 295.26 435.816C295.26 435.07 295.213 434.109 295.176 432.915C295.139 431.721 295.111 430.116 295.176 428.335C295.241 426.553 295.269 424.5 295.54 422.262C295.81 420.023 295.978 417.597 296.472 414.948C296.966 412.299 297.405 409.556 298.085 406.646C299.622 400.356 301.665 394.201 304.193 388.24C306.792 382.313 309.851 376.599 313.342 371.15L315.757 367.531C316.54 366.355 317.398 365.283 318.172 364.21C319.72 362.055 321.315 360.17 322.751 358.435C324.187 356.7 325.548 355.217 326.77 353.883C327.992 352.549 329.055 351.458 329.959 350.581C330.864 349.704 331.498 349.079 332.039 348.566C332.267 348.317 332.52 348.092 332.794 347.894Z" fill="#101010"/>
<path d="M300.31 177.782H60.0625V460.746H300.31V177.782Z" fill="white"/>
<path d="M300.319 460.745C300.319 458.879 300.226 346.386 300.096 177.781L300.319 177.995H60.091L60.3335 177.753C60.3335 282.233 60.3335 379.54 60.3335 460.717L60.1283 460.512L300.385 460.717L60.1283 460.922H59.8672V460.717C59.8672 379.558 59.8672 282.224 59.8672 177.753V177.51H60.1376H300.366H300.58V177.734C300.403 346.386 300.319 458.87 300.319 460.745Z" fill="#1E293B"/>
<path d="M176.273 308.514C176.273 308.514 176.273 308.327 176.273 307.991C176.273 307.656 176.273 307.133 176.273 306.48C176.273 305.137 176.273 303.178 176.273 300.641C176.273 295.556 176.217 288.168 176.18 278.877L176.339 279.026L82.0695 279.119L82.3119 278.877C82.3119 289.138 82.3119 299.12 82.3119 308.514L82.0788 308.281L149.454 308.383L169.186 308.449H174.492H175.872H176.348H175.9H174.474H169.223L149.547 308.523L82.0042 308.626H81.7617V278.634H82.0042L176.273 278.718H176.432V278.877C176.432 288.206 176.367 295.668 176.348 300.734C176.348 303.253 176.348 305.202 176.348 306.536C176.348 307.18 176.348 307.674 176.348 308.019C176.348 308.365 176.273 308.514 176.273 308.514Z" fill="#1E293B"/>
<path d="M280.623 348.656C280.623 348.656 280.623 347.993 280.623 346.706C280.623 345.419 280.623 343.515 280.623 341.006C280.623 335.997 280.623 328.599 280.558 319.019L280.679 319.14L82.0508 319.261L82.2933 319.019V348.656L82.0508 348.422L223.366 348.525L265.33 348.59H276.679H279.625H280.642C280.642 348.59 280.316 348.59 279.663 348.59H276.744H265.451L223.487 348.665L82.0042 348.767H81.7617V318.776H82.0135L280.642 318.897H280.763V319.019C280.763 328.636 280.707 336.053 280.689 341.081C280.689 343.568 280.689 345.459 280.689 346.753C280.642 348.021 280.623 348.656 280.623 348.656Z" fill="#1E293B"/>
<path d="M280.623 388.524C280.623 388.524 280.623 387.852 280.623 386.574C280.623 385.296 280.623 383.375 280.623 380.874C280.623 375.856 280.623 368.467 280.558 358.887L280.679 358.999L82.0508 359.13L82.2933 358.887V388.524L82.0508 388.281L223.366 388.384L265.33 388.459H276.679H279.625H280.642H279.663H276.744H265.451L223.487 388.524L82.0042 388.636H81.7617V358.616H82.0135L280.642 358.747H280.763V358.868C280.763 368.477 280.707 375.893 280.689 380.921C280.689 383.409 280.689 385.299 280.689 386.593C280.642 387.89 280.623 388.524 280.623 388.524Z" fill="#1E293B"/>
<path d="M280.625 308.513C280.625 308.513 280.625 308.326 280.625 307.99C280.625 307.654 280.625 307.132 280.625 306.479C280.625 305.136 280.625 303.177 280.625 300.639C280.625 295.555 280.625 288.167 280.541 278.876L280.699 279.025L186.43 279.118L186.673 278.876V308.513L186.43 308.279L253.815 308.382L273.547 308.447H278.853H280.233H280.709H280.261H278.825H273.575L253.899 308.522L186.346 308.625H186.113V308.391C186.113 298.997 186.113 289.025 186.113 278.754V278.512H186.365L280.634 278.596H280.793V278.754C280.793 288.083 280.727 295.546 280.699 300.611C280.699 303.13 280.699 305.08 280.699 306.414C280.699 307.057 280.699 307.552 280.699 307.897C280.699 308.242 280.625 308.513 280.625 308.513Z" fill="#1E293B"/>
<path d="M101.746 297.985C101.508 298.017 101.268 298.032 101.028 298.032L98.9016 298.097C97.0366 298.153 94.3696 298.228 91.1617 298.265H90.8633L90.9565 297.985C91.2275 297.036 91.7419 296.174 92.4486 295.485C93.2456 294.768 94.2398 294.306 95.3021 294.16L95.2461 294.618C94.6489 294.356 94.1343 293.936 93.758 293.404C93.3816 292.871 93.1578 292.246 93.1107 291.595C93.0462 290.864 93.2029 290.131 93.5604 289.491C93.918 288.85 94.4598 288.332 95.1156 288.004C95.7414 287.717 96.4433 287.641 97.1159 287.787C97.7885 287.934 98.3955 288.294 98.8457 288.815C99.2457 289.275 99.5271 289.825 99.6653 290.419C99.8035 291.013 99.7942 291.631 99.6383 292.22C99.5104 292.732 99.2664 293.208 98.9252 293.611C98.584 294.014 98.1548 294.333 97.6707 294.543V294.216C98.5019 294.339 99.2918 294.659 99.974 295.149C100.475 295.525 100.899 295.994 101.224 296.53C101.516 296.975 101.71 297.478 101.792 298.004C101.792 298.004 101.718 297.864 101.615 297.64C101.458 297.29 101.274 296.953 101.065 296.632C100.677 296.056 100.166 295.571 99.5701 295.213C98.9739 294.855 98.3064 294.633 97.6148 294.562L96.99 294.487L97.5775 294.235C98.0032 294.036 98.3781 293.743 98.6737 293.378C98.9694 293.013 99.1781 292.585 99.284 292.127C99.416 291.605 99.4188 291.058 99.2921 290.535C99.1653 290.011 98.9129 289.527 98.5566 289.123C98.1622 288.688 97.6412 288.388 97.0672 288.266C96.4931 288.144 95.8952 288.206 95.358 288.442C94.7935 288.73 94.3282 289.181 94.0224 289.737C93.7165 290.292 93.5841 290.926 93.6422 291.558C93.6826 292.125 93.8778 292.67 94.2067 293.134C94.5356 293.598 94.9854 293.963 95.5073 294.188L96.2999 294.506L95.4513 294.646C94.4792 294.773 93.5687 295.192 92.8402 295.849C92.1815 296.476 91.6964 297.264 91.4321 298.134L91.227 297.864C94.3323 297.864 96.9433 297.864 98.8177 297.929H101C101.249 297.931 101.499 297.95 101.746 297.985Z" fill="#00695C"/>
<path d="M212.264 297.98C212.029 298.012 211.792 298.028 211.555 298.027L209.42 298.092C207.555 298.148 204.897 298.223 201.68 298.26H201.391L201.475 297.98C201.746 297.031 202.26 296.169 202.967 295.48C203.761 294.756 204.756 294.288 205.82 294.137L205.764 294.594C205.168 294.332 204.655 293.912 204.28 293.379C203.905 292.846 203.683 292.221 203.638 291.571C203.569 290.841 203.722 290.107 204.079 289.466C204.435 288.825 204.977 288.307 205.634 287.98C206.26 287.695 206.961 287.619 207.633 287.766C208.306 287.912 208.913 288.272 209.364 288.791C209.762 289.252 210.042 289.803 210.178 290.397C210.315 290.99 210.304 291.608 210.147 292.196C210.019 292.709 209.775 293.185 209.434 293.587C209.093 293.99 208.664 294.309 208.179 294.519V294.193C209.011 294.315 209.801 294.635 210.483 295.126C210.986 295.499 211.411 295.968 211.732 296.506C212.025 296.951 212.219 297.454 212.301 297.98C212.301 297.98 212.227 297.84 212.124 297.616C211.975 297.263 211.79 296.925 211.574 296.609C211.187 296.032 210.679 295.548 210.084 295.19C209.489 294.832 208.823 294.609 208.133 294.538L207.508 294.463L208.086 294.211C208.512 294.011 208.887 293.718 209.185 293.353C209.482 292.988 209.693 292.561 209.802 292.103C209.932 291.58 209.933 291.034 209.805 290.51C209.676 289.987 209.423 289.503 209.065 289.099C208.678 288.658 208.158 288.353 207.583 288.231C207.009 288.108 206.41 288.174 205.876 288.418C205.309 288.704 204.841 289.154 204.533 289.71C204.226 290.266 204.092 290.901 204.151 291.534C204.191 292.101 204.387 292.647 204.715 293.111C205.044 293.574 205.494 293.939 206.016 294.165L206.809 294.482L205.96 294.622C204.988 294.749 204.077 295.169 203.349 295.825C202.693 296.453 202.211 297.241 201.95 298.111L201.745 297.84C204.85 297.84 207.461 297.84 209.326 297.906H211.518C211.768 297.913 212.017 297.938 212.264 297.98Z" fill="#00695C"/>
<path d="M99.9685 371.135C99.924 370.936 99.8959 370.733 99.8846 370.529C99.8903 370.036 99.7751 369.549 99.5489 369.111C99.3711 368.797 99.1241 368.528 98.8268 368.325C98.5294 368.121 98.1896 367.988 97.833 367.936C97.4025 367.878 96.9645 367.944 96.57 368.125C96.1754 368.307 95.8406 368.597 95.6043 368.962C95.3987 369.274 95.2767 369.634 95.2499 370.006C95.2499 370.398 95.2499 370.771 95.2499 371.145L95.0261 370.911C96.6887 370.902 98.3507 370.977 100.006 371.135C98.3524 371.317 96.6893 371.395 95.0261 371.368H94.793V371.135C94.793 370.762 94.793 370.398 94.793 369.969C94.8184 369.517 94.9631 369.079 95.2126 368.7C95.4968 368.258 95.9043 367.908 96.3849 367.694C96.8654 367.48 97.398 367.412 97.9169 367.497C98.3349 367.565 98.7304 367.732 99.0697 367.986C99.409 368.239 99.6822 368.571 99.8659 368.952C100.106 369.461 100.181 370.032 100.08 370.585C100.043 370.986 99.9685 371.163 99.9685 371.135Z" fill="#00695C"/>
<path d="M98.3508 377.199C98.1757 376.847 98.0261 376.482 97.9031 376.108V376.005L98.0057 375.931C98.1542 375.814 98.2551 375.648 98.2894 375.462C98.3237 375.277 98.2892 375.085 98.1922 374.923C98.1435 374.822 98.0717 374.734 97.9826 374.665C97.8935 374.597 97.7896 374.55 97.6792 374.529C97.5688 374.508 97.455 374.513 97.347 374.544C97.239 374.575 97.1398 374.631 97.0573 374.708C96.9749 374.784 96.9115 374.879 96.8723 374.984C96.8331 375.089 96.8191 375.202 96.8315 375.314C96.844 375.426 96.8824 375.533 96.9438 375.627C97.0053 375.721 97.0879 375.8 97.1851 375.856L97.3343 375.94L97.2877 376.099L97.0079 377.209L96.8308 376.985C97.3501 377.009 97.8673 377.068 98.3787 377.162C97.8758 377.305 97.3533 377.368 96.8308 377.349H96.6069V377.106C96.6815 376.733 96.7468 376.36 96.8121 375.977L96.9147 376.22C96.7663 376.129 96.6398 376.007 96.5444 375.862C96.449 375.716 96.387 375.552 96.3629 375.379C96.3388 375.207 96.3532 375.032 96.4051 374.866C96.457 374.7 96.545 374.547 96.6629 374.42C96.7922 374.276 96.9558 374.167 97.1384 374.103C97.321 374.04 97.5167 374.023 97.7073 374.056C97.8825 374.084 98.049 374.152 98.1944 374.253C98.3397 374.355 98.4601 374.489 98.5466 374.643C98.6872 374.897 98.724 375.195 98.6492 375.475C98.5744 375.756 98.3939 375.996 98.1456 376.145L98.2202 375.968C98.3401 376.367 98.3844 376.784 98.3508 377.199Z" fill="#00695C"/>
<path d="M100.663 371.147C100.799 371.12 100.938 371.12 101.073 371.147C101.412 371.249 101.714 371.445 101.945 371.713C102.177 371.98 102.327 372.308 102.379 372.658C102.379 372.984 102.379 373.302 102.379 373.665C102.379 374.402 102.379 375.214 102.379 376.109C102.379 376.567 102.379 377.042 102.379 377.527C102.414 378.06 102.396 378.594 102.323 379.123C102.241 379.419 102.092 379.692 101.886 379.92C101.681 380.149 101.425 380.326 101.139 380.438C100.843 380.557 100.524 380.608 100.206 380.587H99.2736H95.5435H94.5551C94.2686 380.601 93.9823 380.554 93.7154 380.449C93.4484 380.344 93.2069 380.183 93.0067 379.978C92.8065 379.772 92.6523 379.527 92.5543 379.257C92.4563 378.987 92.4167 378.7 92.4382 378.414C92.4382 376.977 92.4382 375.615 92.4382 374.216V373.218C92.4094 372.861 92.4538 372.502 92.5688 372.163C92.6949 371.828 92.9084 371.533 93.1872 371.308C93.466 371.083 93.7998 370.937 94.1541 370.885L93.9676 371.1C93.9676 370.652 93.9676 370.251 93.9676 369.794C94.0107 369.356 94.1407 368.931 94.3499 368.544C94.7897 367.8 95.4969 367.253 96.3269 367.014C96.9523 366.788 97.6315 366.756 98.2755 366.922C98.9195 367.089 99.4982 367.446 99.9357 367.947C100.219 368.26 100.437 368.627 100.576 369.026C100.716 369.425 100.774 369.848 100.747 370.27C100.738 370.564 100.71 370.857 100.663 371.147C100.617 370.86 100.598 370.569 100.607 370.279C100.603 369.477 100.293 368.706 99.7399 368.124C99.4101 367.777 99.0025 367.513 98.5506 367.354C98.0988 367.195 97.6157 367.146 97.1411 367.211C96.6666 367.276 96.2142 367.452 95.8213 367.726C95.4285 368 95.1063 368.364 94.8815 368.787C94.7018 369.129 94.5909 369.503 94.5551 369.887C94.5551 370.27 94.5551 370.736 94.5551 371.165V371.352H94.3686C94.0949 371.395 93.8376 371.511 93.623 371.686C93.4084 371.861 93.2441 372.09 93.147 372.35C93.0562 372.652 93.0245 372.969 93.0537 373.283V374.281C93.0537 375.634 93.0537 377.08 93.0537 378.479C93.0276 378.779 93.0884 379.08 93.229 379.347C93.3696 379.613 93.5839 379.833 93.8463 379.981C94.1049 380.117 94.3938 380.184 94.6856 380.177H99.4228C99.9777 380.229 100.537 380.198 101.083 380.083C101.308 379.995 101.509 379.856 101.671 379.676C101.833 379.496 101.951 379.281 102.015 379.048C102.083 378.557 102.108 378.06 102.09 377.565C102.09 377.08 102.09 376.632 102.09 376.147C102.09 375.214 102.09 374.44 102.09 373.703C102.09 373.348 102.09 372.994 102.09 372.714C102.066 372.452 101.98 372.199 101.838 371.977C101.556 371.571 101.14 371.277 100.663 371.147Z" fill="#00695C"/>
<path d="M104.746 340.116C104.719 339.878 104.703 339.638 104.7 339.398C104.7 338.894 104.7 338.241 104.634 337.448C104.588 335.732 104.532 333.372 104.457 330.526L104.653 330.722L90.4414 330.909L90.6466 330.629V331.879C90.6466 332.299 90.6466 332.719 90.6466 333.138C90.6466 333.969 90.6466 334.79 90.6466 335.592C90.6466 337.187 90.6466 338.736 90.6466 340.191L90.4228 339.976C94.5632 339.976 98.0882 339.976 100.597 339.976H103.543C103.908 339.967 104.272 339.983 104.634 340.023C104.307 340.068 103.976 340.086 103.646 340.079L100.746 340.172C98.2467 340.237 94.6658 340.321 90.4228 340.377H90.2083V340.154C90.2083 338.689 90.2083 337.15 90.1523 335.545C90.1523 334.743 90.1523 333.922 90.1523 333.092C90.1523 332.681 90.1523 332.261 90.1523 331.842V330.582L90.3948 330.33L104.607 330.237H104.802V330.433C104.802 333.325 104.802 335.722 104.802 337.476C104.802 338.25 104.802 338.885 104.802 339.342C104.819 339.601 104.8 339.862 104.746 340.116Z" fill="#00695C"/>
<path d="M104.63 330.53C104.034 331.145 103.374 331.696 102.662 332.172C101.413 333.105 99.6689 334.439 97.7199 335.848H97.3935L97.3003 335.782L97.1138 335.652L96.7501 335.4L96.0414 334.905L94.7078 333.972L92.4605 332.349C91.7461 331.879 91.0779 331.341 90.4648 330.745C91.2361 331.115 91.9699 331.559 92.6563 332.069L94.9596 333.609L96.3118 334.542L97.0298 335.036L97.3935 335.288L97.5707 335.409L97.664 335.474H97.7106H97.4495C99.3985 334.066 101.18 332.806 102.485 331.911C103.157 331.387 103.875 330.925 104.63 330.53Z" fill="#00695C"/>
<path d="M90.8047 340.248C91.3906 339.108 92.1209 338.048 92.9775 337.095C93.7093 336.037 94.5708 335.074 95.5419 334.231C94.9557 335.376 94.2221 336.439 93.3598 337.393C92.6311 338.448 91.7727 339.407 90.8047 340.248Z" fill="#00695C"/>
<path d="M100.18 334.231C101.121 335.053 101.951 335.994 102.651 337.029C103.479 337.966 104.181 339.007 104.74 340.126C103.798 339.305 102.967 338.364 102.269 337.328C101.439 336.392 100.736 335.351 100.18 334.231Z" fill="#00695C"/>
<path d="M278.146 403.851H84.4883C83.1184 403.851 82.0078 404.962 82.0078 406.333V431.66C82.0078 433.03 83.1184 434.141 84.4883 434.141H278.146C279.516 434.141 280.627 433.03 280.627 431.66V406.333C280.627 404.962 279.516 403.851 278.146 403.851Z" fill="#00695C"/>
<g opacity="0.3">
<path opacity="0.3" d="M278.146 403.851H84.4883C83.1184 403.851 82.0078 404.962 82.0078 406.333V431.66C82.0078 433.03 83.1184 434.141 84.4883 434.141H278.146C279.516 434.141 280.627 433.03 280.627 431.66V406.333C280.627 404.962 279.516 403.851 278.146 403.851Z" fill="#101010"/>
</g>
<path d="M278.146 399.634H84.4883C83.1184 399.634 82.0078 400.745 82.0078 402.116V427.443C82.0078 428.813 83.1184 429.924 84.4883 429.924H278.146C279.516 429.924 280.627 428.813 280.627 427.443V402.116C280.627 400.745 279.516 399.634 278.146 399.634Z" fill="#00695C"/>
<path d="M164.543 415.433C164.538 414.995 164.622 414.561 164.79 414.158C164.958 413.754 165.207 413.389 165.521 413.085C165.836 412.781 166.209 412.544 166.618 412.39C167.027 412.235 167.464 412.166 167.9 412.186C168.35 412.169 168.799 412.248 169.215 412.418C169.632 412.589 170.007 412.847 170.316 413.175L169.728 413.744C169.391 413.387 168.954 413.139 168.475 413.033C167.996 412.927 167.495 412.967 167.039 413.148C166.582 413.33 166.191 413.644 165.915 414.05C165.639 414.457 165.492 414.937 165.492 415.428C165.492 415.919 165.639 416.399 165.915 416.806C166.191 417.212 166.582 417.527 167.039 417.708C167.495 417.89 167.996 417.93 168.475 417.823C168.954 417.717 169.391 417.469 169.728 417.112L170.316 417.681C170.007 418.012 169.63 418.272 169.212 418.444C168.794 418.616 168.343 418.697 167.891 418.679C167.455 418.698 167.02 418.628 166.612 418.473C166.204 418.318 165.831 418.081 165.518 417.777C165.205 417.473 164.957 417.109 164.789 416.706C164.621 416.302 164.538 415.869 164.543 415.433Z" fill="white"/>
<path d="M175.845 418.601L174.474 416.652H174.083H172.507V418.583H171.574V412.239H174.055C175.696 412.239 176.694 413.07 176.694 414.45C176.715 414.891 176.59 415.326 176.339 415.689C176.088 416.051 175.724 416.321 175.304 416.456L176.806 418.583L175.845 418.601ZM175.845 414.469C175.845 413.536 175.239 413.051 174.083 413.051H172.535V415.905H174.083C175.211 415.905 175.817 415.374 175.817 414.469H175.845Z" fill="white"/>
<path d="M182.794 417.814V418.598H178.188V412.254H182.664V413.047H179.092V414.997H182.281V415.762H179.092V417.814H182.794Z" fill="white"/>
<path d="M188.312 417.012H184.937L184.237 418.598H183.305L186.177 412.254H187.109L189.991 418.598H189.058L188.312 417.012ZM187.995 416.293L186.625 413.178L185.254 416.293H187.995Z" fill="white"/>
<path d="M191.829 413.047H189.656V412.254H194.906V413.047H192.724V418.598H191.792L191.829 413.047Z" fill="white"/>
<path d="M200.497 417.814V418.598H195.891V412.254H200.367V413.047H196.795V414.997H199.975V415.762H196.795V417.814H200.497Z" fill="white"/>
<path d="M152.841 225.722C178.461 200.093 178.461 158.54 152.841 132.912C127.222 107.283 85.684 107.283 60.0643 132.912C34.4446 158.54 34.4446 200.093 60.0643 225.722C85.684 251.351 127.222 251.351 152.841 225.722Z" fill="#E2E8F0"/>
<path d="M144.039 90.6134C142.891 92.0534 142.191 93.7983 142.026 95.6322C141.86 97.4661 142.236 99.3084 143.106 100.931C143.927 102.405 145.176 103.729 145.363 105.399C145.67 108.114 143.041 110.558 143.498 113.263C143.787 115.129 145.363 116.407 146.221 118.058C146.751 119.132 146.965 120.334 146.838 121.525C146.711 122.716 146.247 123.846 145.503 124.784C144.309 126.239 142.435 127.163 141.661 128.889C141.082 130.157 141.222 131.687 140.728 132.965C140.288 133.966 139.596 134.835 138.72 135.489C137.844 136.143 136.814 136.559 135.73 136.697C133.549 136.959 131.34 136.836 129.202 136.333L129.678 133.973C129.273 134.6 128.722 135.118 128.072 135.484C127.422 135.85 126.693 136.051 125.947 136.072C124.454 136.101 122.966 135.881 121.546 135.419C120.66 131.417 119.793 127.191 121.042 123.291C122.18 119.784 124.866 117.041 127.104 114.112C129.589 110.86 131.578 107.257 133.007 103.422C134.033 100.67 134.769 97.8244 136.205 95.2124C137.641 92.6004 139.935 90.3429 142.808 89.7925" fill="#1E293B"/>
<path d="M186.701 145.74L173.72 146.673L173.59 143.333C173.417 141.679 173.811 140.014 174.709 138.613C174.852 138.367 174.956 138.099 175.017 137.82C175.11 136.831 173.655 131.869 173.152 130.05C172.517 127.867 173.758 126.71 174.243 127.605C175.119 129.238 177.441 136.244 178.169 136.934C178.896 137.624 178.476 133.958 178.476 133.958C177.339 126.243 176.844 125.124 178.215 124.835C179.791 124.499 181.526 135.983 181.526 135.983C181.526 135.983 181.293 134.378 182.524 134.052C183.754 133.725 184.323 135.302 184.323 135.302C184.165 134.49 185.33 134.369 185.33 134.369C188.24 134.77 186.729 145.843 186.729 145.843L173.748 146.776L167.528 190.2L160.889 180.023L143.562 192.393L159.182 211.05C160.539 212.665 162.246 213.949 164.174 214.804C166.102 215.66 168.2 216.063 170.307 215.985C173.753 215.86 177.027 214.45 179.488 212.034C181.948 209.618 183.417 206.369 183.605 202.925L186.701 145.74Z" fill="#FFBE9D"/>
<path d="M176.548 145.858C176.492 145.793 177.182 145.186 178.105 144.048C178.641 143.382 179.128 142.678 179.56 141.94C179.819 141.505 180.055 141.056 180.269 140.597C180.531 140.168 180.685 139.681 180.716 139.179C180.713 139.062 180.676 138.949 180.61 138.853C180.543 138.757 180.451 138.683 180.343 138.638C180.088 138.595 179.826 138.638 179.597 138.759C179.088 138.999 178.603 139.29 178.152 139.627C177.422 140.179 176.792 140.85 176.287 141.614L176.138 141.828L176.026 141.604C175.759 141.123 175.412 140.691 175 140.326C175 140.326 175.709 140.494 176.315 141.502H176.054C176.531 140.668 177.165 139.933 177.919 139.337C178.39 138.972 178.9 138.659 179.439 138.405C179.771 138.229 180.154 138.176 180.521 138.255C180.718 138.325 180.89 138.45 181.018 138.616C181.145 138.781 181.222 138.98 181.239 139.188C181.222 139.788 181.048 140.374 180.735 140.886C180.508 141.35 180.256 141.802 179.98 142.239C179.519 142.988 178.992 143.693 178.404 144.347C177.872 144.948 177.245 145.459 176.548 145.858Z" fill="#EB996E"/>
<path d="M181.684 136.594C181.763 137.388 181.763 138.188 181.684 138.982C181.684 139.765 181.6 140.633 181.544 141.557C181.507 142.047 181.507 142.54 181.544 143.03C181.544 143.488 181.983 143.879 182.309 143.693C182.636 143.506 182.822 142.946 182.962 142.452C183.102 141.958 183.214 141.463 183.316 140.987C183.521 140.055 183.671 139.178 183.811 138.459C183.902 137.666 184.087 136.887 184.361 136.137C184.36 136.934 184.288 137.73 184.146 138.515C184.053 139.243 183.941 140.111 183.755 141.081C183.671 141.557 183.559 142.06 183.419 142.583C183.374 142.89 183.269 143.185 183.109 143.451C182.949 143.717 182.737 143.948 182.486 144.131C182.316 144.209 182.126 144.234 181.941 144.202C181.757 144.171 181.586 144.084 181.451 143.954C181.213 143.729 181.067 143.423 181.041 143.096C181.011 142.573 181.03 142.048 181.097 141.529C181.19 140.608 181.274 139.75 181.349 138.954C181.378 138.158 181.491 137.367 181.684 136.594Z" fill="#EB996E"/>
<path d="M183.904 139.906C183.978 139.906 183.792 140.447 183.848 141.287C183.864 141.75 184.003 142.2 184.249 142.593C184.407 142.751 184.519 142.761 184.668 142.593C184.836 142.339 184.98 142.071 185.097 141.791C185.689 140.319 186.154 138.799 186.487 137.248C186.632 138.887 186.309 140.534 185.554 141.996C185.42 142.322 185.255 142.635 185.06 142.929C184.991 143.017 184.904 143.089 184.804 143.139C184.704 143.189 184.594 143.216 184.482 143.218C184.375 143.214 184.271 143.187 184.176 143.138C184.081 143.09 183.998 143.022 183.932 142.938C183.745 142.69 183.626 142.397 183.587 142.089C183.538 141.843 183.516 141.593 183.521 141.343C183.493 140.373 183.82 139.878 183.904 139.906Z" fill="#EB996E"/>
<path d="M129.239 221.54L130.451 240.421C93.5325 254.573 66.1069 231.093 66.1069 231.093L71.6274 214.198L72.56 184.701L65.4727 192.565L62.125 189.767L45.2369 175.699L41.6094 172.667L59.1689 154.132C81.3723 130.222 98.6521 137.527 98.6521 137.527L124.614 139.961C124.614 139.961 142.574 142.508 151.265 158.255C158.343 171.072 166.046 184.645 166.046 184.645L143.796 200.504L136.718 187.5L129.239 221.54Z" fill="#475569"/>
<path d="M40.8516 179.066C40.8516 180.176 40.8516 181.277 40.9168 182.396C41.07 186.776 41.6636 191.13 42.6886 195.391V195.512C42.8192 196.044 42.9684 196.566 43.1176 197.089C43.6958 199.141 44.4604 200.951 45.1878 202.938C45.2811 203.19 45.3743 203.432 45.4769 203.684C47.8269 203.068 54.0655 197.154 61.6842 189.439L44.7775 175.334C42.6047 177.704 41.5789 178.786 40.8516 179.066Z" fill="#FFBE9D"/>
<path d="M122.255 142.414C123.188 135.977 124.241 129.224 124.241 129.224C124.241 129.224 132.718 128.99 135.926 118.412C138.985 108.318 140.589 84.2596 140.589 84.2596C135.033 81.0843 128.639 79.6845 122.265 80.2481C115.891 80.8117 109.842 83.3117 104.929 87.4127L98.4011 139.793C97.6457 145.866 102.271 151.36 108.789 152.125C115.364 152.89 121.425 148.543 122.255 142.414Z" fill="#FFBE9D"/>
<path d="M134.942 102.446C134.895 102.808 134.709 103.138 134.424 103.366C134.139 103.594 133.776 103.702 133.412 103.668C133.233 103.657 133.058 103.611 132.897 103.532C132.737 103.452 132.593 103.342 132.476 103.206C132.359 103.07 132.27 102.913 132.214 102.742C132.159 102.571 132.138 102.391 132.153 102.213C132.202 101.852 132.389 101.524 132.674 101.298C132.959 101.072 133.321 100.965 133.683 101C133.861 101.011 134.035 101.057 134.195 101.135C134.355 101.214 134.498 101.324 134.615 101.459C134.733 101.593 134.822 101.75 134.878 101.919C134.934 102.089 134.956 102.268 134.942 102.446Z" fill="#1E293B"/>
<path d="M137.399 101.204C137.203 101.362 136.261 100.439 134.769 100.271C133.277 100.103 132.074 100.672 131.972 100.467C131.869 100.261 132.121 100.066 132.643 99.7857C133.352 99.4291 134.152 99.2988 134.937 99.4125C135.715 99.519 136.44 99.8683 137.007 100.411C137.39 100.784 137.492 101.148 137.399 101.204Z" fill="#1E293B"/>
<path d="M119.621 100.602C119.575 100.964 119.389 101.293 119.103 101.52C118.817 101.746 118.455 101.852 118.092 101.815C117.913 101.806 117.738 101.761 117.578 101.682C117.417 101.604 117.274 101.494 117.156 101.359C117.039 101.224 116.949 101.067 116.894 100.897C116.838 100.727 116.818 100.547 116.833 100.369C116.88 100.007 117.065 99.6769 117.351 99.4489C117.636 99.2209 117.999 99.1127 118.362 99.1472C118.541 99.159 118.715 99.2061 118.876 99.2858C119.036 99.3656 119.179 99.4764 119.296 99.6117C119.413 99.7471 119.502 99.9044 119.558 100.074C119.614 100.244 119.635 100.424 119.621 100.602Z" fill="#1E293B"/>
<path d="M121.751 99.5989C121.555 99.7575 120.613 98.834 119.121 98.6661C117.629 98.4981 116.426 99.0579 116.323 98.8526C116.221 98.6474 116.473 98.4608 116.995 98.181C117.703 97.825 118.504 97.6948 119.289 97.8078C120.069 97.9073 120.795 98.2576 121.359 98.806C121.732 99.1791 121.844 99.5336 121.751 99.5989Z" fill="#1E293B"/>
<path d="M126.09 111.174C126.863 111.084 127.65 111.061 128.432 111.107C128.791 111.107 129.142 111.107 129.239 110.937C129.314 110.683 129.281 110.419 129.142 110.178C128.923 109.57 128.695 108.878 128.458 108.185C127.52 105.355 126.897 103.041 127.063 103.011C127.23 102.98 128.125 105.264 129.055 108.094C129.283 108.793 129.493 109.455 129.695 110.092C129.862 110.412 129.862 110.763 129.695 111.082C129.626 111.165 129.531 111.235 129.417 111.289C129.303 111.343 129.173 111.378 129.037 111.392C128.83 111.411 128.621 111.411 128.414 111.392C127.629 111.386 126.849 111.312 126.09 111.174Z" fill="#1E293B"/>
<path d="M124.222 129.226C119.107 128.61 114.263 126.581 110.234 123.368C110.234 123.368 112.724 131.278 123.681 131.763L124.222 129.226Z" fill="#EB996E"/>
<path d="M129.376 80.9212C130.076 82.6283 128.975 84.6526 127.418 85.5855C125.775 86.4373 123.976 86.9451 122.131 87.0781C120.283 87.2233 118.515 87.8968 117.039 89.0184C114.503 91.3226 115.174 94.6156 112.609 97.6101C112.013 98.4515 111.193 99.109 110.242 99.508C109.291 99.907 108.247 100.032 107.229 99.8676C105.177 99.5784 102.52 100.054 101.484 102.424C100.449 104.793 101.699 106.538 102.846 108.711C103.993 110.885 103.685 113.114 103.032 115.493C102.566 117.209 101.093 118.553 100.766 120.307C100.244 123.105 102.631 126.221 101.018 128.516C99.4049 130.811 95.3111 129.794 93.5113 131.93C92.8586 132.686 92.4855 133.796 91.525 134.094C90.9278 134.178 90.3194 134.067 89.7905 133.777L81.3978 130.223C81.6123 129.355 81.8361 128.478 82.0599 127.611C81.4396 128.247 80.6767 128.727 79.8343 129.01C78.9919 129.293 78.0943 129.371 77.2157 129.238C76.3371 129.105 75.5029 128.764 74.782 128.244C74.0611 127.725 73.4744 127.041 73.0703 126.249C74.8288 125.227 76.457 123.996 77.9195 122.583C79.3632 121.144 80.2405 119.233 80.3907 117.2C80.4746 114.737 79.1411 112.247 79.8871 109.905C80.9595 106.556 85.4823 105.717 87.4779 102.843C89.3429 100.157 88.7181 96.2574 90.6485 93.5988C92.8959 90.5203 97.6424 90.3804 100.216 87.5632C101.96 85.6974 102.361 82.8989 103.629 80.632C105.272 77.9673 107.838 76.0013 110.838 75.1095C113.818 74.2396 116.923 73.877 120.023 74.0367C122.35 73.9271 124.669 74.3916 126.775 75.3893C128.798 76.5181 130.327 78.8316 129.852 81.1078" fill="#1E293B"/>
<path d="M107.229 99.892C106.107 99.4836 104.892 99.3964 103.723 99.6401C103.139 99.7605 102.584 99.9957 102.091 100.332C101.598 100.668 101.176 101.099 100.851 101.599C100.254 102.645 100.074 103.878 100.347 105.051C100.627 106.214 101.162 107.301 101.914 108.232C102.395 108.93 103.034 109.505 103.779 109.911C104.157 110.115 104.58 110.222 105.01 110.222C105.44 110.222 105.863 110.115 106.241 109.911" fill="#FFBE9D"/>
<path d="M105.628 106.817C105.759 106.883 105.152 107.517 104.136 107.078C103.606 106.818 103.195 106.364 102.989 105.81C102.754 105.168 102.65 104.486 102.681 103.804C102.694 103.078 102.965 102.38 103.446 101.836C103.649 101.604 103.903 101.423 104.187 101.305C104.472 101.186 104.78 101.135 105.087 101.155C106.178 101.276 106.411 102.088 106.29 102.088C106.169 102.088 105.824 101.724 105.087 101.789C104.631 101.899 104.228 102.167 103.951 102.547C103.674 102.926 103.541 103.392 103.576 103.86C103.576 105.073 103.847 106.22 104.444 106.584C105.041 106.948 105.572 106.743 105.628 106.817Z" fill="#EB996E"/>
<path d="M129.413 81.5505C128.988 82.7171 128.979 83.9947 129.387 85.1674C129.795 86.3401 130.594 87.3361 131.651 87.9872C132.864 88.6869 134.356 88.9201 135.381 89.8529C136.336 90.8896 136.891 92.232 136.948 93.6403C136.996 95.0338 137.257 96.4117 137.722 97.7263C137.977 98.3748 138.434 98.9242 139.025 99.2937C139.616 99.6631 140.31 99.8331 141.004 99.7786L143.345 92.8661C144.203 90.3287 145.07 87.6141 144.455 84.9927C143.578 81.2613 139.885 78.8172 136.193 77.8004C134.501 77.1992 132.651 77.2157 130.971 77.847C129.367 78.6026 128.276 80.6456 129.105 82.2315" fill="#1E293B"/>
<path d="M122.355 95.8823C122.262 95.9943 121.936 95.8823 121.423 95.7238C120.735 95.5649 120.031 95.4836 119.325 95.4812C118.616 95.4734 117.909 95.5485 117.217 95.7051C116.686 95.8264 116.359 95.9663 116.285 95.8637C116.21 95.7611 116.406 95.3973 116.975 95.0708C117.708 94.6965 118.52 94.5013 119.343 94.5013C120.167 94.5013 120.979 94.6965 121.712 95.0708C122.197 95.4252 122.402 95.7984 122.355 95.8823Z" fill="#1E293B"/>
<path d="M135.932 97.7234C135.885 97.9846 134.916 98.0685 133.75 97.9006C132.584 97.7327 131.68 97.4155 131.68 97.1077C131.68 96.7998 132.696 96.7718 133.862 96.9398C135.027 97.1077 135.969 97.4622 135.932 97.7234Z" fill="#1E293B"/>
<path d="M103.299 109.615C103.299 109.615 103.392 109.68 103.532 109.848C103.733 110.093 103.902 110.363 104.036 110.65C104.518 111.72 104.661 112.911 104.446 114.065C104.143 115.743 103.58 117.364 102.777 118.869C102.331 119.73 102.187 120.715 102.366 121.668C102.695 122.668 103.146 123.623 103.709 124.513C104.273 125.447 104.52 126.539 104.412 127.625C104.305 128.711 103.849 129.734 103.112 130.539C102.484 131.257 101.651 131.765 100.725 131.994C99.9425 132.157 99.1462 132.244 98.3471 132.256C97.2251 132.225 96.1171 132.509 95.1485 133.076C94.8163 133.319 94.5237 133.612 94.2812 133.944C94.2812 133.944 94.2813 133.823 94.4025 133.636C94.5646 133.36 94.7802 133.119 95.0366 132.927C95.9962 132.274 97.1306 131.926 98.2911 131.929C99.0665 131.895 99.8374 131.792 100.594 131.621C101.444 131.397 102.206 130.919 102.777 130.25C103.402 129.521 103.804 128.627 103.933 127.675C104.035 126.648 103.806 125.615 103.28 124.727C102.704 123.797 102.25 122.797 101.928 121.752C101.743 120.714 101.907 119.645 102.394 118.71C102.795 117.778 103.234 117.041 103.504 116.248C103.782 115.522 103.994 114.772 104.138 114.009C104.37 112.913 104.282 111.773 103.886 110.725C103.56 109.988 103.261 109.643 103.299 109.615Z" fill="#1E293B"/>
<path d="M146.605 134.726C146.418 134.812 146.213 134.85 146.008 134.838C145.711 134.82 145.421 134.742 145.155 134.609C144.889 134.476 144.653 134.29 144.46 134.064C144.14 133.715 143.904 133.297 143.772 132.842C143.639 132.388 143.613 131.909 143.696 131.442C143.987 130.238 144.614 129.141 145.505 128.28C146.57 127.309 147.51 126.209 148.302 125.005C148.682 124.322 148.866 123.548 148.834 122.767C148.779 121.934 148.584 121.117 148.256 120.351C147.418 118.691 146.671 116.988 146.018 115.248C145.728 114.261 145.728 113.212 146.018 112.225C146.386 111.272 146.852 110.359 147.407 109.501C147.938 108.699 148.151 107.728 148.004 106.777C147.752 105.873 147.255 105.056 146.568 104.417C145.924 103.727 145.216 103.083 144.619 102.346C144.018 101.623 143.585 100.776 143.351 99.8649C142.987 98.1899 143.012 96.4537 143.425 94.7901C143.752 93.2416 144.199 91.8423 144.479 90.5456C145.067 88.5047 144.962 86.3264 144.181 84.3514C143.855 83.6594 143.414 83.0283 142.875 82.4857C142.875 82.4857 142.875 82.4857 143.006 82.5697C143.126 82.6553 143.239 82.7521 143.341 82.8589C143.766 83.2897 144.108 83.7958 144.348 84.3514C144.749 85.1859 144.993 86.0872 145.066 87.0101C145.15 88.2269 145.056 89.4494 144.787 90.6389C144.516 91.9543 144.097 93.3629 143.789 94.8928C143.42 96.4981 143.42 98.1663 143.789 99.7716C143.998 100.618 144.396 101.406 144.955 102.076C145.523 102.775 146.223 103.4 146.894 104.109C147.641 104.799 148.186 105.68 148.47 106.656C148.633 107.717 148.404 108.802 147.827 109.707C147.279 110.535 146.817 111.416 146.447 112.337C146.178 113.251 146.178 114.222 146.447 115.136C147.085 116.858 147.814 118.546 148.629 120.192C148.973 121.009 149.172 121.881 149.216 122.767C149.245 123.621 149.038 124.466 148.619 125.211C147.796 126.433 146.822 127.545 145.719 128.522C144.855 129.326 144.234 130.358 143.929 131.498C143.837 131.928 143.847 132.372 143.959 132.797C144.071 133.222 144.281 133.614 144.572 133.942C144.919 134.385 145.424 134.676 145.98 134.754C146.4 134.726 146.605 134.67 146.605 134.726Z" fill="#1E293B"/>
<path d="M183.199 147.303C182.592 146.515 181.914 145.785 181.175 145.12C180.341 144.582 179.465 144.114 178.555 143.721C179.084 143.688 179.615 143.762 180.116 143.936C180.617 144.111 181.078 144.383 181.473 144.737C181.92 145.026 182.303 145.402 182.6 145.843C182.896 146.284 183.1 146.78 183.199 147.303Z" fill="#EB996E"/>
<path d="M169.286 198.426C168.616 197.098 168.16 195.671 167.934 194.2C167.558 192.755 167.423 191.258 167.533 189.769C167.905 191.195 168.198 192.64 168.41 194.098C168.788 195.522 169.081 196.967 169.286 198.426Z" fill="#EB996E"/>
<path d="M109.825 187.963C111.461 187.418 112.901 186.405 113.968 185.051C115.035 183.697 115.683 182.059 115.831 180.341C116.334 175.481 113.033 171.162 108.566 170.686C104.1 170.211 99.9871 173.783 99.4836 178.644C99.2763 180.371 99.5834 182.121 100.366 183.674C101.149 185.228 102.374 186.515 103.885 187.375C96.8911 187.739 93.506 192.039 91.8555 195.883C94.4415 199.525 98.2515 202.114 102.589 203.178L107.625 203.7C112.149 203.545 116.461 201.74 119.747 198.625C118.917 194.53 116.484 189.67 109.825 187.963Z" fill="white"/>
<g opacity="0.3">
<path opacity="0.3" d="M72.631 184.7L76.7715 180.428C76.7715 180.428 74.981 211.305 73.7594 215.018C72.5378 218.731 66.1406 231.091 66.1406 231.091L71.6612 214.197L72.631 184.7Z" fill="#101010"/>
</g>
<path d="M81.8009 175.196C81.8942 175.289 78.2573 179.235 73.6693 184.011C69.0813 188.787 65.2766 192.593 65.174 192.5C65.0714 192.407 68.7269 188.461 73.3149 183.675C77.903 178.89 81.7077 175.102 81.8009 175.196Z" fill="#1E293B"/>
<path d="M139.681 172.781C139.698 173.093 139.682 173.406 139.634 173.714C139.578 174.33 139.476 175.225 139.327 176.336C139.028 178.537 138.525 181.578 137.835 184.899C137.145 188.22 136.389 191.215 135.783 193.36C135.475 194.433 135.214 195.291 135.018 195.888C134.945 196.215 134.826 196.529 134.664 196.821C134.688 196.505 134.744 196.193 134.832 195.888C135.009 195.179 135.205 194.33 135.447 193.332C135.97 191.168 136.669 188.183 137.359 184.862C138.049 181.541 138.599 178.528 138.991 176.336C139.168 175.328 139.317 174.47 139.448 173.742C139.48 173.413 139.559 173.089 139.681 172.781Z" fill="#1E293B"/>
<path d="M121.107 111.85C121.349 111.85 121.107 113.492 122.357 114.826C123.606 116.16 125.341 116.234 125.322 116.458C125.303 116.682 124.893 116.72 124.156 116.636C123.205 116.521 122.325 116.071 121.676 115.367C121.055 114.692 120.721 113.802 120.743 112.885C120.762 112.195 120.995 111.822 121.107 111.85Z" fill="#1E293B"/>
<path d="M100.415 87.6834C101.482 86.3629 102.169 84.7759 102.401 83.0937C102.407 81.8902 101.975 80.7257 101.186 79.8175C100.397 78.9094 99.3036 78.3198 98.1114 78.1589C96.9071 78.0742 95.7107 78.4088 94.7249 79.1059C93.7391 79.803 93.0247 80.8197 92.7027 81.9836C92.4492 83.165 92.5848 84.3967 93.089 85.4947C93.5933 86.5927 94.4392 87.4979 95.5003 88.0752C96.5839 88.608 97.8045 88.7962 98.9982 88.6144C100.192 88.4326 101.301 87.8896 102.177 87.0584" fill="#1E293B"/>
<path d="M102.549 82.84C102.676 84.0576 102.343 85.2787 101.617 86.2636C101.018 87.3334 100.04 88.1391 98.875 88.5211C99.7361 87.76 100.517 86.9129 101.206 85.993C101.761 84.9908 102.211 83.9342 102.549 82.84Z" fill="#475569"/>
<path d="M132.552 258.711C145.628 258.711 156.229 248.107 156.229 235.026C156.229 221.944 145.628 211.34 132.552 211.34C119.475 211.34 108.875 221.944 108.875 235.026C108.875 248.107 119.475 258.711 132.552 258.711Z" fill="#00695C"/>
<g opacity="0.3">
<path opacity="0.3" d="M132.552 258.711C145.628 258.711 156.229 248.107 156.229 235.026C156.229 221.944 145.628 211.34 132.552 211.34C119.475 211.34 108.875 221.944 108.875 235.026C108.875 248.107 119.475 258.711 132.552 258.711Z" fill="#101010"/>
</g>
<path d="M132.552 254.317C145.628 254.317 156.229 243.712 156.229 230.631C156.229 217.55 145.628 206.946 132.552 206.946C119.475 206.946 108.875 217.55 108.875 230.631C108.875 243.712 119.475 254.317 132.552 254.317Z" fill="#00695C"/>
<path d="M132.554 244.641C131.882 244.641 131.332 238.363 131.332 230.648C131.332 222.933 131.882 216.655 132.554 216.655C133.225 216.655 133.766 222.933 133.766 230.648C133.766 238.363 133.216 244.641 132.554 244.641Z" fill="white"/>
<path d="M146.597 230.632C146.597 231.304 140.33 231.845 132.609 231.845C124.888 231.845 118.621 231.304 118.621 230.632C118.621 229.96 124.888 229.419 132.609 229.419C140.33 229.419 146.597 229.96 146.597 230.632Z" fill="white"/>
</svg>
