<svg width="60" height="36" viewBox="0 0 60 36" fill="none" xmlns="http://www.w3.org/2000/svg">
<path d="M42.1522 29.3338H8.5V20.5123C8.5 19.2373 8.86144 17.9858 9.54662 16.8887L10.8499 14.2227H39.8022L41.1055 16.8887C41.7906 17.9858 42.1522 19.2373 42.1522 20.5123V29.3338Z" stroke="#00695C" stroke-width="2" stroke-miterlimit="10"/>
<path d="M10.3691 14.222L12.5541 5.15029C12.9205 3.80593 14.0193 2.88867 15.2635 2.88867H35.3878C36.632 2.88867 37.7307 3.80582 38.0973 5.15029L40.2822 14.222" stroke="#00695C" stroke-width="2" stroke-miterlimit="10"/>
<path d="M14.1087 29.333H8.5V34.9997H14.1087V29.333Z" stroke="#00695C" stroke-width="2" stroke-miterlimit="10"/>
<path d="M42.1517 29.333H36.543V34.9997H42.1517V29.333Z" stroke="#00695C" stroke-width="2" stroke-miterlimit="10"/>
<path d="M12.2383 18H19.7165" stroke="#00695C" stroke-width="2" stroke-miterlimit="10"/>
<path d="M30.9355 18H36.5442" stroke="#00695C" stroke-width="2" stroke-miterlimit="10"/>
<path d="M30.9342 23.667H19.7168" stroke="#00695C" stroke-width="2" stroke-miterlimit="10"/>
<path d="M42.1523 25.5555H43.4074C45.8119 25.5555 47.761 23.2798 47.761 20.4726V10.4443" stroke="#00695C" stroke-width="2" stroke-miterlimit="10"/>
<path d="M48.695 10.444C47.1462 10.444 45.8906 9.1134 45.8906 7.47204V4.77734H51.4993V7.47204C51.4993 9.1134 50.2438 10.444 48.695 10.444Z" stroke="#00695C" stroke-width="2" stroke-miterlimit="10"/>
<path d="M45.8906 4.77778V1" stroke="#00695C" stroke-width="2" stroke-miterlimit="10"/>
<path d="M51.5 4.77778V1" stroke="#00695C" stroke-width="2" stroke-miterlimit="10"/>
</svg>
