<svg width="20" height="20" viewBox="0 0 20 20" fill="none" xmlns="http://www.w3.org/2000/svg">
<path d="M12.5 2.5C12.4999 2.08564 12.3352 1.6883 12.0422 1.39531C11.7492 1.10232 11.3519 0.937649 10.9375 0.9375H3.4375C3.02314 0.937649 2.6258 1.10232 2.33281 1.39531C2.03982 1.6883 1.87515 2.08564 1.875 2.5V16.875H12.5V2.5ZM6.5625 15.625L7.0625 13.125H5L7.8125 9.375L7.3125 11.875H9.375L6.5625 15.625ZM10.625 7.8125H3.75V2.8125H10.625V7.8125ZM13.4375 18.125V19.0625H0.9375V18.125C0.9375 17.9592 1.00335 17.8003 1.12056 17.6831C1.23777 17.5658 1.39674 17.5 1.5625 17.5H12.8125C12.9783 17.5 13.1372 17.5658 13.2544 17.6831C13.3717 17.8003 13.4375 17.9592 13.4375 18.125ZM19.0625 3.125V5C19.0625 5.4144 18.8979 5.81183 18.6049 6.10485C18.3118 6.39788 17.9144 6.5625 17.5 6.5625H16.875C16.4606 6.5625 16.0632 6.39788 15.7701 6.10485C15.4771 5.81183 15.3125 5.4144 15.3125 5V3.125H19.0625ZM16.25 2.5H15.625V0.9375C15.625 0.85462 15.6579 0.775134 15.7165 0.716529C15.7751 0.657924 15.8546 0.625 15.9375 0.625C16.0204 0.625 16.0999 0.657924 16.1585 0.716529C16.2171 0.775134 16.25 0.85462 16.25 0.9375V2.5ZM18.75 2.5H18.125V0.9375C18.125 0.85462 18.1579 0.775134 18.2165 0.716529C18.2751 0.657924 18.3546 0.625 18.4375 0.625C18.5204 0.625 18.5999 0.657924 18.6585 0.716529C18.7171 0.775134 18.75 0.85462 18.75 0.9375V2.5ZM16.875 7.1875H17.5V14.6875C17.5 15.1019 17.3354 15.4993 17.0424 15.7924C16.7493 16.0854 16.3519 16.25 15.9375 16.25C15.5231 16.25 15.1257 16.0854 14.8326 15.7924C14.5396 15.4993 14.375 15.1019 14.375 14.6875V10.3125C14.3743 10.0641 14.2753 9.82605 14.0996 9.65039C13.924 9.47473 13.6859 9.37573 13.4375 9.375H13.125V8.75H13.4375C13.8519 8.75015 14.2492 8.91482 14.5422 9.20781C14.8352 9.5008 14.9999 9.89814 15 10.3125V14.6875C15 14.9361 15.0988 15.1746 15.2746 15.3504C15.4504 15.5262 15.6889 15.625 15.9375 15.625C16.1861 15.625 16.4246 15.5262 16.6004 15.3504C16.7762 15.1746 16.875 14.9361 16.875 14.6875V7.1875Z" fill="#64748B"/>
</svg>
