<svg width="89" height="50" viewBox="0 0 89 50" fill="none" xmlns="http://www.w3.org/2000/svg">
<g opacity="0.4">
<path d="M60.1377 7.28125L57.2686 42.72H52.0615C52.0615 42.72 51.9962 39.2881 50.4033 36.6903C50.1425 36.2574 49.807 35.9089 49.3972 35.6766C48.2421 35.0009 46.3697 34.7843 45.0004 34.7843C43.6311 34.7843 41.7587 35.0008 40.6037 35.6766C40.1939 35.9089 39.8584 36.2575 39.5975 36.6903C38.0046 39.2881 37.9394 42.72 37.9394 42.72H32.7324L29.8633 7.28125H33.664C35.3406 17.0068 36.6355 22.1494 38.8897 26.3733C39.3741 27.2815 40.1847 27.9151 41.1068 28.0841C42.3642 28.3058 43.5767 28.3402 45.0005 28.3402C46.4242 28.3402 47.6368 28.3058 48.8942 28.0841C49.8165 27.9151 50.6269 27.2815 51.1113 26.3733C53.3656 22.1494 54.6603 17.0068 56.3371 7.28125C56.3371 7.28125 60.1377 7.28125 60.1377 7.28125Z" fill="#00695C"/>
<path d="M42.7173 34.7773C41.348 34.7773 39.4756 34.9938 38.3205 35.6697C37.9108 35.902 37.5753 36.2505 37.3144 36.6834C35.7215 39.2811 35.6562 42.713 35.6562 42.713H37.9396C37.9396 42.713 38.0049 39.2811 39.5978 36.6834C39.8586 36.2504 40.1941 35.902 40.6039 35.6697C41.4604 35.1686 42.7112 34.9203 43.859 34.8253C43.459 34.7922 43.0712 34.7773 42.7173 34.7773Z" fill="#00695C"/>
<path d="M38.8218 28.0841C40.0792 28.3058 41.2917 28.3402 42.7155 28.3402C43.1109 28.3402 43.4889 28.3369 43.8572 28.3283C42.8994 28.306 42.0134 28.2442 41.1052 28.0841C40.183 27.9151 39.3725 27.2815 38.8881 26.3733C36.6339 22.1494 35.3391 17.0068 33.6624 7.28125H31.3789C33.0555 17.0068 34.3504 22.1494 36.6046 26.3733C37.089 27.2815 37.8996 27.9151 38.8218 28.0841Z" fill="#00695C"/>
<path d="M57.8535 7.28125L54.9844 42.72H57.2677L60.1369 7.28125H57.8535Z" fill="#00695C"/>
<path d="M56.5456 3.8125H33.6413C21.0247 3.8125 20.851 7.76322 21.0315 12.5701L22.0001 38.3343C22.1642 42.6972 25.4666 46.1875 29.378 46.1875H60.6219C64.5332 46.1875 67.8357 42.6972 67.9998 38.3343L68.9684 12.5701C69.1488 7.76322 68.9751 3.8125 56.5456 3.8125ZM65.2452 12.4025L64.2766 38.1667C64.1956 40.3405 62.5554 42.1097 60.6219 42.1097H29.378C27.4445 42.1097 25.8043 40.3404 25.7233 38.1667L24.7546 12.4025C24.7054 11.0994 25.0981 9.90325 25.8583 9.0355C26.3165 8.5135 27.1086 7.89128 28.2818 7.89128H61.7179C62.8911 7.89128 63.6831 8.5135 64.1414 9.0355C64.9017 9.90325 65.2944 11.0994 65.2452 12.4025Z" fill="#00695C"/>
<path d="M28.2808 7.89062H26.0939C24.9207 7.89062 24.1286 8.51284 23.6703 9.03484C22.9101 9.90259 22.5174 11.0987 22.5666 12.4019L23.5352 38.1661C23.6162 40.3398 25.2564 42.109 27.1899 42.109H29.3768C27.4433 42.109 25.8032 40.3398 25.7222 38.1661L24.7534 12.4019C24.7042 11.0987 25.0969 9.90259 25.8572 9.03484C26.3155 8.51284 27.1076 7.89062 28.2808 7.89062Z" fill="#00695C"/>
<path d="M56.5463 3.8125H54.3594C66.7888 3.8125 66.9626 7.76322 66.7821 12.5701L65.8135 38.3343C65.6495 42.6972 62.347 46.1875 58.4357 46.1875H60.6226C64.5339 46.1875 67.8364 42.6972 68.0005 38.3343L68.9691 12.5701C69.1495 7.76322 68.9758 3.8125 56.5463 3.8125Z" fill="#00695C"/>
</g>
</svg>
