<svg width="89" height="50" viewBox="0 0 89 50" fill="none" xmlns="http://www.w3.org/2000/svg">
<g opacity="0.4">
<path d="M45 12.1562C31.7454 12.1562 21 17.907 21 25.0005C21 32.094 31.7454 37.8438 45 37.8438C58.2546 37.8438 69 32.0941 69 25.0005C69 17.9069 58.2546 12.1562 45 12.1562ZM60.6024 31.5306C57.341 33.2768 53.188 34.4007 48.6517 34.7933C47.9418 34.855 47.2222 34.8985 46.496 34.9226C46.0005 34.941 45.5021 34.9496 45 34.9496C40.1652 34.9496 35.596 34.146 31.842 32.6584C31.2538 32.4259 30.6849 32.1761 30.1393 31.9098C29.8872 31.7864 29.64 31.66 29.3976 31.5307C25.9024 29.6601 23.8973 27.2802 23.8973 25.0006C23.8973 22.7209 25.9024 20.34 29.3976 18.4695C32.5103 16.8044 36.4343 15.7037 40.7292 15.2657C41.4285 15.1933 42.1373 15.1402 42.854 15.1045C43.5619 15.0688 44.2785 15.0505 45 15.0505C49.7082 15.0505 54.1644 15.8136 57.8615 17.226C58.4322 17.444 58.9837 17.6775 59.5159 17.9264C59.8877 18.1 60.2509 18.2814 60.6024 18.4695C64.0976 20.3401 66.1027 22.7209 66.1027 25.0006C66.1027 27.2801 64.0976 29.66 60.6024 31.5306Z" fill="#00695C"/>
<path d="M44.9995 12.1562C44.5129 12.1562 44.0302 12.165 43.5508 12.1802C56.1306 12.5812 66.1021 18.1673 66.1021 25.0006C66.1021 31.8338 56.1306 37.4189 43.5508 37.8198C44.0302 37.835 44.5129 37.8438 44.9995 37.8438C58.2541 37.8438 68.9995 32.0941 68.9995 25.0005C68.9995 17.9069 58.2541 12.1562 44.9995 12.1562Z" fill="#00695C"/>
<path d="M59.5152 17.9273C56.4826 23.1714 50.9815 31.361 48.651 34.7944C47.9411 34.8561 47.2216 34.8996 46.4953 34.9237C47.5297 31.9697 49.1455 25.592 43.8124 25.592C38.6271 25.592 33.9014 30.2844 31.8414 32.6595C31.2532 32.427 30.6843 32.1772 30.1387 31.9109C34.3264 23.9376 38.7459 17.8531 40.7286 15.2666C41.4279 15.1942 42.1367 15.1412 42.8533 15.1055C41.6576 18.1424 40.6127 22.9351 45.9246 22.9351C51.2133 22.9351 55.5971 19.4544 57.8608 17.2268C58.4317 17.4449 58.9831 17.6783 59.5152 17.9273Z" fill="#00695C"/>
<path d="M57.8616 17.2273C57.4608 17.6216 56.9924 18.0555 56.4656 18.5021C53.8094 23.0188 49.5944 29.3714 47.0376 33.1664C46.865 33.8192 46.6722 34.4213 46.4961 34.924C47.2224 34.8999 47.9419 34.8565 48.6518 34.7947C50.9822 31.3613 56.4834 23.1718 59.516 17.9276C58.9839 17.6787 58.4324 17.4453 57.8616 17.2273Z" fill="#00695C"/>
</g>
</svg>
