<svg width="89" height="50" viewBox="0 0 89 50" fill="none" xmlns="http://www.w3.org/2000/svg">
<g opacity="0.4">
<path d="M45 13.8438C31.7438 13.8438 21 18.8928 21 25.1274C21 30.5268 29.0574 35.0422 39.8322 36.1547C39.9555 36.1674 40.0738 36.1002 40.1258 35.9881L44.737 26.055C44.8407 25.8317 45.1593 25.8317 45.263 26.055L49.8742 35.9881C49.9262 36.1002 50.0445 36.1673 50.1678 36.1547C60.9426 35.0422 69 30.5269 69 25.1274C69 18.8928 58.2561 13.8438 45 13.8438ZM55.2778 30.3571L45.2122 19.5754C45.0976 19.4527 44.9025 19.4527 44.7879 19.5754L34.7222 30.3571C29.0106 29.8074 25.2344 26.6823 25.2344 23.8711C25.2344 20.2433 33.3556 16.1994 45.0001 16.1994C56.6525 16.1994 64.7658 20.2433 64.7658 23.8711C64.7657 26.6823 60.9894 29.8074 55.2778 30.3571Z" fill="#00695C"/>
<path d="M55.1919 30.376C55.2215 30.3703 55.2502 30.3643 55.278 30.3581L45.2123 19.5764C45.0978 19.4537 44.9027 19.4537 44.7881 19.5764L43.793 20.6424L51.8434 29.2654C52.697 30.1797 53.9618 30.6144 55.1919 30.376Z" fill="#00695C"/>
<path d="M40.1749 30.6817L37.7559 35.8926C38.4357 35.9938 39.1282 36.0816 39.8327 36.1544C39.9559 36.1672 40.0741 36.1 40.1261 35.9879L45.0003 25.4883L44.7373 26.0547C42.6198 27.2356 41.1938 28.4869 40.1749 30.6817Z" fill="#00695C"/>
<path d="M45.0002 13.8438C44.5954 13.8438 44.1929 13.8486 43.793 13.8579C56.488 14.1534 66.5858 19.0832 66.5858 25.1274C66.5858 30.1737 59.547 34.4473 49.8302 35.8929L49.8743 35.9882C49.9264 36.1003 50.0447 36.1674 50.168 36.1548C60.9427 35.0422 69.0002 30.5268 69.0002 25.1275C69.0002 18.8928 58.2563 13.8438 45.0002 13.8438Z" fill="#00695C"/>
</g>
</svg>
