<svg width="89" height="50" viewBox="0 0 89 50" fill="none" xmlns="http://www.w3.org/2000/svg">
<g opacity="0.4">
<path d="M65.1504 28.6428C64.5162 30.6693 63.326 32.5479 61.7013 34.1744H36.0106C30.3634 34.1744 32.2139 29.9301 32.2139 29.9301C35.4023 23.1635 42.9177 13.2657 45.5849 9.83887C48.5909 9.91715 51.4406 10.465 53.995 11.3957C48.0262 18.1014 42.7786 24.7463 40.6326 27.5121C40.2069 28.06 40.6066 28.8428 41.2929 28.8428L65.1504 28.6428Z" fill="#00695C"/>
<path d="M47.548 10.3257C49.3705 10.6762 50.1311 12.8684 48.9181 14.2719C44.0268 19.9313 39.9152 25.1436 38.0777 27.5119C37.652 28.0598 38.0516 28.8426 38.738 28.8426L40.717 28.826C40.8044 28.8253 40.8423 28.7157 40.7739 28.6613C40.4434 28.3984 40.3336 27.8975 40.6332 27.5119C42.7681 24.7603 47.973 18.1693 53.9038 11.4987C53.9476 11.4494 53.9282 11.3709 53.8661 11.3487C51.3586 10.4513 48.5709 9.92126 45.6331 9.83988C45.6033 9.83904 45.575 9.85216 45.5567 9.87569C45.5562 9.87626 45.5558 9.87682 45.5554 9.87738C45.511 9.93438 45.546 10.0176 45.6177 10.0262C46.2716 10.1039 46.9156 10.204 47.548 10.3257Z" fill="#00695C"/>
<path d="M62.5689 28.7275C61.9492 30.6566 60.8253 32.4499 59.3021 34.0168C59.2449 34.0757 59.2855 34.1741 59.3678 34.1741H61.6636C61.6886 34.1741 61.7127 34.164 61.7303 34.1463C63.3082 32.5592 64.473 30.7333 65.1126 28.7652C65.1322 28.705 65.0862 28.643 65.0228 28.6436L62.6559 28.6634C62.616 28.6637 62.5811 28.6895 62.5689 28.7275Z" fill="#00695C"/>
<path d="M45 8.59375C31.7454 8.59375 21 15.939 21 25C21 34.061 31.7454 41.4062 45 41.4062C58.2546 41.4062 69 34.061 69 25C69 15.939 58.2546 8.59375 45 8.59375ZM64.312 28.3064C63.7103 30.2308 62.5794 32.0151 61.0371 33.5593C57.4317 37.1928 51.5916 39.5553 45 39.5553C34.0527 39.5553 25.1684 33.0391 25.1684 25.0029C25.1684 16.96 34.0527 10.4438 45 10.4438C45.2472 10.4438 45.4868 10.4438 45.734 10.4515C48.5888 10.5258 51.294 11.046 53.7202 11.93C60.303 14.2925 64.8316 19.2559 64.8316 25.0029C64.8316 26.1426 64.6501 27.2496 64.312 28.3064Z" fill="#00695C"/>
<path d="M43.8285 10.4713C43.6593 10.4637 43.4897 10.4574 43.3195 10.453C43.0723 10.4453 42.8327 10.4453 42.5855 10.4453C31.6382 10.4453 22.7539 16.9615 22.7539 25.0044C22.7539 33.0406 31.6382 39.5568 42.5855 39.5568C42.9946 39.5568 43.4008 39.5476 43.8038 39.5296C33.413 39.0753 25.1683 32.7456 25.1683 25.0044C25.1683 17.2504 33.426 10.9165 43.8285 10.4713Z" fill="#00695C"/>
<path d="M45.0002 8.59375C44.5953 8.59375 44.1929 8.60088 43.793 8.61438C56.4866 9.04431 66.5857 16.2157 66.5857 25C66.5857 33.7843 56.4866 40.9557 43.793 41.3856C44.1929 41.3992 44.5954 41.4062 45.0002 41.4062C58.2548 41.4062 69.0002 34.061 69.0002 25C69.0002 15.939 58.2548 8.59375 45.0002 8.59375Z" fill="#00695C"/>
</g>
</svg>
