<svg width="60" height="60" viewBox="0 0 60 60" fill="none" xmlns="http://www.w3.org/2000/svg">
<rect width="60" height="60" rx="30" fill="#00695C"/>
<path d="M42.3113 29.6221C42.3089 29.5448 42.3066 29.4651 42.2995 29.3878C42.2645 28.6013 42.1562 27.8198 41.9761 27.0534C41.8881 27.1628 41.7738 27.2482 41.6438 27.3015C41.5139 27.3548 41.3725 27.3743 41.233 27.3582C41.0935 27.3421 40.9603 27.2909 40.8459 27.2094C40.7315 27.1279 40.6396 27.0188 40.5789 26.8922C40.5181 26.7655 40.4904 26.6256 40.4983 26.4854C40.5063 26.3451 40.5496 26.2092 40.6243 26.0902C40.699 25.9713 40.8026 25.8732 40.9255 25.8052C41.0483 25.7371 41.1864 25.7013 41.3269 25.701C41.4185 25.7013 41.5095 25.7164 41.5964 25.7456C40.5299 22.6827 38.3519 20.1321 35.4938 18.5991C32.6357 17.066 29.3061 16.6624 26.1645 17.4681C23.0229 18.2738 20.2985 20.23 18.531 22.9494C16.7635 25.6687 16.0818 28.9527 16.621 32.1508C17.1602 35.3489 18.8808 38.2279 21.4422 40.2174C24.0036 42.2069 27.2188 43.1618 30.4509 42.893C33.683 42.6242 36.6962 41.1512 38.8937 38.7658C41.0912 36.3805 42.3126 33.2568 42.316 30.0135C42.316 29.8823 42.316 29.7534 42.3113 29.6221ZM32.4206 18.1729C33.5863 18.4683 34.701 18.9368 35.7277 19.5628C37.0251 20.3485 38.1655 21.3681 39.091 22.5698C38.3316 22.5464 37.8745 22.1948 36.2667 22.0401C34.3847 21.8596 35.6292 25.019 33.6136 24.3323C31.598 23.6456 32.73 21.3042 31.6659 20.3854C30.7144 19.5651 31.012 18.7987 32.4206 18.1729ZM32.1277 31.1128C32.0393 32.1549 31.6718 33.154 31.0636 34.005C31.0927 34.1017 31.1092 34.2017 31.1128 34.3026C31.1784 35.7885 30.3816 38.9432 29.7253 40.2206C29.4023 40.8396 29.2647 41.5386 29.3292 42.2339C28.4724 42.2294 27.6184 42.1343 26.7816 41.9503C26.7511 41.3878 26.6269 40.3073 26.0949 39.726C25.3519 38.9198 24.4355 38.6995 24.4355 37.1714C24.4355 35.6432 22.591 33.9135 21.9253 33.419C20.8988 32.655 19.4152 33.0464 19.1081 30.7331C18.8386 28.694 18.2175 27.8971 17.4605 27.3534C18.1241 24.351 19.8992 21.711 22.4292 19.9635C24.2785 20.5893 25.4925 20.0526 26.5519 20.2776C27.6886 20.5167 27.3488 22.8628 28.6167 23.6714C29.8636 24.4682 28.0589 26.7815 26.5753 25.3635C25.0917 23.9456 24.4285 25.6542 24.5878 26.6081C24.8738 28.305 24.5034 29.2237 23.3011 29.6362C22.9601 29.7524 22.6788 29.9986 22.5185 30.3213C22.3583 30.644 22.3321 31.0169 22.4456 31.3589C22.5513 31.7141 22.7863 32.0168 23.1042 32.2073C23.9245 32.6784 25.1011 33.5245 26.2472 33.6487C25.6981 32.777 25.4011 31.7703 25.3894 30.7401C25.3904 29.8453 25.7464 28.9875 26.3791 28.3548C27.0118 27.7221 27.8696 27.3662 28.7644 27.3651C28.7902 27.3651 28.8136 27.3651 28.837 27.3675C29.2864 27.3763 29.7291 27.4777 30.1376 27.6652C30.5461 27.8527 30.9116 28.1223 31.2113 28.4573C31.5354 28.8151 31.7837 29.2349 31.9412 29.6913C32.0987 30.1476 32.1621 30.6312 32.1277 31.1128ZM41.6128 30.037C41.6095 31.8427 41.2054 33.6251 40.4297 35.2557C39.6539 36.8862 38.5259 38.3242 37.1269 39.4659C37.0167 38.3128 36.841 37.6964 35.3128 36.201C33.6066 34.5323 33.0581 34.5323 33.6792 32.5987C34.3003 30.6651 34.5417 31.53 33.2316 29.8589C31.9214 28.1878 33.5386 26.9339 34.9777 26.5846C36.4167 26.2354 36.7261 27.6393 38.1652 27.3276C38.5238 27.2503 38.8495 27.1448 39.1542 27.0628C39.9324 26.8589 40.591 26.8167 41.4089 27.8057C41.5215 28.4123 41.5881 29.0266 41.6081 29.6432C41.6128 29.7675 41.6128 29.8893 41.6128 30.0135V30.037Z" fill="white"/>
<path d="M41.378 24.1754C41.2335 24.172 41.0891 24.183 40.9468 24.2082C40.4281 24.2976 39.9577 24.5675 39.6189 24.9703C39.28 25.373 39.0945 25.8826 39.0952 26.409C39.0953 26.6283 39.1149 26.8471 39.1538 27.0629C39.4069 28.4973 40.4358 29.5332 40.9843 29.9949C41.0709 30.0678 41.1785 30.1111 41.2914 30.1187C41.4044 30.1263 41.5168 30.0977 41.6124 30.0371C41.6349 30.0244 41.6561 30.0095 41.6757 29.9926C41.8973 29.8057 42.1056 29.6037 42.2991 29.3879C43.0053 28.6474 43.4463 27.6938 43.553 26.6762C43.6468 25.3777 42.6788 24.2012 41.378 24.1754ZM41.3265 27.3629C41.1061 27.3629 40.8948 27.2754 40.739 27.1195C40.5831 26.9637 40.4956 26.7524 40.4956 26.532C40.4956 26.3117 40.5831 26.1003 40.739 25.9445C40.8948 25.7887 41.1061 25.7012 41.3265 25.7012C41.4181 25.7015 41.5091 25.7165 41.596 25.7457C41.7602 25.8018 41.9028 25.9079 42.0036 26.0492C42.1045 26.1904 42.1587 26.3596 42.1585 26.5332C42.1587 26.6424 42.1372 26.7505 42.0954 26.8514C42.0536 26.9523 41.9923 27.044 41.915 27.1211C41.8377 27.1982 41.7459 27.2592 41.6449 27.3007C41.5439 27.3422 41.4357 27.3634 41.3265 27.3629Z" fill="white"/>
<path d="M28.8218 28.071C28.4662 28.0632 28.1126 28.1264 27.7818 28.2571C27.451 28.3877 27.1496 28.583 26.8953 28.8317C26.641 29.0803 26.4389 29.3772 26.3008 29.705C26.1628 30.0328 26.0915 30.3848 26.0913 30.7405C26.1093 31.7706 26.4431 32.7703 27.0476 33.6045C27.4178 34.1351 27.8559 34.615 28.3507 35.0319C28.4671 35.1292 28.6142 35.1823 28.766 35.1819C28.9177 35.1815 29.0645 35.1275 29.1804 35.0295C29.7332 34.5638 30.2142 34.0188 30.6077 33.4124C31.0725 32.7104 31.353 31.9028 31.4233 31.0639C31.5358 29.51 30.3804 28.1038 28.8218 28.071ZM28.7608 31.8842C28.5643 31.8842 28.3722 31.826 28.2087 31.7168C28.0453 31.6076 27.9179 31.4524 27.8427 31.2708C27.7675 31.0892 27.7478 30.8894 27.7862 30.6966C27.8245 30.5038 27.9192 30.3268 28.0582 30.1878C28.1971 30.0488 28.3742 29.9542 28.567 29.9158C28.7597 29.8775 28.9595 29.8972 29.1411 29.9724C29.3227 30.0476 29.4779 30.175 29.5871 30.3384C29.6963 30.5018 29.7546 30.6939 29.7546 30.8905C29.7545 31.154 29.6497 31.4067 29.4634 31.593C29.2771 31.7794 29.0244 31.8841 28.7608 31.8842Z" fill="white"/>
</svg>
