<svg width="60" height="60" viewBox="0 0 60 60" fill="none" xmlns="http://www.w3.org/2000/svg">
<rect width="60" height="60" rx="30" fill="#00695C"/>
<path fill-rule="evenodd" clip-rule="evenodd" d="M19.1113 20.8007C19.2971 20.3183 19.7608 20 20.2778 20H32.7778C33.1656 20 33.5314 20.18 33.768 20.4872L38.9483 27.2115H39.7222C40.806 27.2115 41.8354 27.6591 42.5868 28.4394C43.3367 29.2181 43.75 30.2645 43.75 31.3462V37.1154C43.75 37.4469 43.6183 37.7648 43.3839 37.9993C43.1495 38.2337 42.8315 38.3654 42.5 38.3654H40.7836C40.2722 40.0169 38.7739 41.25 36.9444 41.25C35.115 41.25 33.6167 40.0169 33.1053 38.3654H26.8947C26.3833 40.0169 24.885 41.25 23.0555 41.25C21.2261 41.25 19.7278 40.0169 19.2164 38.3654H17.5C17.1685 38.3654 16.8505 38.2337 16.6161 37.9993C16.3817 37.7648 16.25 37.4469 16.25 37.1154V28.4615C16.25 28.3079 16.2783 28.1556 16.3335 28.0122L19.1113 20.8007ZM19.2164 35.8654C19.7278 34.2139 21.2261 32.9808 23.0555 32.9808C24.885 32.9808 26.3833 34.2139 26.8947 35.8654H33.1053C33.6167 34.2139 35.115 32.9808 36.9444 32.9808C38.7739 32.9808 40.2722 34.2139 40.7836 35.8654H41.25V31.3462C41.25 30.8977 41.078 30.4767 40.786 30.1735C40.4955 29.8718 40.1119 29.7115 39.7222 29.7115H18.75V35.8654H19.2164ZM19.321 27.2115H28.75V22.5H21.1358L19.321 27.2115ZM31.25 22.5V27.2115H35.7925L32.1628 22.5H31.25ZM23.0555 35.4808C22.2558 35.4808 21.5278 36.1677 21.5278 37.1154C21.5278 38.063 22.2558 38.75 23.0555 38.75C23.8553 38.75 24.5833 38.063 24.5833 37.1154C24.5833 36.1677 23.8553 35.4808 23.0555 35.4808ZM36.9444 35.4808C36.1447 35.4808 35.4167 36.1677 35.4167 37.1154C35.4167 38.063 36.1447 38.75 36.9444 38.75C37.7442 38.75 38.4722 38.063 38.4722 37.1154C38.4722 36.1677 37.7442 35.4808 36.9444 35.4808Z" fill="white"/>
</svg>
