<svg width="286" height="243" viewBox="0 0 286 243" fill="none" xmlns="http://www.w3.org/2000/svg">
<path d="M265.215 162.607H171.445V108.275H265.215V162.607ZM172.017 162.035H264.643V108.848H172.017V162.035Z" fill="#CBD5E1"/>
<path d="M245.869 137.245H184.002V139.061H245.869V137.245Z" fill="#F3F4F6"/>
<path d="M250.132 144.018H184.002V146H250.132V144.018Z" fill="#F3F4F6"/>
<path d="M250.132 150.867H184.002V152.849H250.132V150.867Z" fill="#F3F4F6"/>
<path d="M205.624 127.411H184.002V132.126H205.624V127.411Z" fill="#F3F4F6"/>
<path d="M264.926 108.563H171.746V117.214H264.926V108.563Z" fill="#CBD5E1"/>
<path d="M255.799 115.921C255.679 115.806 256.881 114.357 258.477 112.684C260.073 111.011 261.475 109.745 261.59 109.854C261.704 109.963 260.508 111.418 258.912 113.097C257.316 114.775 255.914 116.036 255.799 115.921Z" fill="white"/>
<path d="M261.603 115.918C261.489 116.032 260.093 114.772 258.491 113.094C256.889 111.415 255.693 109.966 255.813 109.851C255.933 109.736 257.323 110.997 258.926 112.681C260.528 114.365 261.712 115.803 261.603 115.918Z" fill="white"/>
<path d="M149.83 0.96875H56.6489V54.7337H149.83V0.96875Z" fill="#F8FAFC"/>
<path d="M130.776 29.6611H68.9092V31.4772H130.776V29.6611Z" fill="#E2E8F0"/>
<path d="M135.038 36.4307H68.9092V38.4128H135.038V36.4307Z" fill="#E2E8F0"/>
<path d="M135.038 43.2832H68.9092V45.2654H135.038V43.2832Z" fill="#E2E8F0"/>
<path d="M90.5308 19.8203H68.9092V24.5351H90.5308V19.8203Z" fill="#E2E8F0"/>
<path d="M149.83 0.96875H56.6489V9.61926H149.83V0.96875Z" fill="#CBD5E1"/>
<path d="M142.346 8.28704C142.226 8.17819 143.427 6.72307 145.023 5.05026C146.62 3.37744 148.021 2.11138 148.136 2.22595C148.25 2.34053 147.054 3.78992 145.458 5.46273C143.862 7.13554 142.46 8.39015 142.346 8.28704Z" fill="white"/>
<path d="M148.136 8.28706C148.021 8.40164 146.625 7.1413 145.023 5.46276C143.421 3.78422 142.226 2.34056 142.346 2.22598C142.466 2.11141 143.856 3.37174 145.458 5.05028C147.06 6.72882 148.256 8.17821 148.136 8.28706Z" fill="white"/>
<path d="M114.538 100.849H20.7852V46.5107H114.538V100.849ZM21.3573 100.276H113.966V47.0836H21.3573V100.276Z" fill="#CBD5E1"/>
<path d="M95.1993 75.4834H33.3325V77.2994H95.1993V75.4834Z" fill="#F3F4F6"/>
<path d="M99.4618 82.2529H33.3325V84.2351H99.4618V82.2529Z" fill="#F3F4F6"/>
<path d="M99.4618 89.1055H33.3325V91.0876H99.4618V89.1055Z" fill="#F3F4F6"/>
<path d="M54.9542 65.6494H33.3325V70.3642H54.9542V65.6494Z" fill="#F3F4F6"/>
<path d="M114.251 46.7949H21.0708V55.4454H114.251V46.7949Z" fill="#CBD5E1"/>
<path d="M222.736 113.293H112.711V211.92H222.736V113.293Z" fill="#F8FAFC"/>
<path d="M118.247 82.2256H32.0576V171.887H118.247V82.2256Z" fill="#F3F4F6"/>
<path d="M118.247 82.2256H32.0576V91.9932H118.247V82.2256Z" fill="#CBD5E1"/>
<path d="M39.1728 87.0106C39.1571 87.3648 39.0379 87.7066 38.83 87.9936C38.622 88.2806 38.3345 88.5001 38.003 88.6249C37.6716 88.7497 37.3108 88.7743 36.9655 88.6956C36.6203 88.617 36.3057 88.4386 36.0607 88.1825C35.8158 87.9264 35.6514 87.6039 35.5879 87.2551C35.5244 86.9063 35.5646 86.5465 35.7035 86.2204C35.8424 85.8942 36.0738 85.6161 36.3692 85.4205C36.6645 85.2249 37.0107 85.1205 37.3648 85.1201C37.8545 85.1321 38.3195 85.3377 38.6583 85.692C38.9971 86.0462 39.182 86.5203 39.1728 87.0106Z" fill="white"/>
<path d="M46.5151 87.0106C46.5005 87.3665 46.3817 87.7103 46.1735 87.9991C45.9653 88.2879 45.6769 88.509 45.3441 88.6349C45.0113 88.7608 44.649 88.786 44.302 88.7073C43.9551 88.6286 43.6389 88.4494 43.3929 88.1922C43.1469 87.9349 42.9818 87.6109 42.9183 87.2604C42.8548 86.91 42.8956 86.5485 43.0357 86.2211C43.1757 85.8937 43.4089 85.6148 43.706 85.419C44.0032 85.2232 44.3513 85.1193 44.7071 85.1201C45.1968 85.1321 45.6618 85.3377 46.0005 85.692C46.3393 86.0462 46.5243 86.5203 46.5151 87.0106Z" fill="white"/>
<path d="M53.8579 87.0106C53.8433 87.3665 53.7245 87.7103 53.5163 87.9991C53.3081 88.2879 53.0196 88.509 52.6869 88.6349C52.3541 88.7608 51.9917 88.786 51.6448 88.7073C51.2979 88.6286 50.9817 88.4494 50.7357 88.1922C50.4896 87.9349 50.3246 87.6109 50.2611 87.2604C50.1976 86.91 50.2384 86.5485 50.3784 86.2211C50.5185 85.8937 50.7516 85.6148 51.0488 85.419C51.346 85.2232 51.6941 85.1193 52.0498 85.1201C52.5395 85.1321 53.0045 85.3377 53.3433 85.692C53.6821 86.0462 53.8671 86.5203 53.8579 87.0106Z" fill="white"/>
<path d="M252.909 20.5781H142.884V130.377H252.909V20.5781Z" fill="#F3F4F6"/>
<path d="M252.909 20.5781H142.884V33.4393H252.909V20.5781Z" fill="#CBD5E1"/>
<path d="M152.253 26.8797C152.233 27.3473 152.076 27.7986 151.802 28.1777C151.528 28.5567 151.148 28.8468 150.711 29.0119C150.274 29.177 149.797 29.2099 149.342 29.1064C148.886 29.0029 148.47 28.7676 148.147 28.4298C147.824 28.0919 147.606 27.6664 147.522 27.206C147.438 26.7457 147.491 26.2707 147.674 25.8402C147.858 25.4096 148.163 25.0425 148.553 24.7842C148.943 24.526 149.4 24.3881 149.867 24.3877C150.513 24.4027 151.127 24.6734 151.574 25.1404C152.021 25.6075 152.265 26.2329 152.253 26.8797Z" fill="white"/>
<path d="M161.223 25.1936C161.54 25.5385 161.749 25.9692 161.823 26.4321C161.897 26.895 161.834 27.3696 161.641 27.7967C161.448 28.2239 161.134 28.5847 160.737 28.8342C160.341 29.0838 159.88 29.211 159.412 29.2001C158.944 29.1891 158.489 29.0405 158.105 28.7727C157.72 28.5049 157.423 28.1298 157.25 27.6941C157.077 27.2584 157.036 26.7814 157.132 26.3225C157.228 25.8636 157.457 25.4431 157.79 25.1134C158.256 24.6691 158.879 24.428 159.523 24.443C160.166 24.4581 160.777 24.728 161.223 25.1936Z" fill="white"/>
<path d="M171.582 26.8797C171.562 27.3473 171.405 27.7986 171.131 28.1777C170.857 28.5567 170.477 28.8468 170.04 29.0119C169.603 29.177 169.127 29.2099 168.671 29.1064C168.215 29.0029 167.8 28.7676 167.476 28.4298C167.153 28.0919 166.935 27.6664 166.851 27.206C166.767 26.7457 166.82 26.2707 167.003 25.8402C167.187 25.4096 167.492 25.0425 167.882 24.7842C168.272 24.526 168.729 24.3881 169.196 24.3877C169.842 24.4027 170.456 24.6734 170.903 25.1404C171.35 25.6075 171.594 26.2329 171.582 26.8797Z" fill="white"/>
<path d="M229.137 241.051C229.137 241.132 189.407 241.2 140.414 241.2C91.4203 241.2 51.6729 241.132 51.6729 241.051C51.6729 240.971 91.3974 240.902 140.414 240.902C189.43 240.902 229.137 240.977 229.137 241.051Z" fill="#1E293B"/>
<path d="M190.428 170.918C181.589 164.737 179.586 153.262 179.935 142.945C179.992 141.226 179.804 139.404 180.622 137.897C181.44 136.391 183.351 135.354 184.89 136.076C186.166 136.677 186.721 138.167 187.436 139.398C188.39 141.039 189.789 142.376 191.47 143.254C192.563 143.827 193.919 144.171 195 143.575C196.488 142.755 196.659 140.71 196.648 138.992C196.648 135.795 196.629 132.602 196.59 129.413C196.488 127.701 196.662 125.983 197.105 124.326C197.638 122.699 198.822 121.192 200.441 120.734C202.06 120.276 204.08 121.221 204.446 122.894C204.509 123.602 204.526 124.314 204.498 125.025C204.543 125.741 204.875 126.526 205.545 126.743C206.214 126.961 206.912 126.463 207.427 125.959C209.189 124.24 210.391 122 211.506 119.789C212.622 117.577 213.715 115.303 215.317 113.418C216.919 111.533 219.133 110.038 221.611 109.895C224.088 109.752 226.669 111.276 227.286 113.682C227.904 116.088 226.503 118.546 224.998 120.499C222.727 123.399 220.051 125.955 217.051 128.09C216.465 128.41 215.998 128.91 215.718 129.516C215.346 130.662 216.427 131.808 217.554 132.169C218.83 132.593 220.215 132.461 221.559 132.621C222.904 132.782 224.334 133.366 224.843 134.626C225.541 136.379 224.077 138.213 222.641 139.416C219.757 141.822 216.483 143.715 212.96 145.013C211.701 145.471 210.379 145.878 209.361 146.76C208.342 147.642 207.736 149.183 208.348 150.392C208.96 151.601 210.534 151.985 211.856 151.738C213.177 151.492 214.35 150.782 215.609 150.306C217.96 149.418 220.993 149.578 222.475 151.612C222.934 152.313 223.224 153.11 223.324 153.942C223.423 154.774 223.328 155.618 223.047 156.407C222.474 157.978 221.593 159.417 220.455 160.641C216.708 165.124 211.839 168.53 206.346 170.512C200.893 172.402 195.841 172.918 190.423 170.93" fill="#00695C"/>
<path d="M224.769 111.312C224.769 111.312 224.717 111.37 224.603 111.473L224.094 111.925C223.648 112.326 222.99 112.911 222.16 113.684C219.808 115.871 217.624 118.232 215.626 120.748C214.35 122.335 213.028 124.134 211.621 126.087C210.213 128.041 208.76 130.149 207.318 132.389C205.781 134.751 204.373 137.195 203.102 139.71C202.438 141.022 201.854 142.391 201.254 143.789L199.48 148.057C197.142 153.433 195.106 158.936 193.381 164.539C191.991 169.124 191.033 173.828 190.52 178.592C190.187 181.806 190.134 185.044 190.36 188.268C190.451 189.413 190.537 190.29 190.617 190.886C190.652 191.172 190.674 191.401 190.697 191.567V191.802C190.673 191.728 190.655 191.651 190.646 191.573C190.617 191.407 190.583 191.184 190.537 190.897C190.434 190.324 190.325 189.419 190.222 188.273C189.946 185.044 189.966 181.795 190.28 178.569C190.761 173.785 191.698 169.058 193.077 164.453C194.788 158.834 196.819 153.318 199.159 147.931L200.979 143.68C201.58 142.288 202.169 140.908 202.838 139.59C204.119 137.067 205.538 134.617 207.089 132.251C208.554 129.96 210.03 127.886 211.421 125.95C212.811 124.013 214.156 122.203 215.426 120.622C217.444 118.113 219.657 115.768 222.046 113.61C222.892 112.848 223.567 112.275 224.025 111.891L224.557 111.461C224.622 111.405 224.693 111.355 224.769 111.312Z" fill="#1E293B"/>
<path d="M202.914 139.574C202.833 139.338 202.778 139.094 202.748 138.846C202.657 138.37 202.554 137.7 202.433 136.829C202.187 135.111 201.936 132.756 201.667 130.15C201.398 127.543 201.095 125.183 200.843 123.481C200.711 122.633 200.597 121.952 200.517 121.476C200.454 121.233 200.422 120.983 200.419 120.731C200.518 120.961 200.589 121.201 200.631 121.448C200.757 121.917 200.9 122.593 201.06 123.447C201.386 125.166 201.707 127.503 201.976 130.115C202.245 132.728 202.473 135.019 202.651 136.801C202.737 137.603 202.811 138.285 202.868 138.829C202.913 139.074 202.928 139.324 202.914 139.574Z" fill="#1E293B"/>
<path d="M224.931 135.463C224.653 135.523 224.369 135.558 224.085 135.566C223.512 135.617 222.7 135.686 221.693 135.801C219.679 136.018 216.91 136.419 213.872 136.992C210.834 137.565 208.104 138.212 206.142 138.711C205.164 138.963 204.374 139.192 203.853 139.347C203.575 139.446 203.288 139.515 202.995 139.553C203.26 139.42 203.535 139.311 203.819 139.226C204.357 139.037 205.135 138.774 206.108 138.493C208.059 137.92 210.788 137.239 213.837 136.654C216.421 136.16 219.027 135.796 221.647 135.566C222.66 135.48 223.478 135.445 224.05 135.434C224.344 135.414 224.639 135.424 224.931 135.463Z" fill="#1E293B"/>
<path d="M193.356 164.051C193.295 163.968 193.245 163.878 193.208 163.782L192.83 162.986C192.504 162.293 192.063 161.267 191.537 160.013C190.473 157.492 189.117 153.963 187.675 150.044C186.233 146.126 184.906 142.597 183.899 140.048C183.407 138.81 183 137.796 182.697 137.04L182.377 136.221C182.332 136.126 182.301 136.026 182.285 135.923C182.346 136.006 182.396 136.096 182.434 136.192L182.812 136.988C183.132 137.682 183.578 138.707 184.105 139.962C185.169 142.482 186.525 146.011 187.967 149.93C189.408 153.848 190.736 157.377 191.743 159.927C192.235 161.164 192.641 162.178 192.939 162.934C193.07 163.261 193.179 163.507 193.265 163.753C193.309 163.848 193.34 163.948 193.356 164.051Z" fill="#1E293B"/>
<path d="M222.583 154.614C222.492 154.667 222.394 154.707 222.291 154.735L221.445 155.021L218.315 156.035C215.672 156.894 212.021 158.12 208.016 159.472C204.011 160.824 200.344 162.027 197.683 162.829C196.356 163.236 195.274 163.546 194.525 163.752L193.661 163.975C193.561 164.007 193.457 164.028 193.352 164.038C193.444 163.986 193.542 163.945 193.644 163.918L194.491 163.631L197.62 162.617C200.264 161.758 203.914 160.532 207.919 159.18C211.924 157.828 215.586 156.625 218.246 155.823C219.579 155.416 220.655 155.107 221.41 154.901L222.274 154.677C222.375 154.645 222.478 154.624 222.583 154.614Z" fill="#1E293B"/>
<path d="M210.66 15.6495L207.714 16.7036L206.449 12.8481C204.126 5.73865 196.723 1.96336 189.92 4.36373C183.117 6.76411 179.495 14.561 181.818 21.6705L183.082 25.526L180.124 26.5858C178.996 27.0239 178.081 27.8803 177.567 28.9771C177.053 30.0739 176.982 31.3266 177.367 32.475L185.566 57.5615C185.736 58.13 186.018 58.6584 186.397 59.1154C186.775 59.5724 187.241 59.9486 187.767 60.2216C188.293 60.4947 188.869 60.6591 189.46 60.705C190.051 60.7509 190.645 60.6774 191.207 60.4889L221.743 49.5526C222.886 49.1153 223.815 48.2513 224.334 47.1423C224.854 46.0332 224.924 44.7656 224.529 43.6061L216.324 18.5196C216.15 17.9527 215.863 17.4269 215.481 16.9734C215.099 16.52 214.63 16.1482 214.101 15.8803C213.572 15.6125 212.995 15.454 212.404 15.4143C211.813 15.3747 211.22 15.4546 210.66 15.6495ZM187.385 19.6597C186.759 17.8111 186.871 15.7916 187.699 14.0241C188.526 12.2567 190.005 10.8786 191.825 10.1785C192.724 9.87063 193.675 9.74718 194.622 9.81549C195.57 9.88381 196.493 10.1425 197.339 10.5761C198.184 11.0097 198.933 11.6094 199.542 12.3393C200.151 13.0692 200.607 13.9144 200.882 14.8245L202.141 18.68L188.644 23.5152L187.385 19.6597ZM204.55 41.9218L206.644 48.3266C206.682 48.4551 206.67 48.5934 206.609 48.7129C206.548 48.8324 206.444 48.9238 206.318 48.9683L203.382 50.0166C203.266 50.0491 203.141 50.035 203.034 49.9773C202.927 49.9196 202.847 49.8229 202.81 49.7073L200.699 43.3311C199.535 43.2676 198.418 42.8495 197.498 42.1328C196.577 41.4162 195.898 40.4351 195.55 39.3209C195.052 37.848 195.143 36.2395 195.803 34.8321C196.463 33.4246 197.641 32.3275 199.091 31.7704C199.807 31.5255 200.565 31.4274 201.319 31.482C202.074 31.5365 202.81 31.7426 203.483 32.088C204.156 32.4333 204.753 32.9108 205.238 33.4921C205.723 34.0733 206.086 34.7464 206.306 35.4712C206.674 36.6029 206.705 37.8176 206.394 38.9664C206.083 40.1152 205.444 41.1483 204.555 41.939L204.55 41.9218Z" fill="#00695C"/>
<path d="M207.581 16.6368C207.581 16.717 202.117 18.7737 195.32 21.2199C188.523 23.6661 182.979 25.631 182.95 25.5738C182.922 25.5165 188.414 23.4426 195.217 20.9907C202.02 18.5388 207.553 16.5623 207.581 16.6368Z" fill="#1E293B"/>
<path d="M214.071 17.6904C214.096 17.7401 214.117 17.7919 214.134 17.8451C214.18 17.9597 214.231 18.1086 214.3 18.292C214.449 18.7102 214.655 19.2888 214.912 20.0106L217.109 26.4154C218.025 29.1309 219.117 32.3505 220.33 35.9252C220.903 37.7184 221.578 39.5859 222.207 41.5509C222.544 42.5635 222.689 43.6301 222.636 44.696C222.588 45.2504 222.43 45.7897 222.173 46.2829C221.898 46.7745 221.531 47.2083 221.091 47.5605C220.207 48.2065 219.226 48.7074 218.185 49.0442L215.238 50.104L209.66 52.1034L200.214 55.4719L193.834 57.7176L192.118 58.2905L191.66 58.4395C191.611 58.4613 191.559 58.4748 191.505 58.4796C191.505 58.4796 191.551 58.4796 191.648 58.4108L192.095 58.2332L193.811 57.5859L200.156 55.2485L209.585 51.8112L215.152 49.7947L218.099 48.7291C219.111 48.406 220.064 47.9204 220.92 47.2912C221.328 46.9644 221.67 46.5618 221.927 46.1053C222.169 45.6492 222.315 45.1481 222.356 44.633C222.409 43.606 222.269 42.5781 221.944 41.6025C221.326 39.6547 220.674 37.7699 220.084 35.9768C218.894 32.3963 217.796 29.1652 216.926 26.4498C216.056 23.7343 215.324 21.5516 214.821 20.0163C214.58 19.2659 214.397 18.6815 214.248 18.2576L214.111 17.7993C214.094 17.7646 214.08 17.7281 214.071 17.6904Z" fill="#1E293B"/>
<path d="M197.959 9.79077C197.959 9.79077 197.655 9.64182 197.095 9.41267C196.295 9.10519 195.45 8.93476 194.594 8.90853C193.326 8.86498 192.064 9.10369 190.898 9.60745C189.481 10.2347 188.27 11.2494 187.402 12.5349C186.529 13.8167 186.061 15.3315 186.058 16.883C186.07 18.1547 186.262 19.4181 186.63 20.6354C186.928 21.6781 187.237 22.5087 187.443 23.0873C187.564 23.3812 187.663 23.6838 187.74 23.9925C187.578 23.7177 187.441 23.4281 187.334 23.1274C187.099 22.5546 186.762 21.7411 186.43 20.6927C186.022 19.4627 185.801 18.1786 185.772 16.883C185.757 15.2729 186.236 13.697 187.145 12.3687C188.042 11.0363 189.304 9.99027 190.778 9.35538C191.98 8.84886 193.281 8.62542 194.583 8.7023C195.457 8.74691 196.316 8.95075 197.118 9.30382C197.332 9.40279 197.538 9.51769 197.736 9.64755C197.817 9.68335 197.892 9.73167 197.959 9.79077Z" fill="#1E293B"/>
<path d="M198.224 32.204C198.315 32.1485 198.411 32.1006 198.51 32.0607C198.797 31.9313 199.093 31.8259 199.397 31.7456C199.879 31.6031 200.377 31.5185 200.879 31.4936C201.562 31.4568 202.245 31.5601 202.887 31.7972C204.352 32.3128 205.696 33.808 206.36 35.8074C206.678 36.8803 206.678 38.0228 206.36 39.0957C206.007 40.2602 205.375 41.3204 204.518 42.1835L204.552 42.0289C205.313 44.1199 206.143 46.3885 207.001 48.7545L207.052 48.8977L206.909 48.9493L205.599 49.3847L202.738 50.3414L202.595 50.3872L202.55 50.244C201.766 47.8722 200.908 45.6609 200.261 43.4897L200.387 43.5871C199.268 43.4941 198.202 43.0737 197.32 42.3783C196.522 41.7631 195.868 40.9811 195.403 40.0868C194.984 39.2937 194.775 38.406 194.797 37.5088C194.823 36.5919 195.052 35.6922 195.467 34.8741C195.881 34.056 196.471 33.3398 197.194 32.7768C197.492 32.5348 197.826 32.3415 198.184 32.204C197.861 32.396 197.548 32.6044 197.246 32.8284C196.451 33.5014 195.843 34.3674 195.478 35.3433C195.165 36.0793 195.018 36.8755 195.049 37.6748C195.08 38.4741 195.287 39.2567 195.655 39.9665C196.112 40.8268 196.751 41.5774 197.526 42.1664C198.367 42.8273 199.384 43.2258 200.45 43.3121H200.547L200.576 43.398C201.205 45.5292 202.069 47.7577 202.864 50.1409L202.675 50.0492L205.536 49.0925L206.841 48.6514L206.749 48.8461C205.897 46.4801 205.073 44.2058 204.318 42.1148V42.0289L204.386 41.9601C205.218 41.1328 205.838 40.1168 206.194 38.9983C206.498 37.972 206.498 36.8796 206.194 35.8532C205.571 33.9283 204.283 32.4675 202.887 31.9519C202.269 31.7133 201.61 31.6022 200.948 31.6253C200.453 31.6367 199.962 31.7039 199.483 31.8258C198.63 32.0378 198.23 32.2326 198.224 32.204Z" fill="#1E293B"/>
<path d="M180.535 197.619L123.382 197.356C120.082 197.338 116.923 196.009 114.601 193.661C112.278 191.313 110.982 188.137 110.995 184.833L111.602 41.3775C111.608 39.7403 111.937 38.1204 112.57 36.6105C113.202 35.1006 114.125 33.7303 115.287 32.5779C116.449 31.4255 117.826 30.5136 119.339 29.8943C120.853 29.2751 122.474 28.9606 124.109 28.9689L181.255 29.2324C184.556 29.2491 187.715 30.5767 190.039 32.9237C192.362 35.2707 193.66 38.4452 193.648 41.7499L193.042 185.199C193.035 186.837 192.706 188.458 192.074 189.968C191.442 191.479 190.519 192.85 189.357 194.003C188.196 195.156 186.819 196.069 185.305 196.69C183.791 197.31 182.17 197.626 180.535 197.619Z" fill="#475569"/>
<path d="M181.172 34.1647H170.096C169.734 34.1714 169.378 34.2493 169.046 34.394C168.715 34.5387 168.415 34.7474 168.165 35.0081C167.914 35.2687 167.717 35.5763 167.585 35.9133C167.453 36.2502 167.388 36.6099 167.395 36.9718V38.9826C167.402 39.3442 167.337 39.7036 167.205 40.0402C167.073 40.3768 166.876 40.684 166.625 40.9443C166.374 41.2045 166.075 41.4126 165.743 41.5567C165.412 41.7008 165.056 41.778 164.695 41.784L143.101 41.6866C142.371 41.6671 141.678 41.3581 141.175 40.8275C140.672 40.2969 140.4 39.588 140.418 38.8566V36.8457C140.437 36.1153 140.165 35.4073 139.663 34.8768C139.161 34.3463 138.47 34.0367 137.74 34.0157H133.844L124.146 33.9699C121.839 33.9561 119.621 34.8581 117.977 36.4784C116.333 38.0986 115.398 40.3051 115.375 42.6147L114.803 182.638C114.798 183.784 115.018 184.92 115.451 185.98C115.884 187.041 116.521 188.006 117.327 188.82C118.132 189.633 119.09 190.281 120.145 190.724C121.2 191.167 122.332 191.398 123.477 191.403L180.509 191.667C181.654 191.672 182.789 191.452 183.849 191.018C184.909 190.584 185.873 189.945 186.686 189.138C187.5 188.331 188.146 187.372 188.589 186.314C189.032 185.257 189.263 184.123 189.268 182.976L189.841 42.9527C189.854 40.6366 188.949 38.4098 187.323 36.7619C185.698 35.114 183.486 34.1798 181.172 34.1647Z" fill="white"/>
<path d="M137.591 83.5503L122.875 83.4834L122.863 86.1873L137.579 86.2542L137.591 83.5503Z" fill="#00695C"/>
<path opacity="0.1" d="M137.591 83.5503L122.875 83.4834L122.863 86.1873L137.579 86.2542L137.591 83.5503Z" fill="#101010"/>
<path d="M180.726 100.15C180.841 100.138 180.955 100.111 181.063 100.07C181.222 100.008 181.359 99.9023 181.461 99.7655C181.562 99.6287 181.622 99.4661 181.636 99.2963C181.636 98.3854 181.636 97.0564 181.636 95.3492C181.636 94.4956 181.636 93.5389 181.636 92.4848C181.636 92.227 181.636 91.9577 181.636 91.6885C181.673 91.4272 181.616 91.1612 181.475 90.938C181.397 90.831 181.294 90.7437 181.176 90.6831C181.058 90.6224 180.927 90.5901 180.794 90.5885H179.902H171.634L123.78 90.4109C123.657 90.4088 123.536 90.4364 123.426 90.4913C123.317 90.5461 123.222 90.6267 123.15 90.726C123.012 90.9501 122.959 91.2166 123.001 91.4765C123.001 92.0494 123.001 92.6223 123.001 93.1951C123.001 94.3409 123.001 95.4867 123.001 96.6324C123.001 97.2053 123.001 97.7782 123.001 98.3511C122.978 98.6179 122.978 98.8863 123.001 99.1531C123.031 99.2675 123.087 99.3734 123.165 99.4628C123.242 99.5522 123.339 99.6226 123.448 99.6687C123.56 99.7136 123.681 99.7351 123.802 99.7317H126.715L139.422 99.8005L160.935 99.9322L175.439 100.047L179.381 100.093H180.405C180.64 100.093 180.754 100.093 180.754 100.093H180.405H179.381H175.439H160.935L139.422 100.024L126.715 99.9723H123.802C123.642 99.9788 123.482 99.9515 123.333 99.8921C123.183 99.8277 123.049 99.7298 122.942 99.6057C122.834 99.4816 122.757 99.3346 122.715 99.176C122.682 99.0257 122.671 98.8713 122.681 98.7177V98.2938C122.681 97.7209 122.681 97.148 122.681 96.5751C122.681 95.4294 122.681 94.2836 122.681 93.1378C122.681 92.565 122.681 91.9921 122.681 91.4192C122.67 91.2666 122.67 91.1135 122.681 90.9609C122.702 90.7924 122.768 90.6324 122.87 90.4969C122.969 90.3586 123.099 90.2462 123.251 90.1694C123.402 90.0926 123.57 90.0536 123.74 90.0557L171.594 90.3193L179.862 90.3766H180.754C180.912 90.3767 181.067 90.4148 181.206 90.4875C181.345 90.5603 181.465 90.6657 181.555 90.7948C181.717 91.0438 181.782 91.3432 181.739 91.6369C181.739 91.9062 181.739 92.1754 181.739 92.4332C181.739 93.4758 181.739 94.4326 181.739 95.2976C181.739 97.0163 181.698 98.3339 181.687 99.2505C181.673 99.4267 181.609 99.5953 181.503 99.7364C181.396 99.8774 181.252 99.9851 181.086 100.047C180.978 100.114 180.853 100.15 180.726 100.15Z" fill="#CBD5E1"/>
<path d="M154.207 93.2861H127.293V95.8125H154.207V93.2861Z" fill="#00695C"/>
<path opacity="0.2" d="M154.207 93.2861H127.293V95.8125H154.207V93.2861Z" fill="white"/>
<path d="M137.489 108.219L122.773 108.152L122.761 110.856L137.477 110.923L137.489 108.219Z" fill="#00695C"/>
<path opacity="0.1" d="M137.489 108.219L122.773 108.152L122.761 110.856L137.477 110.923L137.489 108.219Z" fill="#101010"/>
<path d="M180.355 124.824C180.471 124.81 180.585 124.789 180.698 124.761C180.858 124.71 181.005 124.626 181.13 124.513C181.254 124.4 181.353 124.262 181.419 124.108C181.509 123.877 181.545 123.628 181.522 123.38C181.522 123.105 181.522 122.808 181.522 122.475C181.522 121.811 181.522 121.055 181.522 120.184V116.546C181.55 116.283 181.491 116.017 181.356 115.79C181.215 115.556 180.993 115.383 180.733 115.303C180.448 115.252 180.157 115.237 179.869 115.257H171.635L123.947 115.079C123.69 115.08 123.443 115.174 123.25 115.344C123.057 115.513 122.933 115.747 122.9 116.002C122.9 116.546 122.9 117.148 122.9 117.72C122.9 118.866 122.9 120.012 122.9 121.158C122.9 121.731 122.9 122.303 122.9 122.876C122.878 123.144 122.89 123.413 122.934 123.678C123.005 123.911 123.152 124.112 123.352 124.251C123.563 124.386 123.811 124.45 124.061 124.435H124.856H126.51L139.172 124.498L160.61 124.629L175.063 124.744L178.993 124.79H180.017H180.361H180.017H178.993H175.063H160.61L139.16 124.767L126.498 124.721H124.01C123.7 124.739 123.393 124.657 123.134 124.486C122.874 124.306 122.684 124.04 122.596 123.736C122.545 123.445 122.53 123.148 122.551 122.853C122.551 122.281 122.551 121.708 122.551 121.135C122.551 119.989 122.551 118.843 122.551 117.697C122.551 117.125 122.551 116.552 122.551 115.979C122.592 115.651 122.752 115.35 122.999 115.132C123.247 114.914 123.565 114.793 123.895 114.793L171.584 115.056L179.817 115.12C180.124 115.101 180.432 115.122 180.733 115.183C181.03 115.28 181.281 115.484 181.436 115.755C181.584 116.008 181.648 116.301 181.619 116.592C181.619 116.861 181.619 117.125 181.619 117.388C181.619 118.425 181.619 119.376 181.619 120.253C181.619 121.129 181.619 121.868 181.619 122.544C181.619 122.871 181.619 123.174 181.619 123.455C181.64 123.711 181.599 123.969 181.499 124.205C181.425 124.363 181.318 124.504 181.184 124.616C181.051 124.729 180.895 124.812 180.727 124.858C180.602 124.869 180.476 124.857 180.355 124.824Z" fill="#CBD5E1"/>
<path d="M137.377 133.957L122.661 133.891L122.649 136.595L137.365 136.661L137.377 133.957Z" fill="#00695C"/>
<path opacity="0.1" d="M137.377 133.957L122.661 133.891L122.649 136.595L137.365 136.661L137.377 133.957Z" fill="#101010"/>
<path d="M180.238 150.548C180.353 150.534 180.468 150.513 180.581 150.485C180.74 150.434 180.887 150.35 181.011 150.239C181.135 150.127 181.234 149.99 181.302 149.838C181.392 149.606 181.427 149.357 181.405 149.11C181.405 148.829 181.405 148.537 181.405 148.199C181.405 147.54 181.405 146.778 181.405 145.908V142.27C181.432 142.006 181.374 141.741 181.239 141.514C181.094 141.284 180.873 141.114 180.615 141.032C180.331 140.979 180.04 140.962 179.751 140.981H171.518L123.829 140.803C123.573 140.804 123.325 140.898 123.133 141.067C122.94 141.237 122.815 141.471 122.782 141.726C122.782 142.299 122.782 142.871 122.782 143.444C122.782 144.59 122.782 145.736 122.782 146.882C122.782 147.454 122.782 148.027 122.782 148.6C122.761 148.866 122.772 149.133 122.816 149.396C122.885 149.63 123.033 149.833 123.234 149.969C123.444 150.107 123.693 150.171 123.944 150.153H126.432L139.094 150.221L160.533 150.353L174.985 150.468L178.916 150.514H179.94C180.169 150.514 180.283 150.514 180.283 150.514C180.283 150.514 180.169 150.514 179.94 150.514H178.916H174.985H160.533L139.094 150.451L126.432 150.399H123.944C123.634 150.42 123.326 150.337 123.068 150.164C122.808 149.984 122.618 149.718 122.53 149.414C122.479 149.123 122.464 148.826 122.485 148.531C122.485 147.959 122.485 147.386 122.485 146.813C122.485 145.667 122.485 144.521 122.485 143.376C122.485 142.803 122.485 142.23 122.485 141.628C122.525 141.301 122.683 141 122.93 140.782C123.177 140.563 123.494 140.443 123.823 140.442L171.512 140.706L179.746 140.769C180.052 140.75 180.36 140.771 180.661 140.832C180.958 140.929 181.209 141.133 181.365 141.405C181.513 141.657 181.577 141.95 181.548 142.241C181.548 142.51 181.548 142.78 181.548 143.038C181.548 144.074 181.548 145.025 181.548 145.902C181.548 146.778 181.548 147.517 181.548 148.193C181.548 148.52 181.548 148.824 181.548 149.104C181.57 149.361 181.529 149.618 181.428 149.855C181.353 150.013 181.246 150.153 181.113 150.266C180.979 150.378 180.823 150.461 180.655 150.508C180.521 150.554 180.378 150.568 180.238 150.548Z" fill="#CBD5E1"/>
<path d="M153.632 118.673L126.719 118.551L126.707 121.077L153.621 121.199L153.632 118.673Z" fill="#00695C"/>
<path opacity="0.2" d="M153.632 118.673L126.719 118.551L126.707 121.077L153.621 121.199L153.632 118.673Z" fill="white"/>
<path d="M129.151 145.874C129.134 146.104 129.05 146.325 128.909 146.508C128.768 146.691 128.577 146.828 128.359 146.904C128.14 146.979 127.905 146.988 127.682 146.93C127.458 146.873 127.256 146.751 127.102 146.579C126.947 146.408 126.846 146.195 126.811 145.967C126.776 145.738 126.808 145.505 126.905 145.295C127.001 145.085 127.157 144.908 127.353 144.786C127.549 144.664 127.776 144.602 128.007 144.608C128.325 144.626 128.624 144.769 128.839 145.006C129.053 145.243 129.165 145.555 129.151 145.874Z" fill="#00695C"/>
<path d="M132.799 145.894C132.811 146.056 132.788 146.218 132.734 146.37C132.68 146.523 132.596 146.663 132.485 146.781C132.375 146.9 132.242 146.994 132.093 147.059C131.945 147.123 131.785 147.157 131.623 147.157C131.462 147.157 131.302 147.123 131.154 147.059C131.005 146.994 130.872 146.9 130.762 146.781C130.651 146.663 130.566 146.523 130.512 146.37C130.458 146.218 130.436 146.056 130.448 145.894C130.436 145.733 130.458 145.571 130.512 145.418C130.566 145.265 130.651 145.125 130.762 145.007C130.872 144.889 131.005 144.794 131.154 144.73C131.302 144.665 131.462 144.632 131.623 144.632C131.785 144.632 131.945 144.665 132.093 144.73C132.242 144.794 132.375 144.889 132.485 145.007C132.596 145.125 132.68 145.265 132.734 145.418C132.788 145.571 132.811 145.733 132.799 145.894Z" fill="#00695C"/>
<path d="M136.448 145.909C136.431 146.14 136.347 146.36 136.207 146.543C136.066 146.726 135.874 146.864 135.656 146.939C135.438 147.014 135.202 147.023 134.979 146.966C134.755 146.908 134.554 146.786 134.399 146.615C134.244 146.443 134.143 146.23 134.108 146.002C134.073 145.773 134.106 145.54 134.202 145.33C134.298 145.12 134.454 144.943 134.65 144.821C134.846 144.699 135.073 144.637 135.304 144.643C135.622 144.662 135.92 144.806 136.134 145.042C136.348 145.279 136.461 145.59 136.448 145.909Z" fill="#00695C"/>
<path d="M140.095 145.923C140.078 146.153 139.994 146.374 139.853 146.557C139.712 146.74 139.521 146.877 139.303 146.952C139.084 147.028 138.849 147.037 138.625 146.979C138.402 146.922 138.2 146.8 138.045 146.628C137.891 146.457 137.789 146.244 137.754 146.016C137.719 145.787 137.752 145.553 137.848 145.344C137.945 145.134 138.101 144.957 138.297 144.834C138.492 144.712 138.72 144.651 138.951 144.657C139.269 144.676 139.567 144.819 139.781 145.056C139.995 145.293 140.107 145.604 140.095 145.923Z" fill="#00695C"/>
<path d="M143.738 145.938C143.722 146.168 143.639 146.389 143.499 146.573C143.358 146.757 143.167 146.896 142.949 146.972C142.731 147.048 142.495 147.058 142.271 147.001C142.047 146.944 141.845 146.822 141.69 146.651C141.534 146.48 141.433 146.266 141.397 146.038C141.362 145.809 141.394 145.575 141.491 145.365C141.587 145.155 141.743 144.977 141.939 144.855C142.135 144.733 142.363 144.671 142.594 144.677C142.911 144.696 143.208 144.839 143.422 145.074C143.635 145.31 143.749 145.62 143.738 145.938Z" fill="#00695C"/>
<path d="M147.388 145.958C147.372 146.187 147.29 146.407 147.151 146.591C147.012 146.774 146.823 146.913 146.606 146.99C146.389 147.067 146.155 147.078 145.932 147.024C145.709 146.969 145.506 146.85 145.35 146.682C145.193 146.514 145.089 146.303 145.05 146.076C145.011 145.849 145.04 145.616 145.132 145.405C145.224 145.194 145.375 145.015 145.568 144.889C145.76 144.763 145.985 144.697 146.215 144.697C146.537 144.709 146.841 144.849 147.061 145.085C147.281 145.321 147.399 145.635 147.388 145.958Z" fill="#00695C"/>
<path d="M151.032 145.974C151.043 146.136 151.021 146.298 150.967 146.45C150.913 146.603 150.829 146.743 150.718 146.861C150.608 146.98 150.475 147.074 150.326 147.139C150.178 147.203 150.018 147.237 149.856 147.237C149.695 147.237 149.535 147.203 149.386 147.139C149.238 147.074 149.105 146.98 148.994 146.861C148.884 146.743 148.799 146.603 148.745 146.45C148.691 146.298 148.669 146.136 148.681 145.974C148.669 145.813 148.691 145.651 148.745 145.498C148.799 145.345 148.884 145.206 148.994 145.087C149.105 144.969 149.238 144.874 149.386 144.81C149.535 144.745 149.695 144.712 149.856 144.712C150.018 144.712 150.178 144.745 150.326 144.81C150.475 144.874 150.608 144.969 150.718 145.087C150.829 145.206 150.913 145.345 150.967 145.498C151.021 145.651 151.043 145.813 151.032 145.974Z" fill="#00695C"/>
<path d="M154.677 145.986C154.661 146.216 154.579 146.436 154.44 146.619C154.301 146.802 154.112 146.941 153.895 147.018C153.679 147.095 153.444 147.107 153.221 147.052C152.998 146.997 152.795 146.879 152.639 146.71C152.482 146.542 152.378 146.331 152.339 146.105C152.3 145.878 152.329 145.644 152.421 145.434C152.513 145.223 152.664 145.043 152.857 144.917C153.049 144.792 153.274 144.725 153.504 144.726C153.826 144.738 154.131 144.877 154.35 145.113C154.57 145.349 154.688 145.663 154.677 145.986Z" fill="#00695C"/>
<path d="M158.323 146.007C158.307 146.238 158.224 146.459 158.084 146.642C157.943 146.826 157.752 146.965 157.534 147.041C157.316 147.117 157.08 147.127 156.856 147.07C156.632 147.013 156.43 146.891 156.275 146.72C156.119 146.549 156.018 146.336 155.982 146.107C155.947 145.879 155.979 145.645 156.076 145.434C156.172 145.224 156.328 145.047 156.524 144.925C156.72 144.802 156.948 144.74 157.178 144.747C157.496 144.766 157.793 144.908 158.007 145.144C158.22 145.379 158.334 145.689 158.323 146.007Z" fill="#00695C"/>
<g opacity="0.2">
<path opacity="0.2" d="M131.112 137.65C131.096 137.881 131.011 138.101 130.871 138.284C130.73 138.467 130.538 138.605 130.32 138.68C130.102 138.755 129.866 138.764 129.643 138.707C129.42 138.649 129.218 138.527 129.063 138.356C128.908 138.184 128.807 137.971 128.772 137.743C128.737 137.515 128.77 137.281 128.866 137.071C128.962 136.861 129.118 136.684 129.314 136.562C129.51 136.44 129.737 136.378 129.968 136.384C130.287 136.402 130.586 136.545 130.8 136.782C131.014 137.019 131.126 137.331 131.112 137.65Z" fill="white"/>
<path opacity="0.2" d="M134.755 137.668C134.767 137.829 134.744 137.991 134.69 138.144C134.637 138.296 134.552 138.436 134.441 138.555C134.331 138.673 134.198 138.768 134.049 138.832C133.901 138.897 133.741 138.93 133.58 138.93C133.418 138.93 133.258 138.897 133.11 138.832C132.961 138.768 132.828 138.673 132.718 138.555C132.607 138.436 132.523 138.296 132.469 138.144C132.415 137.991 132.392 137.829 132.404 137.668C132.392 137.506 132.415 137.344 132.469 137.191C132.523 137.039 132.607 136.899 132.718 136.781C132.828 136.662 132.961 136.568 133.11 136.503C133.258 136.439 133.418 136.405 133.58 136.405C133.741 136.405 133.901 136.439 134.049 136.503C134.198 136.568 134.331 136.662 134.441 136.781C134.552 136.899 134.637 137.039 134.69 137.191C134.744 137.344 134.767 137.506 134.755 137.668Z" fill="white"/>
<path opacity="0.2" d="M138.407 137.685C138.39 137.916 138.306 138.136 138.165 138.319C138.024 138.502 137.833 138.64 137.615 138.715C137.396 138.79 137.161 138.8 136.937 138.742C136.714 138.684 136.512 138.562 136.357 138.391C136.203 138.22 136.101 138.007 136.066 137.778C136.031 137.55 136.064 137.316 136.16 137.106C136.257 136.896 136.413 136.719 136.609 136.597C136.804 136.475 137.032 136.413 137.263 136.419C137.581 136.439 137.879 136.582 138.093 136.819C138.307 137.055 138.419 137.366 138.407 137.685Z" fill="white"/>
<path opacity="0.2" d="M142.051 137.702C142.035 137.932 141.95 138.153 141.81 138.336C141.669 138.519 141.477 138.657 141.259 138.732C141.041 138.807 140.805 138.816 140.582 138.759C140.359 138.701 140.157 138.579 140.002 138.408C139.847 138.236 139.746 138.023 139.711 137.795C139.676 137.566 139.709 137.333 139.805 137.123C139.901 136.913 140.057 136.736 140.253 136.614C140.449 136.492 140.676 136.43 140.907 136.436C141.225 136.455 141.523 136.599 141.737 136.835C141.951 137.072 142.064 137.383 142.051 137.702Z" fill="white"/>
<path opacity="0.2" d="M145.698 137.714C145.682 137.945 145.599 138.166 145.459 138.35C145.318 138.533 145.127 138.672 144.909 138.748C144.691 138.824 144.455 138.834 144.231 138.777C144.007 138.72 143.805 138.598 143.65 138.427C143.494 138.256 143.393 138.043 143.357 137.814C143.322 137.586 143.354 137.352 143.451 137.141C143.547 136.931 143.703 136.754 143.899 136.632C144.095 136.509 144.323 136.447 144.553 136.454C144.871 136.473 145.168 136.615 145.382 136.851C145.595 137.086 145.709 137.396 145.698 137.714Z" fill="white"/>
<path opacity="0.2" d="M149.346 137.727C149.33 137.957 149.248 138.177 149.109 138.36C148.97 138.543 148.781 138.682 148.564 138.759C148.348 138.836 148.113 138.848 147.89 138.793C147.667 138.739 147.464 138.62 147.308 138.451C147.151 138.283 147.047 138.073 147.008 137.846C146.969 137.619 146.998 137.386 147.09 137.175C147.182 136.964 147.333 136.784 147.526 136.659C147.718 136.533 147.943 136.466 148.173 136.467C148.495 136.479 148.8 136.618 149.019 136.854C149.239 137.091 149.357 137.404 149.346 137.727Z" fill="white"/>
<path opacity="0.2" d="M152.994 137.751C153.005 137.912 152.983 138.074 152.929 138.227C152.875 138.379 152.79 138.519 152.68 138.638C152.569 138.756 152.436 138.851 152.288 138.915C152.139 138.98 151.979 139.013 151.818 139.013C151.656 139.013 151.496 138.98 151.348 138.915C151.2 138.851 151.066 138.756 150.956 138.638C150.846 138.519 150.761 138.379 150.707 138.227C150.653 138.074 150.631 137.912 150.642 137.751C150.631 137.589 150.653 137.427 150.707 137.274C150.761 137.122 150.846 136.982 150.956 136.864C151.066 136.745 151.2 136.651 151.348 136.586C151.496 136.522 151.656 136.488 151.818 136.488C151.979 136.488 152.139 136.522 152.288 136.586C152.436 136.651 152.569 136.745 152.68 136.864C152.79 136.982 152.875 137.122 152.929 137.274C152.983 137.427 153.005 137.589 152.994 137.751Z" fill="white"/>
<path opacity="0.2" d="M156.637 137.765C156.621 137.995 156.539 138.215 156.4 138.398C156.261 138.582 156.072 138.72 155.855 138.797C155.639 138.874 155.404 138.886 155.181 138.831C154.958 138.777 154.755 138.658 154.599 138.49C154.442 138.321 154.338 138.111 154.299 137.884C154.26 137.657 154.289 137.424 154.381 137.213C154.473 137.002 154.624 136.823 154.817 136.697C155.009 136.571 155.234 136.504 155.464 136.505C155.786 136.517 156.091 136.656 156.31 136.892C156.53 137.129 156.648 137.443 156.637 137.765Z" fill="white"/>
<path opacity="0.2" d="M160.279 137.783C160.264 138.014 160.18 138.235 160.04 138.419C159.9 138.603 159.709 138.741 159.491 138.817C159.272 138.893 159.037 138.903 158.813 138.846C158.589 138.789 158.387 138.668 158.231 138.496C158.076 138.325 157.974 138.112 157.939 137.884C157.903 137.655 157.936 137.421 158.032 137.211C158.128 137 158.284 136.823 158.48 136.701C158.676 136.579 158.904 136.517 159.135 136.523C159.452 136.542 159.749 136.685 159.963 136.92C160.177 137.156 160.29 137.465 160.279 137.783Z" fill="white"/>
</g>
<path d="M155.104 55.0813C155.502 54.906 155.839 54.6176 156.074 54.2519C156.309 53.8862 156.431 53.4594 156.426 53.0246C156.441 52.742 156.398 52.4593 156.3 52.1937C156.202 51.9281 156.051 51.6853 155.857 51.48C155.662 51.2747 155.428 51.1112 155.168 50.9994C154.908 50.8877 154.629 50.8301 154.346 50.8301C154.063 50.8301 153.784 50.8877 153.524 50.9994C153.264 51.1112 153.03 51.2747 152.835 51.48C152.641 51.6853 152.49 51.9281 152.392 52.1937C152.294 52.4593 152.252 52.742 152.266 53.0246C152.258 53.4638 152.379 53.8957 152.615 54.2658C152.852 54.6359 153.192 54.9277 153.594 55.1042C150.39 55.5854 150.533 59.0685 150.533 59.0685L158.108 59.1029C158.108 59.1029 158.285 55.5568 155.104 55.0813Z" fill="#00695C"/>
<path opacity="0.1" d="M155.104 55.0813C155.502 54.906 155.839 54.6176 156.074 54.2519C156.309 53.8862 156.431 53.4594 156.426 53.0246C156.441 52.742 156.398 52.4593 156.3 52.1937C156.202 51.9281 156.051 51.6853 155.857 51.48C155.662 51.2747 155.428 51.1112 155.168 50.9994C154.908 50.8877 154.629 50.8301 154.346 50.8301C154.063 50.8301 153.784 50.8877 153.524 50.9994C153.264 51.1112 153.03 51.2747 152.835 51.48C152.641 51.6853 152.49 51.9281 152.392 52.1937C152.294 52.4593 152.252 52.742 152.266 53.0246C152.258 53.4638 152.379 53.8957 152.615 54.2658C152.852 54.6359 153.192 54.9277 153.594 55.1042C150.39 55.5854 150.533 59.0685 150.533 59.0685L158.108 59.1029C158.108 59.1029 158.285 55.5568 155.104 55.0813Z" fill="#101010"/>
<path d="M167.414 61.3473L140.415 61.2246L140.4 64.4556L167.399 64.5783L167.414 61.3473Z" fill="#00695C"/>
<path opacity="0.2" d="M167.414 61.3473L140.415 61.2246L140.4 64.4556L167.399 64.5783L167.414 61.3473Z" fill="white"/>
<path d="M82.3603 36.3965H82.0914L81.3132 36.4538C80.8921 36.4791 80.4734 36.5347 80.0602 36.62C79.7926 36.6576 79.5271 36.7092 79.2649 36.7746L78.3781 37.021C76.8687 37.4847 75.4445 38.1909 74.1613 39.112C72.466 40.3441 71.0503 41.9217 70.0075 43.7409C69.3946 44.7895 68.9068 45.9067 68.5542 47.0693C68.1838 48.3329 67.9705 49.6375 67.9192 50.9534C67.8851 51.6447 67.8965 52.3375 67.9535 53.0273C67.9535 53.3767 68.0508 53.7262 68.0965 54.0814C68.135 54.4394 68.202 54.7938 68.2968 55.1412C68.8113 57.44 69.8552 59.5867 71.3453 61.4099C72.8353 63.233 74.7303 64.6823 76.8791 65.6421C78.4342 66.314 80.1011 66.689 81.7938 66.7478C83.5422 66.8441 85.2923 66.5929 86.9432 66.0088L87.4467 65.8197H87.5154L87.5726 65.8541L94.7874 69.5205L94.5757 69.7038C93.8033 67.3092 93.0595 64.989 92.3386 62.7605V62.6746L92.4015 62.6116C94.1517 60.8465 95.451 58.6848 96.1892 56.3099C96.8577 54.1386 97.0529 51.849 96.7613 49.5957C96.502 47.5932 95.859 45.6597 94.8675 43.9013C94.0129 42.3908 92.9104 41.0351 91.6062 39.8911C90.5303 38.9856 89.3394 38.2266 88.0646 37.6339C87.1 37.2174 86.0955 36.9007 85.0665 36.6887L83.9222 36.4996L83.0926 36.4366L82.5891 36.4023H82.4175C82.4745 36.3959 82.5321 36.3959 82.5891 36.4023H83.0983L83.928 36.4366L85.0723 36.6028C86.114 36.7992 87.1323 37.1045 88.1104 37.5136C89.4071 38.0993 90.6194 38.8565 91.715 39.7651C93.0431 40.904 94.1689 42.2599 95.0449 43.7752C96.0645 45.5525 96.7273 47.5122 96.9959 49.5442C97.3116 51.8322 97.1301 54.1616 96.4638 56.3729C95.7208 58.7972 94.4015 61.0049 92.6189 62.8064L92.6533 62.6574C93.3742 64.8859 94.1237 67.2061 94.9018 69.595L95.0105 69.9445L94.6844 69.7783L87.4696 66.1176H87.5955L87.0805 66.3067C85.3978 66.8995 83.6153 67.1564 81.8339 67.0629C80.1047 66.9969 78.4029 66.6084 76.8161 65.9171C73.7893 64.6191 71.2709 62.3632 69.6471 59.4951C68.8998 58.1705 68.354 56.7416 68.0279 55.2558C67.9385 54.8994 67.8717 54.5378 67.8276 54.173C67.7818 53.8121 67.7075 53.4569 67.6903 53.1017C67.5355 51.0633 67.7506 49.0137 68.3254 47.0521C68.6867 45.8735 69.1881 44.7425 69.8187 43.6836C70.8864 41.8478 72.3315 40.2603 74.0583 39.0261C75.3626 38.1026 76.8107 37.4018 78.3438 36.9522L79.242 36.7231C79.5064 36.6617 79.7738 36.6139 80.0431 36.5798C80.4605 36.5025 80.8832 36.4565 81.3075 36.4424L82.0914 36.4137C82.1805 36.4017 82.2703 36.3959 82.3603 36.3965Z" fill="#00695C"/>
<path d="M85.6192 49.7578H84.5607L82.2721 46.5383V44.4243C82.2721 44.4243 80.6358 44.3212 80.8303 47.0882C81.0248 49.8552 80.8303 49.1506 80.8303 49.1506C80.8303 49.1506 77.3573 49.1506 77.0713 49.4657C76.7852 49.7808 76.768 53.1378 76.728 55.0111C76.7061 55.4627 76.8355 55.9087 77.0957 56.2782C77.3559 56.6477 77.7319 56.9196 78.1641 57.0506C78.2852 57.0842 78.4103 57.1015 78.536 57.1022C79.4056 57.1022 83.8284 56.3975 83.8284 56.3975H85.6535L85.6192 49.7578Z" fill="#00695C"/>
<path d="M88.6492 49.1914L87.997 56.4326H86.189V49.3404L88.6492 49.1914Z" fill="#00695C"/>
<path d="M73.9441 238.304V233.406L65.173 233.343L65.0986 240.75L65.6422 240.79C68.0624 240.945 77.9549 241.174 79.5798 240.67C81.3878 240.108 73.9441 238.304 73.9441 238.304Z" fill="#00695C"/>
<path d="M79.7865 240.212C79.7865 240.293 76.5023 240.361 72.4572 240.361C68.4121 240.361 65.1279 240.293 65.1279 240.212C65.1279 240.132 68.4121 240.063 72.4572 240.063C76.5023 240.063 79.7865 240.132 79.7865 240.212Z" fill="#1E293B"/>
<path d="M74.1009 239.307C74.0265 239.267 74.1009 239.009 74.2783 238.734C74.4557 238.459 74.696 238.345 74.7532 238.402C74.8104 238.459 74.6902 238.677 74.5186 238.912C74.3469 239.147 74.1753 239.347 74.1009 239.307Z" fill="#1E293B"/>
<path d="M74.6602 239.63C74.5801 239.63 74.6202 239.309 74.7918 239.006C74.9635 238.702 75.1923 238.519 75.2553 238.565C75.3182 238.61 75.2152 238.868 75.055 239.138C74.8948 239.407 74.7346 239.659 74.6602 239.63Z" fill="#1E293B"/>
<path d="M67.7723 240.19C67.738 240.19 67.6064 240.087 67.4176 239.869C67.1871 239.589 66.9303 239.332 66.6509 239.101C66.3761 238.881 66.0487 238.737 65.7011 238.683C65.4322 238.649 65.2606 238.683 65.2434 238.649C65.2262 238.614 65.3922 238.494 65.7068 238.471C66.1221 238.462 66.5273 238.6 66.8511 238.861C67.1546 239.108 67.4105 239.409 67.6064 239.749C67.738 240.001 67.8066 240.167 67.7723 240.19Z" fill="#1E293B"/>
<path d="M74.1291 238.383C74.1691 238.452 74.0203 238.624 73.7686 238.715C73.5168 238.807 73.2937 238.772 73.2823 238.715C73.2708 238.658 73.4482 238.538 73.6656 238.457C73.883 238.377 74.0833 238.314 74.1291 238.383Z" fill="#1E293B"/>
<path d="M73.9904 237.911C73.9904 237.997 73.7615 238.066 73.464 238.072C73.1665 238.077 72.9319 238.009 72.9376 237.928C72.9433 237.848 73.1779 237.774 73.464 237.768C73.7501 237.762 73.9789 237.831 73.9904 237.911Z" fill="#1E293B"/>
<path d="M95.5432 238.304V233.406L86.7721 233.343L86.6978 240.676L87.2413 240.716C89.6615 240.87 99.5597 241.174 101.179 240.67C102.987 240.109 95.5432 238.304 95.5432 238.304Z" fill="#00695C"/>
<path d="M101.387 240.227C101.387 240.307 98.1083 240.376 94.0574 240.376C90.0066 240.376 86.7339 240.307 86.7339 240.227C86.7339 240.147 90.0123 240.078 94.0574 240.078C98.1025 240.078 101.387 240.147 101.387 240.227Z" fill="#1E293B"/>
<path d="M95.6991 239.307C95.6304 239.267 95.6991 239.009 95.8764 238.734C96.0538 238.459 96.2941 238.345 96.3513 238.402C96.4086 238.459 96.2884 238.677 96.1167 238.912C95.9451 239.147 95.7734 239.347 95.6991 239.307Z" fill="#1E293B"/>
<path d="M96.26 239.63C96.1857 239.63 96.22 239.309 96.3974 239.006C96.5747 238.702 96.7978 238.519 96.8608 238.565C96.9237 238.61 96.815 238.868 96.6548 239.138C96.4946 239.407 96.3401 239.659 96.26 239.63Z" fill="#1E293B"/>
<path d="M89.3715 240.19C89.3371 240.19 89.2113 240.087 89.0167 239.869C88.7862 239.589 88.5295 239.332 88.25 239.101C87.9752 238.881 87.6478 238.737 87.3002 238.683C87.0371 238.649 86.8597 238.683 86.8425 238.649C86.8254 238.614 86.9913 238.494 87.306 238.471C87.7213 238.462 88.1264 238.6 88.4503 238.861C88.7553 239.107 89.0115 239.408 89.2055 239.749C89.3371 240.001 89.4058 240.167 89.3715 240.19Z" fill="#1E293B"/>
<path d="M95.7282 238.383C95.7682 238.452 95.6195 238.624 95.3677 238.715C95.116 238.807 94.8928 238.772 94.8814 238.715C94.8699 238.658 95.0473 238.538 95.2647 238.457C95.4821 238.377 95.6824 238.314 95.7282 238.383Z" fill="#1E293B"/>
<path d="M95.6013 237.911C95.6013 237.997 95.3725 238.066 95.075 238.072C94.7774 238.077 94.5486 238.009 94.5543 237.928C94.56 237.848 94.7889 237.774 95.075 237.768C95.361 237.762 95.6013 237.831 95.6013 237.911Z" fill="#1E293B"/>
<path d="M127.859 92.8494C127.631 92.6145 127.064 92.7291 127.064 92.7291C127.121 92.3992 127.121 92.0621 127.064 91.7323C126.961 91.4115 126.24 91.4745 126.24 91.4745C126.207 91.2043 126.207 90.9311 126.24 90.661C126.246 90.6011 126.233 90.5409 126.203 90.4886C126.174 90.4363 126.129 90.3945 126.074 90.3688C125.733 90.2296 125.367 90.1632 124.999 90.174C124.558 89.8589 126.343 87.3555 127.007 86.5534C127.671 85.7514 127.55 85.127 126.961 85.127C126.555 85.127 124.472 87.5331 123.831 88.3408C123.191 89.1486 121.491 91.3943 121.434 89.6012C121.377 87.808 120.656 86.456 120.204 86.2269C119.752 85.9977 119.271 86.5362 119.517 87.0346C119.734 87.6009 119.868 88.195 119.918 88.7991C119.98 89.2804 119.959 89.7688 119.855 90.2428C119.665 91.1247 119.407 91.9905 119.083 92.8322H119.037C119.037 92.8322 106.552 104.823 105.648 105.676C104.842 106.444 88.6155 104.765 85.3599 104.422C84.2537 104.259 83.1366 104.183 82.0186 104.192C80.6053 104.255 80.3536 104.456 78.9461 104.473C75.3916 104.513 71.8453 104.825 68.3384 105.407C66.7505 105.677 65.2672 106.379 64.0504 107.436C62.8336 108.492 61.93 109.864 61.4382 111.399C58.1598 121.654 50.7333 145.927 49.423 159.561C48.433 161.359 47.5391 163.208 46.7454 165.101C45.8242 167.61 46.0473 167.696 46.3563 167.754C47.1917 167.908 48.1414 163.405 48.4962 164.494C48.8509 165.582 46.6939 169.862 47.5693 169.988C48.7136 170.148 49.6233 165.405 49.732 165.027C49.8407 164.649 50.4071 164.769 50.3042 165.124C50.1382 165.628 48.5305 170.973 49.6519 171.145C50.2698 171.237 50.3385 170.108 50.3385 170.108C50.3385 170.108 51.4828 164.992 52.0035 165.095C52.5241 165.199 51.9691 168.218 51.7059 169.226C51.4427 170.234 51.8089 170.744 52.3467 170.498C52.7129 170.326 53.5883 167.261 53.8286 166.264C54.0689 165.267 54.6697 162.506 55.4764 164.104C56.2831 165.703 57.5076 166.631 58.0111 166.654C58.1245 166.641 58.2314 166.594 58.3181 166.519C58.4048 166.445 58.4672 166.346 58.4974 166.236C58.5275 166.125 58.524 166.009 58.4873 165.9C58.4506 165.792 58.3824 165.697 58.2914 165.628C57.8583 165.205 57.4867 164.723 57.1872 164.196C56.9203 163.786 56.7266 163.332 56.615 162.855C56.3844 161.905 56.2503 160.934 56.2145 159.957L56.123 159.384C57.4046 153.031 61.095 134.383 66.4217 122.473L68.6073 126.976L69.5571 130.31L63.7326 144.707L88.5754 144.38L84.8679 130.092L89.3707 115.197C94.2397 115.306 106.741 115.49 108.824 114.544C111.444 113.399 124.999 96.258 124.999 96.258C125.882 95.5706 126.728 94.8363 127.533 94.0582C127.533 94.0582 128.357 93.365 127.859 92.8494Z" fill="#FFBE9D"/>
<path d="M62.6393 134.068C63.3602 131.604 67.062 119.425 67.062 119.425C67.062 119.425 68.8815 129.353 68.4009 130.55C67.9588 131.575 67.4365 132.564 66.8389 133.506C62.6393 139.905 63.1886 143.108 63.1886 143.108L88.5635 142.334C88.6207 138.782 86.5209 130.521 86.0861 129.204C85.6513 127.886 87.0988 123.572 87.0988 123.572C87.0988 123.572 89.9596 120.656 89.8566 119.156C89.8022 117.807 89.6357 116.466 89.3588 115.145L104.807 115.718L104.321 105.234L82.1325 103.012C81.3601 105.194 74.3741 104.123 74.3741 104.123C66.8332 104.375 66.364 105.762 63.2286 108.202C60.0932 110.642 54.9038 131.587 54.9038 131.587L62.6393 134.068Z" fill="#00695C"/>
<path d="M77.6419 131.591C77.2022 131.669 76.7543 131.692 76.3088 131.659C75.4792 131.659 74.3406 131.602 73.0876 131.476C71.8346 131.35 70.7017 131.172 69.895 131.012C69.4501 130.955 69.014 130.843 68.5962 130.68C69.0435 130.68 69.4898 130.722 69.9293 130.806C70.7418 130.909 71.8689 131.052 73.1162 131.178C74.3635 131.304 75.4963 131.39 76.3145 131.447C76.7605 131.453 77.205 131.501 77.6419 131.591Z" fill="#1E293B"/>
<path d="M79.3812 129.43C78.9413 129.645 78.4761 129.805 77.9966 129.905C75.7139 130.506 73.3588 130.785 70.9992 130.736C70.5109 130.752 70.0226 130.706 69.5459 130.598C70.0278 130.537 70.5136 130.513 70.9992 130.524C71.8974 130.495 73.1333 130.432 74.495 130.272C75.8567 130.111 77.0697 129.882 77.9279 129.699C78.4046 129.571 78.8905 129.481 79.3812 129.43Z" fill="#1E293B"/>
<path d="M87.9168 119.793C87.9052 120.23 87.8457 120.664 87.7394 121.088C87.5907 121.884 87.3618 122.972 87.07 124.164C86.7782 125.356 86.4978 126.456 86.2461 127.2C86.1449 127.627 85.9951 128.04 85.7998 128.432C85.8317 127.997 85.9123 127.566 86.0401 127.149C86.2575 126.255 86.5036 125.224 86.7782 124.095C87.0528 122.967 87.316 121.936 87.5334 121.042C87.6109 120.612 87.7396 120.192 87.9168 119.793Z" fill="#1E293B"/>
<path d="M62.9077 132.61C61.5841 132.405 60.2778 132.101 58.9999 131.699C57.6942 131.393 56.4129 130.991 55.1665 130.496C56.4895 130.704 57.7956 131.009 59.0743 131.407C60.3803 131.712 61.6617 132.114 62.9077 132.61Z" fill="#1E293B"/>
<path d="M89.6337 115.02C89.4178 115.058 89.1972 115.058 88.9814 115.02C88.3838 114.959 87.797 114.818 87.2364 114.602C86.3004 114.25 85.4483 113.706 84.7349 113.004C84.0215 112.303 83.4626 111.46 83.094 110.529C82.6866 109.505 82.5126 108.403 82.5848 107.304C82.6103 106.397 82.8812 105.514 83.3686 104.749C83.7114 104.233 84.2235 103.854 84.8162 103.677C84.9745 103.634 85.1382 103.612 85.3025 103.614C85.4169 103.614 85.4741 103.614 85.4741 103.614C85.4741 103.614 85.2338 103.614 84.8505 103.769C84.3068 103.97 83.8457 104.347 83.5403 104.84C82.7621 106.066 82.5447 108.306 83.3743 110.397C83.7605 111.383 84.3649 112.269 85.1423 112.987C85.7792 113.574 86.5128 114.047 87.3107 114.385C88.0595 114.681 88.8385 114.894 89.6337 115.02Z" fill="#1E293B"/>
<path d="M102.971 115.513C102.828 113.757 102.782 111.993 102.834 110.231C102.789 108.471 102.843 106.709 102.994 104.955C103.137 106.71 103.183 108.471 103.132 110.231C103.18 111.994 103.126 113.757 102.971 115.513Z" fill="#1E293B"/>
<path d="M81.9859 103.654C82.0488 102.376 82.1804 100.933 82.1804 100.933C82.1804 100.933 85.3387 100.583 85.5275 97.3179C85.7163 94.0525 85.5275 86.5191 85.5275 86.5191L79.806 83.5859L73.4551 88.5872L74.4335 104.914L80.258 105.287C80.7032 105.299 81.1351 105.134 81.459 104.828C81.7829 104.522 81.9724 104.1 81.9859 103.654Z" fill="#FFBE9D"/>
<path d="M82.5492 94.7329C82.5492 94.7329 82.5492 94.7959 82.4977 94.8704C82.4551 94.9244 82.4001 94.9673 82.3373 94.9952C82.2745 95.0232 82.2058 95.0354 82.1373 95.0308C81.7711 95.0308 81.4163 94.6069 81.2905 94.1142C81.2306 93.8754 81.2306 93.6255 81.2905 93.3867C81.3022 93.2824 81.3398 93.1828 81.3997 93.0967C81.4597 93.0107 81.5401 92.941 81.6338 92.894C81.7107 92.8622 81.7971 92.8622 81.8741 92.894C81.9311 92.9224 81.9773 92.9686 82.0057 93.0257C82.0457 93.1231 82.0057 93.1862 82.0057 93.1804C82.0057 93.1747 82.0057 93.1231 81.9484 93.0659C81.9185 93.0248 81.8746 92.9963 81.8249 92.9857C81.7753 92.9751 81.7235 92.9833 81.6795 93.0086C81.6094 93.0511 81.551 93.1106 81.51 93.1817C81.469 93.2529 81.4466 93.3332 81.4449 93.4153C81.3968 93.6284 81.3968 93.8496 81.4449 94.0627C81.5594 94.5095 81.8683 94.8704 82.143 94.9048C82.1967 94.9121 82.2514 94.9082 82.3035 94.8934C82.3557 94.8786 82.4043 94.8533 82.4462 94.8189C82.5149 94.773 82.5378 94.7272 82.5492 94.7329Z" fill="#EB996E"/>
<path d="M87.4877 84.755C87.0471 83.2541 85.4508 82.5093 83.9975 82.0969C81.7833 81.4667 79.3917 81.1917 77.229 81.988C75.0663 82.7843 72.4687 84.1822 72.4687 86.5711C71.1928 86.468 70.4604 87.5851 69.9569 88.9714C69.635 89.8161 69.4421 90.7045 69.3848 91.6067C69.2246 94.7346 68.3492 99.0542 66.3238 101.346C65.1795 102.623 63.5946 103.505 62.9424 105.098C62.3702 106.479 62.6677 108.117 62.1356 109.515C61.6607 110.747 60.6137 111.623 59.847 112.694C59.0659 113.91 58.6063 115.304 58.5112 116.746C58.4161 118.188 58.6887 119.631 59.3035 120.938C59.9226 122.212 60.7944 123.347 61.8656 124.273C62.9368 125.198 64.185 125.896 65.5342 126.323C68.2068 127.137 71.0567 127.165 73.7446 126.403C75.7619 125.921 77.6437 124.986 79.2487 123.671C80.891 122.328 82.0189 120.458 82.4413 118.377C82.8475 116.04 82.1953 113.663 81.7089 111.337C80.187 103.987 80.6218 103.603 82.5443 96.7798C82.59 96.6595 82.6129 96.5335 82.6473 96.4132C82.6816 96.2929 82.6988 96.2356 82.7217 96.1439C82.7763 95.8742 82.805 95.5999 82.8075 95.3247C82.5267 95.4292 82.2219 95.4514 81.929 95.3884C81.6361 95.3255 81.3672 95.1802 81.154 94.9695C80.9402 94.7449 80.7912 94.4665 80.7227 94.1639C80.6542 93.8613 80.6688 93.5458 80.7649 93.2509C80.8999 92.9283 81.101 92.6377 81.3553 92.3979C81.6096 92.1581 81.9114 91.9744 82.241 91.8588C82.8761 91.5952 83.557 91.4578 84.1806 91.1656C85.5023 90.5354 86.4177 89.2292 87.0414 87.8601C87.5541 86.9111 87.7124 85.8103 87.4877 84.755Z" fill="#1E293B"/>
<path d="M82.7816 94.8887C82.9025 95.0675 83.0023 95.2597 83.0791 95.4616C83.2508 95.8225 83.4796 96.3323 83.7314 96.9224L83.7771 97.0313H83.657L83.0848 97.0828C82.6901 97.0828 82.3582 97.1573 81.9692 97.1516C81.9353 97.1439 81.9039 97.1279 81.8779 97.1048C81.8519 97.0818 81.8321 97.0525 81.8204 97.0198C81.8034 96.9677 81.8034 96.9115 81.8204 96.8594C81.8336 96.7822 81.8508 96.7057 81.8719 96.6302L81.9749 96.2235C82.0266 95.9521 82.1072 95.6871 82.2152 95.4329C82.2045 95.7095 82.1642 95.9842 82.095 96.2521L82.0149 96.6589C81.9863 96.7964 81.9348 97.0083 82.0149 96.9911C82.301 96.9911 82.7072 96.9281 83.0848 96.9052L83.657 96.8537L83.5826 96.9797C83.3366 96.4068 83.1306 95.8683 83.0105 95.4959C82.9051 95.3057 82.828 95.1012 82.7816 94.8887Z" fill="#00695C"/>
<path d="M63.1891 143.108L88.564 142.335L99.6065 185.496L97.5754 235.004H84.1584L85.8005 186.55L75.9881 156.502L77.4986 236.923L63.9386 237.124L62.5139 161.532C62.451 159.43 61.7644 154.692 62.0219 152.607L63.1891 143.108Z" fill="#1E293B"/>
<path d="M79.3656 157.114C78.9502 157.14 78.5333 157.115 78.124 157.04C77.3573 156.948 76.3103 156.788 75.1603 156.558C74.0103 156.329 72.9804 156.066 72.2366 155.854C71.839 155.766 71.4544 155.628 71.0923 155.441C71.0923 155.355 72.9575 155.802 75.2461 156.266C77.5347 156.73 79.377 157.028 79.3656 157.114Z" fill="#475569"/>
<path d="M97.438 232.287C97.438 232.367 94.3999 232.436 90.6523 232.436C86.9047 232.436 83.8608 232.367 83.8608 232.287C83.8608 232.206 86.899 232.138 90.6523 232.138C94.4056 232.138 97.438 232.201 97.438 232.287Z" fill="#475569"/>
<path d="M77.3778 234.835C77.3778 234.921 74.4255 234.984 70.7866 234.984C67.1478 234.984 64.2012 234.921 64.2012 234.835C64.2012 234.75 67.1535 234.687 70.7866 234.687C74.4198 234.687 77.3778 234.755 77.3778 234.835Z" fill="#475569"/>
<path d="M75.6277 234.627C75.5476 234.627 75.1929 217.057 74.8324 195.385C74.472 173.713 74.2603 156.131 74.3346 156.131C74.409 156.131 74.7752 173.695 75.1299 195.379C75.4847 217.062 75.7135 234.627 75.6277 234.627Z" fill="#475569"/>
<path d="M95.637 232.288C95.6307 232.21 95.6307 232.131 95.637 232.053V231.366C95.637 230.747 95.6828 229.859 95.7171 228.73C95.7972 226.439 95.9116 223.11 96.0547 219.031C96.3636 210.828 96.7985 199.519 97.2733 187.036C97.2733 186.916 97.2733 186.801 97.2733 186.698V186.738C94.2695 174.708 91.5518 163.788 89.5779 155.888L87.2893 146.545C87.0261 145.451 86.8258 144.597 86.6828 144.001C86.6142 143.72 86.5684 143.503 86.5283 143.337C86.506 143.262 86.4926 143.185 86.4883 143.107C86.518 143.18 86.541 143.254 86.5569 143.331C86.6027 143.491 86.6599 143.709 86.74 143.984C86.8945 144.557 87.1176 145.428 87.4037 146.516C87.9759 148.727 88.7826 151.913 89.7896 155.837C91.7807 163.731 94.527 174.622 97.5709 186.669V186.709C97.5709 186.813 97.5709 186.933 97.5709 187.047C97.0617 199.53 96.5982 210.833 96.2606 219.037C96.0833 223.122 95.9345 226.427 95.8315 228.73C95.7743 229.876 95.7285 230.747 95.6999 231.366C95.6999 231.658 95.6656 231.887 95.6599 232.053C95.6607 232.132 95.6531 232.211 95.637 232.288Z" fill="#475569"/>
<path d="M91.2585 185.692C90.2948 186.01 89.302 186.23 88.2947 186.351C87.0589 186.563 86.0061 186.712 85.5312 186.735V186.62C85.6857 186.666 85.7658 186.695 85.7658 186.718C85.7658 186.741 85.6685 186.718 85.5083 186.718H85.165L85.5083 186.615C85.9546 186.483 87.0074 186.265 88.2432 186.042C89.2344 185.827 90.2444 185.709 91.2585 185.692Z" fill="#475569"/>
<path d="M91.0253 187.338C90.1329 187.379 89.2386 187.338 88.3534 187.217C87.4597 187.199 86.5693 187.101 85.6929 186.925C87.481 186.779 89.2809 186.918 91.0253 187.338Z" fill="#475569"/>
<path opacity="0.2" d="M63.082 144.019C63.3826 144.406 63.7611 144.724 64.1929 144.954C64.6247 145.184 65.1001 145.32 65.5881 145.354C66.61 145.475 67.6438 145.456 68.6605 145.297C75.2117 144.569 82.1519 143.899 88.5657 142.335C80.2638 142.799 71.4927 142.644 63.1907 143.108L63.1049 143.819" fill="#101010"/>
<g opacity="0.2">
<path opacity="0.2" d="M71.6353 155.735L76.3154 173.919L75.9893 156.503L71.6353 155.735Z" fill="#101010"/>
</g>
</svg>
