<svg width="89" height="50" viewBox="0 0 89 50" fill="none" xmlns="http://www.w3.org/2000/svg">
<g opacity="0.4">
<path d="M51.4699 4.65625H38.5301C28.8481 4.65625 21 12.491 21 22.1567V27.8433C21 37.509 28.8481 45.3438 38.5301 45.3438H51.4699C61.1519 45.3438 69 37.509 69 27.8433V22.1567C69 12.491 61.1519 4.65625 51.4699 4.65625ZM63.8938 29.9856C63.8938 36.8253 58.3395 42.3703 51.4882 42.3703H38.5118C31.6604 42.3703 26.1061 36.8254 26.1061 29.9856V20.0144C26.1061 13.1747 31.6604 7.62972 38.5118 7.62972H51.4882C58.3395 7.62972 63.8938 13.1746 63.8938 20.0144V29.9856Z" fill="#00695C"/>
<path d="M38.5116 7.62891H36.0971C29.2457 7.62891 23.6914 13.1737 23.6914 20.0136V29.9848C23.6914 36.8245 29.2457 42.3695 36.0971 42.3695H38.5116C31.6603 42.3695 26.1059 36.8246 26.1059 29.9848V20.0136C26.106 13.1737 31.6603 7.62891 38.5116 7.62891Z" fill="#00695C"/>
<path d="M51.4731 4.65625H49.0586C58.7407 4.65625 66.5887 12.491 66.5887 22.1567V27.8433C66.5887 37.509 58.7407 45.3438 49.0586 45.3438H51.4731C61.1552 45.3438 69.0032 37.509 69.0032 27.8433V22.1567C69.0032 12.491 61.1552 4.65625 51.4731 4.65625Z" fill="#00695C"/>
<path d="M65.0317 16.8547C64.9873 18.3819 64.6464 19.9573 63.6516 20.963C63.2527 21.3669 62.6975 21.7083 62.0242 22.011C59.1297 23.3165 54.0613 23.9277 49.9306 25.9457C47.6046 27.0897 46.0344 30.8496 45.3659 32.7609C45.245 33.1065 44.7575 33.1065 44.6365 32.7609C43.968 30.8496 42.3978 27.0897 40.0718 25.9457C34.9811 23.4592 28.4659 23.1082 26.3508 20.9629C25.356 19.9572 25.0151 18.3819 24.9707 16.8546C24.9231 15.2874 25.1774 13.7622 25.3526 12.9179C25.4135 12.6249 25.7689 12.5099 25.9906 12.7109C26.9027 13.5374 29.1645 15.3397 33.2426 17.1669C38.4363 19.5076 43.6377 22.3069 44.8199 27.0514C44.8671 27.2409 45.1352 27.2409 45.1824 27.0514C46.3647 22.307 51.5661 19.5076 56.7597 17.1669C58.6855 16.3041 60.2057 15.4469 61.3704 14.6949C62.674 13.8546 63.532 13.146 64.0132 12.7098C64.2344 12.5093 64.589 12.6248 64.6496 12.9172C64.8248 13.7614 65.0793 15.2871 65.0317 16.8547Z" fill="#00695C"/>
<path d="M65.0324 16.8578C64.988 18.385 64.6471 19.9605 63.6523 20.9661C63.2534 21.3701 62.6981 21.7115 62.0249 22.0142C62.6237 19.2046 62.1437 17.4055 61.9322 16.4548C61.8192 15.9516 61.5932 15.2891 61.3711 14.6981C62.6738 13.8584 63.5316 13.1502 64.0129 12.7139C64.2344 12.5131 64.5897 12.6286 64.6504 12.9211C64.8256 13.7654 65.0799 15.2906 65.0324 16.8578Z" fill="#00695C"/>
<path d="M65.0299 16.8547C64.1713 17.3984 63.2432 17.9104 62.2687 18.3915C59.52 19.751 56.4043 20.8627 53.4596 21.7323C47.8369 23.3941 45.7406 27.5013 45.1732 28.9085C45.1099 29.0654 44.8887 29.0654 44.8254 28.9085C44.258 27.5013 42.1617 23.394 36.539 21.7323C32.5512 20.5551 28.2486 18.9324 24.9687 16.8546C24.9211 15.2875 25.1754 13.7622 25.3507 12.9179C25.4115 12.6249 25.7669 12.5099 25.9886 12.7109C26.9007 13.5374 29.1625 15.3397 33.2407 17.167C38.4343 19.5076 43.6358 22.3069 44.8179 27.0514C44.8652 27.2409 45.1332 27.2409 45.1805 27.0514C46.3628 22.307 51.5641 19.5076 56.7578 17.167C58.6836 16.3041 60.2037 15.4469 61.3685 14.6949C62.6721 13.8546 63.5301 13.146 64.0112 12.7098C64.2324 12.5093 64.587 12.6248 64.6477 12.9172C64.823 13.7614 65.0774 15.2871 65.0299 16.8547Z" fill="#00695C"/>
<path d="M65.0324 16.8578C64.1739 17.4016 63.2457 17.9135 62.2712 18.3947C62.193 17.5462 62.0327 16.9051 61.9322 16.4548C61.8192 15.9515 61.5932 15.2891 61.3711 14.6981C62.6738 13.8584 63.5316 13.1502 64.0129 12.7139C64.2344 12.5131 64.5897 12.6286 64.6504 12.9211C64.8256 13.7654 65.0799 15.2906 65.0324 16.8578Z" fill="#00695C"/>
</g>
</svg>
