<svg width="89" height="50" viewBox="0 0 89 50" fill="none" xmlns="http://www.w3.org/2000/svg">
<g opacity="0.4">
<path d="M45 1C31.7503 1 21 11.7438 21 24.9963C21 38.2563 31.7503 49 45 49C58.2497 49 69 38.2563 69 24.9963C69 11.7438 58.2497 1 45 1ZM45 45.6213C33.63 45.6213 24.3806 36.37 24.3806 24.9991C24.3806 13.6272 33.63 4.37594 45 4.37594C56.3691 4.37594 65.6194 13.6272 65.6194 24.9991C65.6194 36.37 56.3691 45.6213 45 45.6213Z" fill="#00695C"/>
<path d="M45.0009 1C44.4325 1 43.8691 1.02119 43.3105 1.06009C55.7722 1.92784 65.6202 12.3123 65.6202 24.9963C65.6202 37.6875 55.7721 48.0722 43.3105 48.9399C43.8691 48.9788 44.4325 49 45.0009 49C58.2505 49 69.0009 38.2563 69.0009 24.9963C69.0009 11.7438 58.2505 1 45.0009 1Z" fill="#00695C"/>
<path d="M63.1327 35.1803C63.1318 35.1822 63.1309 35.1842 63.1298 35.186L63.1289 35.1879C63.1222 35.1993 63.1108 35.207 63.0974 35.2118H63.0965L62.8864 35.1316L45.1987 28.4335C45.0704 28.3849 44.9287 28.3849 44.8004 28.4335L27.1155 35.1297L26.9015 35.2109C26.8892 35.2061 26.8787 35.1985 26.8719 35.1879L26.871 35.186C26.8691 35.1842 26.8681 35.1822 26.8681 35.1794C26.8605 35.165 26.8594 35.1488 26.8642 35.1306L27.019 34.9902L40.7794 22.5674C40.8661 22.4891 40.9263 22.3857 40.9516 22.2716L44.8954 4.48563L44.904 4.44841L44.9288 4.33281C44.9403 4.31181 44.9555 4.29559 44.9728 4.28791C44.9805 4.28313 44.989 4.28125 44.9986 4.28125H45.0004C45.0081 4.28125 45.0167 4.28313 45.0244 4.28697C45.0425 4.29559 45.0588 4.31275 45.0702 4.33666C45.0711 4.33666 45.0711 4.33759 45.0711 4.33853L45.095 4.44644L45.1037 4.48656L49.0465 22.2716C49.0718 22.3857 49.132 22.4891 49.2187 22.5674L62.978 34.9893C62.979 34.9883 62.979 34.9893 62.9799 34.9902L63.1375 35.1325C63.1375 35.1334 63.1375 35.1334 63.1375 35.1334C63.1414 35.1507 63.1404 35.1669 63.1327 35.1803Z" fill="#00695C"/>
<path d="M44.9995 4.28134V23.9876L27.1413 35.0113L26.8681 35.1794C26.8605 35.165 26.8594 35.1488 26.8642 35.1306L27.019 34.9902L40.7794 22.5674C40.8661 22.4891 40.9263 22.3857 40.9516 22.2716L44.8954 4.48563L44.904 4.44841L44.9288 4.33281C44.9403 4.31181 44.9555 4.29559 44.9728 4.28791C44.9805 4.28313 44.989 4.28125 44.9986 4.28125L44.9995 4.28134Z" fill="#00695C"/>
<path d="M63.1342 35.185L62.861 35.016L45.002 23.9924V4.28613C45.0096 4.28613 45.0182 4.28801 45.0259 4.29185C45.044 4.30048 45.0603 4.31763 45.0717 4.34154C45.0726 4.34154 45.0726 4.34248 45.0726 4.34341C45.0726 4.34341 45.0736 4.34341 45.0736 4.34435L45.0965 4.44748L45.106 4.49041L49.0498 22.2764C49.0751 22.3905 49.1353 22.4938 49.222 22.5722L62.9813 34.995L63.1389 35.1364C63.138 35.1373 63.1389 35.1373 63.1389 35.1373C63.1389 35.1382 63.1389 35.1382 63.1389 35.1382C63.1429 35.1554 63.1419 35.1716 63.1342 35.185Z" fill="#00695C"/>
</g>
</svg>
