<svg width="60" height="60" viewBox="0 0 60 60" fill="none" xmlns="http://www.w3.org/2000/svg">
<rect width="60" height="60" rx="30" fill="#00695C"/>
<path d="M41.5625 29.458C41.5623 23.4107 36.4244 18.4375 30 18.4375C23.5755 18.4375 18.4377 23.4107 18.4375 29.458C18.4375 32.3692 19.6209 35.0204 21.5662 36.9958L21.7834 37.2375C22.2755 37.835 22.6445 38.6698 22.4683 39.6045V39.6069C22.3384 40.2887 22.1133 40.9442 21.8091 41.5588C22.9276 41.5331 24.0351 41.2458 25.0281 40.7178L25.73 40.3552C25.9103 40.2696 26.1359 40.1727 26.3794 40.1355L26.5552 40.1184C26.7291 40.1104 26.8947 40.1267 27.0386 40.1465C27.2355 40.1735 27.4777 40.2201 27.7551 40.2722L28.3118 40.3625C28.8705 40.4407 29.4341 40.4805 29.9988 40.4797H30L30.5981 40.4651C36.7405 40.1678 41.5625 35.3166 41.5625 29.458ZM43.4375 29.458C43.4375 36.6185 37.3809 42.3535 30 42.3535C29.3476 42.3544 28.6967 42.3095 28.0518 42.2192L27.4084 42.1143C27.1121 42.0585 26.9235 42.0236 26.7834 42.0044C26.7274 41.9967 26.6913 41.9899 26.6699 41.9885C26.703 41.9827 26.6784 41.98 26.5344 42.0483L25.9094 42.373C24.1198 43.3248 22.0309 43.6619 20.0171 43.2874C19.6921 43.2267 19.4231 42.9995 19.3091 42.6892C19.1951 42.3788 19.2531 42.0315 19.4617 41.7749C20.0466 41.0554 20.4485 40.1883 20.6262 39.2554C20.6678 39.0311 20.5893 38.7373 20.3455 38.4399L20.2307 38.3118C17.9622 36.0082 16.5625 32.8926 16.5625 29.458C16.5627 22.2978 22.6192 16.5625 30 16.5625C37.3808 16.5625 43.4373 22.2978 43.4375 29.458Z" fill="white"/>
<path d="M25.011 28.75L25.1392 28.7561C25.7694 28.8202 26.261 29.3528 26.261 30C26.261 30.6472 25.7694 31.1798 25.1392 31.2439L25.011 31.25H25C24.3096 31.25 23.75 30.6904 23.75 30C23.75 29.3096 24.3096 28.75 25 28.75H25.011ZM30.0061 28.75L30.1331 28.7561C30.7636 28.8199 31.2561 29.3527 31.2561 30C31.2561 30.6473 30.7636 31.1801 30.1331 31.2439L30.0061 31.25H29.9939C29.3038 31.2497 28.7439 30.6902 28.7439 30C28.7439 29.3098 29.3038 28.7503 29.9939 28.75H30.0061ZM35 28.75C35.6904 28.75 36.25 29.3096 36.25 30C36.25 30.6904 35.6904 31.25 35 31.25H34.989C34.2987 31.25 33.739 30.6904 33.739 30C33.739 29.3096 34.2987 28.75 34.989 28.75H35Z" fill="white"/>
</svg>
