<svg width="60" height="36" viewBox="0 0 60 36" fill="none" xmlns="http://www.w3.org/2000/svg">
<path d="M53.195 17.015L49.9769 9.932C49.1679 8.151 47.3809 7 45.4248 7H39.0007V5C39.0007 3.346 37.6547 2 36.0006 2H9.00006C7.34603 2 6 3.346 6 5V27C6 28.654 7.34603 30 9.00006 30H11.0511C11.3031 32.244 13.1902 34 15.5002 34C17.8102 34 19.6973 32.244 19.9493 30H40.0507C40.3027 32.244 42.1898 34 44.4998 34C46.8099 34 48.6969 32.244 48.9489 30H50.9999C52.654 30 54 28.654 54 27V20.738C54 19.445 53.73 18.192 53.195 17.015ZM50.9909 16.999H45.0008V12.999H49.1739L50.9909 16.999ZM45.4248 8.999C46.5988 8.999 47.6709 9.689 48.1559 10.758L48.2649 10.999H45.0008C43.8978 10.999 43.0008 11.896 43.0008 12.999V16.999C43.0008 18.102 43.8978 18.999 45.0008 18.999H51.773C51.918 19.564 52.001 20.144 52.001 20.737V23.999H39.0007V8.999H45.4248ZM40.2767 27.999H39.0007V25.999H41.7067C41.0587 26.517 40.5607 27.203 40.2767 27.999ZM18.2943 25.999H37.0006V27.999H19.7243C19.4403 27.203 18.9423 26.517 18.2943 25.999ZM9.00006 3.999H36.0006C36.5516 3.999 37.0006 4.448 37.0006 4.999V23.999H8.00004V4.999C8.00004 4.448 8.44905 3.999 9.00006 3.999ZM11.2761 27.999H9.00006C8.44905 27.999 8.00004 27.55 8.00004 26.999V25.999H12.7061C12.0581 26.517 11.5601 27.203 11.2761 27.999ZM15.5002 31.999C14.1222 31.999 13.0001 30.877 13.0001 29.499C13.0001 28.121 14.1222 26.999 15.5002 26.999C16.8782 26.999 18.0002 28.121 18.0002 29.499C18.0002 30.877 16.8782 31.999 15.5002 31.999ZM44.5008 31.999C43.1228 31.999 42.0008 30.877 42.0008 29.499C42.0008 28.121 43.1228 26.999 44.5008 26.999C45.8788 26.999 47.0009 28.121 47.0009 29.499C47.0009 30.877 45.8788 31.999 44.5008 31.999ZM51.0009 27.999H48.7249C48.4409 27.203 47.9429 26.517 47.2949 25.999H52.001V26.999C52.001 27.55 51.5519 27.999 51.0009 27.999Z" fill="#00695C"/>
</svg>
