<svg width="89" height="50" viewBox="0 0 89 50" fill="none" xmlns="http://www.w3.org/2000/svg">
<g opacity="0.4">
<path d="M44.9988 3.24609C32.9855 3.24609 23.2461 12.9845 23.2461 24.9988C23.2461 37.0121 32.9855 46.7514 44.9988 46.7514C57.013 46.7514 66.7514 37.0121 66.7514 24.9988C66.7515 12.9844 57.0131 3.24609 44.9988 3.24609ZM44.9988 41.9175C35.6547 41.9175 28.08 34.3428 28.08 24.9988C28.08 15.6547 35.6548 8.08012 44.9988 8.08012C54.3427 8.08012 61.9175 15.6549 61.9175 24.9988C61.9175 34.3428 54.3428 41.9175 44.9988 41.9175Z" fill="#00695C"/>
<path d="M43.7913 8.12251C43.3921 8.09429 42.9893 8.0791 42.5828 8.0791C33.2388 8.0791 25.6641 15.6539 25.6641 24.9979C25.6641 34.3419 33.2388 41.9166 42.5828 41.9166C42.9893 41.9166 43.3921 41.9013 43.7913 41.8732C35.0115 41.2534 28.081 33.9354 28.081 24.9979C28.0811 16.0603 35.0115 8.74219 43.7913 8.12251Z" fill="#00695C"/>
<path d="M44.9994 3.24609C44.5938 3.24609 44.1911 3.25809 43.791 3.28003C55.243 3.90722 64.3353 13.3902 64.3353 24.9988C64.3353 36.6065 55.2431 46.0904 43.7911 46.7175C44.1912 46.7394 44.594 46.7514 44.9995 46.7514C57.0138 46.7514 66.7522 37.0121 66.7522 24.9988C66.7522 12.9844 57.0138 3.24609 44.9994 3.24609Z" fill="#00695C"/>
<path d="M68.6245 31.4675H21.3755C21.1682 31.4675 21 31.2994 21 31.092V18.9038C21 18.6965 21.1681 18.5283 21.3755 18.5283H68.6246C68.8319 18.5283 69 18.6964 69 18.9038V31.092C68.9999 31.2994 68.8319 31.4675 68.6245 31.4675Z" fill="#00695C"/>
<path d="M68.625 31.4703H66.5859V18.5312H68.625C68.8323 18.5312 69.0004 18.6993 69.0004 18.9067V31.095C69.0004 31.3022 68.8324 31.4703 68.625 31.4703Z" fill="#00695C"/>
<path d="M30.0259 20.6982C29.6375 20.6982 29.3227 21.0137 29.3227 21.4029V26.4814L25.1947 20.9795C25.0132 20.7371 24.697 20.6387 24.4101 20.7346C24.1232 20.8306 23.9297 21.0998 23.9297 21.403V28.5912C23.9297 28.9805 24.2444 29.2958 24.6328 29.2958C25.0212 29.2958 25.3359 28.9804 25.3359 28.5912V23.5127L29.4639 29.0146C29.5992 29.1951 29.8091 29.2958 30.026 29.2958C30.1003 29.2958 30.1754 29.284 30.2486 29.2595C30.5355 29.1635 30.7291 28.8943 30.7291 28.5911V21.4029C30.729 21.0137 30.4143 20.6982 30.0259 20.6982Z" fill="#00695C"/>
<path d="M65.3697 20.6982C64.9813 20.6982 64.6666 21.0137 64.6666 21.4029V26.4814L60.5386 20.9795C60.3569 20.7371 60.0408 20.6387 59.7539 20.7346C59.467 20.8306 59.2734 21.0998 59.2734 21.403V28.5912C59.2734 28.9805 59.5882 29.2958 59.9766 29.2958C60.365 29.2958 60.6797 28.9804 60.6797 28.5912V23.5127L64.8077 29.0146C64.943 29.1951 65.1529 29.2958 65.3697 29.2958C65.4441 29.2958 65.5191 29.284 65.5924 29.2595C65.8792 29.1635 66.0728 28.8943 66.0728 28.5911V21.4029C66.0728 21.0137 65.7581 20.6982 65.3697 20.6982Z" fill="#00695C"/>
<path d="M33.127 20.6982C32.7385 20.6982 32.4238 21.0137 32.4238 21.4029V28.5911C32.4238 28.9804 32.7385 29.2958 33.127 29.2958C33.5154 29.2958 33.8301 28.9803 33.8301 28.5911V21.4029C33.8301 21.0137 33.5154 20.6982 33.127 20.6982Z" fill="#00695C"/>
<path d="M38.0394 22.1085H41.6392C42.0276 22.1085 42.3424 21.793 42.3424 21.4038C42.3424 21.0147 42.0276 20.6992 41.6392 20.6992H38.0394C36.6629 20.6992 35.5431 21.8215 35.5431 23.2009C35.5431 24.5805 36.663 25.7026 38.0394 25.7026H39.846C40.447 25.7026 40.9359 26.1927 40.9359 26.795C40.9359 27.3974 40.4469 27.8874 39.846 27.8874H36.2461C35.8577 27.8874 35.543 28.2028 35.543 28.592C35.543 28.9812 35.8577 29.2966 36.2461 29.2966H39.846C41.2225 29.2966 42.3423 28.1744 42.3423 26.795C42.3423 25.4156 41.2224 24.2934 39.846 24.2934H38.0394C37.4383 24.2934 36.9494 23.8033 36.9494 23.201C36.9494 22.5984 37.4383 22.1085 38.0394 22.1085Z" fill="#00695C"/>
<path d="M45.9789 22.1085H49.5787C49.9671 22.1085 50.2818 21.793 50.2818 21.4038C50.2818 21.0147 49.9671 20.6992 49.5787 20.6992H45.9789C44.6024 20.6992 43.4825 21.8215 43.4825 23.2009C43.4825 24.5805 44.6024 25.7026 45.9789 25.7026H47.7854C48.3865 25.7026 48.8754 26.1927 48.8754 26.795C48.8754 27.3974 48.3864 27.8874 47.7854 27.8874H44.1855C43.7971 27.8874 43.4824 28.2028 43.4824 28.592C43.4824 28.9812 43.7971 29.2966 44.1855 29.2966H47.7854C49.162 29.2966 50.2817 28.1744 50.2817 26.795C50.2817 25.4156 49.1619 24.2934 47.7854 24.2934H45.9789C45.3778 24.2934 44.8889 23.8033 44.8889 23.201C44.8887 22.5984 45.3778 22.1085 45.9789 22.1085Z" fill="#00695C"/>
<path d="M54.8196 20.6982C52.9449 20.6982 51.4199 22.2266 51.4199 24.1052V28.5911C51.4199 28.9804 51.7346 29.2958 52.123 29.2958C52.5115 29.2958 52.8262 28.9803 52.8262 28.5911V25.7017H56.8129V28.5911C56.8129 28.9804 57.1276 29.2958 57.516 29.2958C57.9044 29.2958 58.2191 28.9803 58.2191 28.5911V24.1052C58.2191 22.2266 56.6941 20.6982 54.8196 20.6982ZM52.8262 24.2924V24.1053C52.8262 23.0038 53.7204 22.1076 54.8196 22.1076C55.9187 22.1076 56.813 23.0037 56.813 24.1053V24.2924H52.8262Z" fill="#00695C"/>
</g>
</svg>
