<svg width="89" height="50" viewBox="0 0 89 50" fill="none" xmlns="http://www.w3.org/2000/svg">
<g opacity="0.4">
<path d="M45 4.1875C33.5048 4.1875 24.1875 13.5057 24.1875 25C24.1875 36.4943 33.5048 45.8125 45 45.8125C56.4943 45.8125 65.8125 36.4943 65.8125 25C65.8125 13.5057 56.4943 4.1875 45 4.1875ZM45 41.9404C35.6586 41.9404 28.0596 34.3414 28.0596 25C28.0596 15.6586 35.6586 8.05956 45 8.05956C54.3405 8.05956 61.9404 15.6586 61.9404 25C61.9404 34.3414 54.3405 41.9404 45 41.9404Z" fill="#00695C"/>
<path d="M45 4.1875C33.5048 4.1875 24.1875 13.5057 24.1875 25C24.1875 36.4943 33.5048 45.8125 45 45.8125C56.4943 45.8125 65.8125 36.4943 65.8125 25C65.8125 13.5057 56.4943 4.1875 45 4.1875ZM45 41.9404C35.6586 41.9404 28.0596 34.3414 28.0596 25C28.0596 15.6586 35.6586 8.05956 45 8.05956C54.3405 8.05956 61.9404 15.6586 61.9404 25C61.9404 34.3414 54.3405 41.9404 45 41.9404Z" fill="#00695C"/>
<path d="M45.001 4.1875C44.5947 4.1875 44.1915 4.20044 43.791 4.22341C54.722 4.85022 63.3935 13.912 63.3935 25C63.3935 36.088 54.722 45.1498 43.791 45.7766C44.1915 45.7996 44.5947 45.8125 45.001 45.8125C56.4954 45.8125 65.8136 36.4943 65.8136 25C65.8136 13.5057 56.4954 4.1875 45.001 4.1875Z" fill="#00695C"/>
<path d="M68.99 26.4559L68.4509 28.7735C68.4096 28.9478 68.2531 29.0716 68.0721 29.0716H35.4587C35.3002 29.0716 35.168 28.9628 35.1324 28.8147C35.1259 28.7894 35.123 28.7631 35.123 28.736C35.123 28.6441 35.1605 28.5597 35.2215 28.4997C35.2309 28.4894 35.2421 28.48 35.2534 28.4716L39.9314 24.5081C40.0632 24.3964 39.9866 24.1809 39.8138 24.1775L21.3814 23.8216C21.1114 23.8169 20.9285 23.5469 21.027 23.2975L22.0217 20.7831C22.0798 20.6369 22.2214 20.5403 22.3798 20.5384L48.9933 20.2497L54.0294 20.1953C54.1757 20.1953 54.2994 20.2881 54.3454 20.4175C54.3585 20.4522 54.3651 20.4906 54.3651 20.53C54.3651 20.6181 54.3313 20.6978 54.276 20.7569L54.2432 20.7888C54.2422 20.7897 54.2413 20.7906 54.2404 20.7906L49.5303 25.2739C49.409 25.3893 49.4883 25.5937 49.6557 25.5971L68.6196 25.9853C68.8653 25.9909 69.0453 26.2188 68.99 26.4559Z" fill="#00695C"/>
<path d="M54.3454 20.4175L53.7332 20.6856L35.7371 28.5513L35.1324 28.8147C35.1259 28.7894 35.123 28.7631 35.123 28.736C35.123 28.6441 35.1605 28.5597 35.2215 28.4997C35.2309 28.4894 35.2421 28.48 35.2534 28.4716L39.9315 24.5078C39.9971 24.4525 40.0112 24.3709 39.9868 24.3025L48.9933 20.2497L54.0294 20.1953C54.1757 20.1953 54.2994 20.2881 54.3454 20.4175Z" fill="#00695C"/>
<path d="M54.3654 20.5344C54.3654 20.6225 54.3317 20.7022 54.2764 20.7612L54.2436 20.7931C54.2426 20.7941 54.2417 20.795 54.2408 20.795L49.5308 25.2781C49.4708 25.3353 49.4595 25.4141 49.4839 25.4797L43.7952 29.0759H35.4591C35.3006 29.0759 35.1684 28.9672 35.1328 28.8191L35.7375 28.5556L53.7336 20.69L54.3458 20.4219C54.3589 20.4566 54.3654 20.495 54.3654 20.5344Z" fill="#00695C"/>
</g>
</svg>
