<svg width="60" height="60" viewBox="0 0 60 60" fill="none" xmlns="http://www.w3.org/2000/svg">
<rect width="60" height="60" rx="30" fill="#00695C"/>
<path d="M35.7312 25.06C35.895 25.1063 35.9903 25.2766 35.944 25.4404C35.9061 25.5744 35.7832 25.6664 35.644 25.6648H18.6604L19.3408 22.9259C19.6737 21.584 21.0315 20.766 22.3734 21.0989C22.4105 21.1081 22.4474 21.1181 22.484 21.129L35.7312 25.06ZM40.6597 24.1151L29.1279 16.1949C27.9909 15.4083 26.4314 15.6923 25.6448 16.8294C25.6206 16.8644 25.5972 16.9001 25.5748 16.9363L24.0832 19.3321H24.1181L40.4009 24.6036C40.5591 24.631 40.7096 24.5249 40.737 24.3667C40.7528 24.2753 40.7241 24.1818 40.6597 24.1151ZM30.0002 39.3711C31.81 39.3711 33.2771 37.904 33.2771 36.0943C33.2771 34.2845 31.81 32.8174 30.0002 32.8174C28.1904 32.8174 26.7233 34.2845 26.7233 36.0943C26.7233 37.904 28.1904 39.3711 30.0002 39.3711ZM17.2822 30.4129C17.2822 29.0447 18.3913 27.9356 19.7595 27.9356H40.2439C41.612 27.9356 42.7212 29.0447 42.7212 30.4129V41.7728C42.7212 43.1409 41.612 44.25 40.2439 44.25H19.7566C18.3884 44.25 17.2793 43.1409 17.2793 41.7728L17.2822 30.4129ZM20.1142 37.5306C20.1116 37.7952 20.2812 38.0307 20.5329 38.1121C22.044 38.6088 23.1853 39.8594 23.5424 41.4093H36.4581C36.848 39.705 38.1809 38.3755 39.8862 37.99V34.2102C38.1769 33.8224 36.843 32.4862 36.4581 30.7763H23.5424C23.1864 32.3249 22.0475 33.5751 20.5388 34.0735C20.2847 34.1528 20.1124 34.3889 20.1142 34.655V37.5306Z" fill="white"/>
</svg>
