<svg width="89" height="50" viewBox="0 0 89 50" fill="none" xmlns="http://www.w3.org/2000/svg">
<g opacity="0.4">
<path d="M64.6377 24.8134L51.1207 1.18844C51.0544 1.07219 50.9299 1 50.7961 1H39.2041C39.0703 1 38.9458 1.07219 38.8793 1.18844L25.3624 24.8134C25.2959 24.9287 25.2959 25.0712 25.3624 25.1866L38.8793 48.8116C38.8878 48.8256 38.8962 48.8397 38.9055 48.8519C38.9055 48.8528 38.9064 48.8528 38.9064 48.8528C38.9363 48.8922 38.9738 48.9241 39.015 48.9484C39.0589 48.9747 39.1076 48.9906 39.1591 48.9963C39.1741 48.9991 39.189 49 39.204 49H50.7961C50.9299 49 51.0544 48.9278 51.1207 48.8116L64.6377 25.1866C64.7042 25.0712 64.7042 24.9287 64.6377 24.8134ZM38.2299 25.1772C38.1709 25.0666 38.1709 24.9334 38.2299 24.8228L45.0001 12.2059L51.7702 24.8228C51.8292 24.9334 51.8292 25.0666 51.7702 25.1772L45.0001 37.7941L38.2299 25.1772Z" fill="#00695C"/>
<path d="M50.7964 1H48.6055L62.3369 25L48.6055 49H50.7964C50.9306 49 51.0544 48.9281 51.1212 48.8115L64.638 25.1865C64.7041 25.071 64.7041 24.929 64.638 24.8135L51.1212 1.18853C51.0544 1.07191 50.9306 1 50.7964 1Z" fill="#00695C"/>
<path d="M50.7906 1.41438L49.8483 3.17125L46.2045 9.9625L45.0002 12.2059L38.23 24.8228C38.1701 24.9334 38.1701 25.0666 38.23 25.1772L45.0002 37.7941L43.7958 40.0375L40.0285 47.0594V47.0603L39.2228 48.5612L39.0151 48.9484L39.0038 48.9681C38.9739 48.9503 38.9486 48.9259 38.9289 48.8978C38.9252 48.8913 38.9214 48.8856 38.9177 48.8791L38.8793 48.8116L25.3624 25.1866C25.2959 25.0712 25.2959 24.9287 25.3624 24.8134L38.8793 1.18844C38.9458 1.07219 39.0702 1 39.2041 1H50.5435C50.7559 1 50.8917 1.22688 50.7906 1.41438Z" fill="#00695C"/>
<path d="M50.7906 1.41438L49.8483 3.17125L46.2045 9.9625L45.0002 12.2059L38.23 24.8228C38.1701 24.9334 38.1701 25.0666 38.23 25.1772L45.0002 37.7941L43.7958 40.0375L40.0285 47.0594V47.0603L39.2228 48.5612L39.0151 48.9484L39.0038 48.9681C38.9739 48.9503 38.9486 48.9259 38.9289 48.8978C38.9252 48.8913 38.9214 48.8856 38.9177 48.8791L38.8793 48.8116L25.3624 25.1866C25.2959 25.0712 25.2959 24.9287 25.3624 24.8134L38.8793 1.18844C38.9458 1.07219 39.0702 1 39.2041 1H50.5435C50.7559 1 50.8917 1.22688 50.7906 1.41438Z" fill="#00695C"/>
<path d="M48.6048 1L35.822 24.8224C35.7625 24.9333 35.7625 25.0667 35.822 25.1776L43.7958 40.0378L44.9998 37.7939L38.2298 25.1776C38.1702 25.0667 38.1702 24.9333 38.2298 24.8224L50.7902 1.41447C50.8908 1.22706 50.7554 1 50.543 1H48.6048Z" fill="#00695C"/>
<path d="M54.1781 25.1766L41.3948 48.9994H39.1209C39.0788 48.9994 39.0386 48.9872 39.0039 48.9675L39.0152 48.9478L39.2229 48.5606L40.0286 47.0597V47.0588L43.7959 40.0369L45.0002 37.7935L51.7704 25.1766C51.8294 25.066 51.8294 24.9328 51.7704 24.8222L45.0002 12.2053L46.2046 9.96191L54.1781 24.8222C54.238 24.9328 54.238 25.066 54.1781 25.1766Z" fill="#00695C"/>
</g>
</svg>
