<svg width="286" height="271" viewBox="0 0 286 271" fill="none" xmlns="http://www.w3.org/2000/svg">
<g clip-path="url(#clip0_27943_11059)">
<path d="M131.217 61.4351L70.9159 85.2512C57.6662 90.4834 44.2661 95.7985 32.689 104.079C21.112 112.36 11.3634 124.049 8.3657 137.923C5.36802 151.798 10.375 167.834 22.4801 175.325C33.7871 182.324 48.2102 180.827 61.4081 179.071C75.5232 177.195 89.8385 175.296 103.951 177.193C118.063 179.089 132.195 185.273 140.599 196.718C144.834 202.484 147.422 209.27 151.145 215.377C162.592 234.155 185.465 245.355 207.389 242.918C230.664 240.332 250.903 223.265 260.452 201.972C270.001 180.678 269.736 155.883 263.122 133.512C258.466 117.777 248.756 101.29 232.644 97.8636C221.961 95.5912 208.709 98.8994 201.56 90.6748C194.861 82.9675 198.938 71.2645 199.057 61.0695C199.195 49.1645 192.862 37.378 182.838 30.8887C176.891 27.038 161.17 21.064 155.057 27.4314C152.631 29.9581 153.067 34.3155 152.827 37.5191C152.437 42.7434 151.525 47.6981 147.901 51.7256C143.537 56.5824 137.158 59.0892 131.217 61.4351Z" fill="#00695C" fill-opacity="0.1"/>
<path d="M111.347 47.8722L129.698 169.036C130.714 175.739 126.08 181.173 119.349 181.173H32.9386C26.2077 181.173 19.9276 175.742 18.912 169.036L0.56012 47.8722C-0.454847 41.169 4.17899 35.7354 10.9106 35.7354H97.3199C104.052 35.7354 110.332 41.169 111.347 47.8722Z" fill="white"/>
<path d="M119.347 181.17H32.938C26.8987 181.17 21.2233 176.798 19.3895 171.055C21.4727 172.283 23.8458 172.988 26.2715 172.988H112.681C119.415 172.988 124.046 167.551 123.027 160.847L104.681 39.6848C104.574 38.9974 104.412 38.3196 104.195 37.6582C107.896 39.8193 110.693 43.5845 111.347 47.8737L129.698 169.035C130.711 175.74 126.081 181.17 119.347 181.17Z" fill="#00695C" fill-opacity="0.2"/>
<path d="M89.2912 51.8878L91.4934 66.4256C91.7727 68.2714 90.503 69.7682 88.65 69.7682H29.8883C28.0346 69.7682 26.312 68.2714 26.0306 66.4256L23.8284 51.8878C23.5497 50.0486 24.8194 48.5518 26.6731 48.5518H85.4342C87.2898 48.5518 89.0132 50.0486 89.2912 51.8878Z" fill="#00695C" fill-opacity="0.5"/>
<path d="M89.2908 51.8874L91.493 66.4252C91.7723 68.271 90.5026 69.7678 88.6496 69.7678H29.8879C28.0342 69.7678 26.3116 68.271 26.0302 66.4252L25.3877 62.1831C26.2839 61.96 27.1953 61.8031 28.1147 61.7135C39.1643 60.5253 50.8317 64.0422 62.2525 65.3516C70.9023 66.345 72.7659 66.0563 80.9509 64.5124C82.766 64.17 84.8884 63.3646 84.8338 61.4923C84.7966 60.2233 83.7191 59.0689 82.5784 58.3039C81.4377 57.5389 80.1541 56.9793 79.1497 56.052C76.9469 54.0115 76.9462 50.7158 78.2904 48.5547H85.4351C87.2894 48.5514 89.0128 50.0482 89.2908 51.8874Z" fill="#00695C" fill-opacity="0.5"/>
<path d="M137.979 23.9903C137.979 10.9673 148.585 0.416016 161.653 0.416016C174.731 0.416016 185.336 10.9673 185.336 23.9903C185.336 37.0133 174.731 47.564 161.653 47.564C148.585 47.564 137.979 37.0127 137.979 23.9903Z" fill="white"/>
<path d="M185.334 23.9903C185.334 37.012 174.732 47.5646 161.656 47.5646C158.239 47.5678 154.862 46.8327 151.758 45.4102C148.654 43.9876 145.897 41.9114 143.677 39.3248C147.961 42.9928 153.427 45.0056 159.077 44.9962C172.153 44.9962 182.76 34.4429 182.76 21.4218C182.769 15.8023 180.753 10.3661 177.079 6.10059C179.672 8.31111 181.752 11.0551 183.177 14.1436C184.603 17.232 185.339 20.5914 185.334 23.9903Z" fill="#CBD5E1"/>
<path d="M178.804 23.9897C178.804 33.419 171.125 41.0594 161.655 41.0594C152.185 41.0594 144.513 33.419 144.513 23.9897C144.513 14.5604 152.192 6.91992 161.655 6.91992C171.118 6.91992 178.804 14.5623 178.804 23.9897Z" fill="#00695C"/>
<path d="M158.07 29.1325L155.21 25.3706C155.043 25.1552 154.921 24.909 154.85 24.6462C154.78 24.3834 154.762 24.1092 154.799 23.8397C154.836 23.5701 154.926 23.3105 155.064 23.076C155.203 22.8415 155.387 22.6366 155.605 22.4734C155.824 22.3103 156.073 22.1919 156.338 22.1254C156.602 22.0588 156.878 22.0453 157.148 22.0857C157.418 22.1261 157.678 22.2195 157.911 22.3606C158.145 22.5016 158.348 22.6875 158.509 22.9074L160.16 25.0593L166.538 20.4953C166.982 20.1782 167.534 20.0494 168.073 20.1373C168.612 20.2252 169.094 20.5226 169.413 20.9641C169.733 21.4056 169.863 21.9551 169.775 22.4921C169.688 23.0291 169.39 23.5096 168.947 23.828L160.928 29.5689C160.489 29.884 159.944 30.0148 159.409 29.9332C158.874 29.8515 158.393 29.564 158.07 29.1325Z" fill="#00695C"/>
<path d="M178.806 23.9917C178.806 33.4177 171.126 41.0602 161.656 41.0602C159.116 41.0622 156.608 40.5012 154.314 39.4176C152.02 38.3341 149.996 36.7554 148.391 34.796C151.358 37.0218 154.972 38.223 158.687 38.2175C168.157 38.2175 175.837 30.5797 175.837 21.1491C175.843 17.2076 174.473 13.3865 171.96 10.3408C174.087 11.9307 175.813 13.992 177.002 16.3614C178.19 18.7309 178.807 21.3433 178.806 23.9917Z" fill="#00695C"/>
<path d="M158.07 27.5091L155.21 23.7472C155.042 23.532 154.918 23.2854 154.846 23.0219C154.774 22.7585 154.756 22.4834 154.792 22.2127C154.828 21.9421 154.918 21.6814 155.056 21.4458C155.195 21.2102 155.379 21.0045 155.599 20.8408C155.818 20.677 156.068 20.5585 156.334 20.4921C156.6 20.4257 156.877 20.4128 157.148 20.4541C157.419 20.4955 157.679 20.5902 157.913 20.7328C158.146 20.8754 158.349 21.0631 158.509 21.2847L160.16 23.4372L166.539 18.8732C166.983 18.5561 167.535 18.4274 168.074 18.5153C168.613 18.6032 169.095 18.9005 169.414 19.342C169.733 19.7835 169.863 20.3331 169.776 20.87C169.688 21.407 169.391 21.8875 168.948 22.206L160.928 27.9462C160.49 28.2612 159.944 28.3919 159.41 28.3101C158.875 28.2284 158.394 27.9407 158.07 27.5091Z" fill="white"/>
<path d="M66.1399 270.585C66.1399 270.585 48.7312 257.631 54.0914 252.339C57.4216 249.051 71.9018 261.566 71.9018 261.566C71.9018 261.566 62.8443 241.003 68.8084 239.302C75.0212 237.531 81.7223 257.629 81.7223 257.629C81.7223 257.629 82.7386 237.157 88.839 237.531C95.5454 237.944 90.7725 257.629 90.7725 257.629C90.7725 257.629 99.0506 250.493 102.542 253.762C107.412 258.323 96.2631 270.585 96.2631 270.585L66.1399 270.585Z" fill="#00695C" fill-opacity="0.5"/>
<path d="M68.6395 258.945C70.1094 263.609 71.8986 267.672 71.8986 267.672C71.8986 267.672 57.6804 255.375 54.1912 258.37C52.8995 256.045 52.5423 253.867 54.0947 252.338C56.412 250.04 64.1732 255.457 68.6395 258.945Z" fill="#00695C" fill-opacity="0.5"/>
<path d="M92.2517 248.535C91.9191 245.799 90.9327 243.761 88.831 243.637C82.7312 243.269 81.7142 263.733 81.7142 263.733C81.7142 263.733 75.0252 243.637 68.8037 245.402C67.9929 245.634 67.4575 246.223 67.1549 247.058C66.4405 243.216 66.5782 239.931 68.8037 239.301C75.0252 237.536 81.7169 257.631 81.7169 257.631C81.7169 257.631 82.7332 237.153 88.8336 237.536C92.3634 237.755 92.7066 243.31 92.2517 248.535Z" fill="#00695C" fill-opacity="0.5"/>
<path d="M102.982 260.368C102.851 260.186 102.704 260.017 102.542 259.862C99.0525 256.606 90.7698 263.733 90.7698 263.733C91.3107 261.384 91.7325 259.01 92.0335 256.619C94.4944 254.786 99.8912 251.284 102.542 253.76C104.204 255.333 103.998 257.795 102.982 260.368Z" fill="#00695C" fill-opacity="0.5"/>
<path d="M89.3784 209.457C89.3784 210.334 89.1172 211.192 88.6277 211.922C88.1383 212.651 87.4427 213.22 86.6287 213.556C85.8147 213.892 84.919 213.98 84.0547 213.81C83.1904 213.639 82.3963 213.217 81.7729 212.597C81.1495 211.977 80.7246 211.186 80.5521 210.326C80.3795 209.466 80.4671 208.573 80.8035 207.763C81.14 206.952 81.7103 206.258 82.4425 205.77C83.1746 205.282 84.0357 205.021 84.9168 205.02C85.5024 205.019 86.0825 205.133 86.6238 205.356C87.1651 205.578 87.6569 205.905 88.0713 206.317C88.4857 206.73 88.8144 207.219 89.0387 207.758C89.263 208.296 89.3784 208.874 89.3784 209.457Z" fill="#CBD5E1"/>
<path d="M52.654 242.179C52.9565 242.648 53.3919 243.017 53.905 243.24C54.4182 243.462 54.9862 243.528 55.5371 243.43C56.088 243.331 56.5971 243.071 56.9999 242.684C57.4028 242.297 57.6815 241.8 57.8006 241.256C57.9196 240.711 57.8739 240.143 57.669 239.625C57.4641 239.106 57.1094 238.659 56.6496 238.341C56.1898 238.023 55.6457 237.848 55.086 237.838C54.5263 237.828 53.9763 237.984 53.5054 238.285C52.8742 238.689 52.4299 239.326 52.2703 240.057C52.1106 240.787 52.2486 241.55 52.654 242.179Z" fill="#CBD5E1"/>
<path d="M72.0474 270.585C72.0474 270.585 63.0158 263.863 65.7953 261.119C67.5246 259.414 75.0351 265.907 75.0351 265.907C75.0351 265.907 70.3367 255.238 73.4308 254.356C76.654 253.437 80.1305 263.864 80.1305 263.864C80.1305 263.864 80.6573 253.242 83.8213 253.437C87.2998 253.651 84.8236 263.864 84.8236 263.864C84.8236 263.864 89.1189 260.162 90.9294 261.858C93.4568 264.224 87.6703 270.585 87.6703 270.585H72.0474Z" fill="#CBD5E1"/>
<path d="M73.3448 264.546C74.107 266.966 75.0336 269.074 75.0336 269.074C75.0336 269.074 67.6574 262.694 65.8476 264.248C65.1772 263.042 64.9923 261.914 65.7977 261.119C67.0016 259.926 71.0289 262.736 73.3448 264.546Z" fill="white"/>
<path d="M85.5947 259.145C85.4237 257.726 84.9109 256.669 83.8201 256.605C80.6562 256.414 80.1287 267.03 80.1287 267.03C80.1287 267.03 76.6575 256.605 73.429 257.521C73.0086 257.641 72.7307 257.947 72.5744 258.382C72.2032 256.388 72.275 254.685 73.429 254.358C76.6575 253.442 80.1287 263.868 80.1287 263.868C80.1287 263.868 80.6562 253.244 83.8201 253.442C85.6519 253.553 85.8301 256.435 85.5947 259.145Z" fill="white"/>
<path d="M91.1607 265.283C91.0925 265.189 91.0162 265.1 90.9326 265.018C89.1221 263.33 84.8248 267.027 84.8248 267.027C85.1056 265.808 85.3245 264.577 85.4806 263.336C86.7563 262.386 89.5571 260.568 90.9346 261.853C91.7946 262.672 91.6881 263.95 91.1607 265.283Z" fill="white"/>
<path d="M149.638 257.393L132.556 254.419L136.781 243.993L137.68 241.779L154.614 245.607L152.185 251.356L149.638 257.393Z" fill="#FCBBA4"/>
<path d="M152.184 251.356C151.447 250.885 150.81 250.273 150.311 249.556C149.773 248.768 149.38 247.834 148.336 247.455C147.412 247.106 146.137 247.256 144.974 247.28C142.62 247.334 140.529 246.817 138.927 245.877C138.092 245.398 137.363 244.758 136.781 243.993L137.68 241.779L154.613 245.607L152.184 251.356Z" fill="#F2A07C"/>
<path d="M240.44 124.124C240.44 124.124 236.675 133.947 213.436 129.432C190.198 124.916 211.075 104.125 224.677 107.417C238.279 110.709 240.44 124.124 240.44 124.124Z" fill="#00695C"/>
<path d="M225.428 110.796L183.353 167.789C180.645 171.461 178.894 175.744 178.256 180.255L169.773 240.57C169.167 244.885 165 247.768 160.727 246.842L128.461 239.845C127.419 239.616 126.437 239.169 125.581 238.534C124.725 237.899 124.014 237.09 123.496 236.161C122.978 235.232 122.663 234.204 122.574 233.144C122.485 232.085 122.623 231.019 122.979 230.017L147.034 162.743C148.18 159.528 149.985 156.586 152.333 154.103L174.493 130.682L197.487 106.396L225.428 110.796Z" fill="#334155"/>
<path d="M225.428 110.796L183.354 167.789C180.646 171.461 178.894 175.744 178.257 180.255L169.773 240.57C169.168 244.885 165.001 247.768 160.728 246.842L128.461 239.845C127.384 239.613 126.371 239.146 125.496 238.479C124.621 237.811 123.905 236.959 123.399 235.984C127.47 232.473 134.181 232.515 139.814 233.328C146.402 234.28 154.025 235.363 158.92 230.873C163.562 226.627 163.43 219.411 162.789 213.174C161.807 203.661 160.438 194.087 161.535 184.59C162.632 175.094 166.562 165.468 174.239 159.737C177.344 157.414 180.923 155.823 184.239 153.805C187.556 151.787 190.723 149.202 192.267 145.664C193.81 142.126 193.311 137.451 190.249 135.076C186.082 131.844 179.528 134.036 175.116 131.136C174.897 130.987 174.686 130.839 174.493 130.682L197.487 106.396L225.428 110.796Z" fill="#1E293B"/>
<path d="M238.597 247.016H208.672C206.941 247.013 205.263 246.422 203.915 245.341C202.567 244.259 201.63 242.751 201.26 241.067L189.399 186.599C187.747 179.009 187.997 171.131 190.127 163.659L200.426 127.536L206.067 107.749H237.947L224.384 171.599C223.929 173.749 224.077 175.983 224.815 178.055L245.747 236.943C247.49 241.863 243.832 247.016 238.597 247.016Z" fill="#334155"/>
<path d="M238.597 247.016H208.672C207.662 247.017 206.663 246.814 205.733 246.42C206.553 245.574 207.573 244.946 208.699 244.594C211.383 243.764 214.278 244.236 217.068 244.567C220.569 244.996 224.288 245.163 227.473 243.633C230.657 242.102 233.017 238.368 231.86 235.045C230.877 232.232 227.833 230.616 226.517 227.943C224.429 223.715 227.298 218.841 227.894 214.167C228.5 209.432 226.675 204.689 224.184 200.601C221.692 196.513 218.516 192.887 215.989 188.825C206.006 172.742 208.103 150.177 220.876 136.192C222.797 134.087 224.955 132.121 226.28 129.605C227.605 127.089 227.903 123.76 226.122 121.542C224.069 118.973 220.061 118.869 217.016 120.135C213.972 121.401 211.516 123.708 208.726 125.473C206.41 126.93 203.155 128.155 200.427 127.534L206.067 107.749H237.948L224.384 171.599C223.929 173.749 224.077 175.983 224.815 178.055L245.747 236.943C247.49 241.863 243.832 247.016 238.597 247.016Z" fill="#1E293B"/>
<path d="M230.427 259.652L213.105 260.467L214.94 249.373L215.332 247.018L232.696 247.068L231.587 253.207L230.427 259.652Z" fill="#FCBBA4"/>
<path d="M231.586 253.206C230.763 252.907 230.008 252.449 229.364 251.857C228.665 251.205 228.08 250.382 226.975 250.236C225.996 250.098 224.785 250.523 223.656 250.798C221.37 251.363 219.216 251.314 217.447 250.744C216.527 250.459 215.675 249.993 214.939 249.373L215.331 247.018L232.695 247.067L231.586 253.206Z" fill="#F2A07C"/>
<path d="M188.75 100.421C160.036 114.748 143.412 90.3318 138.334 81.0105C137.212 78.9487 136.65 77.6207 136.65 77.6207C136.65 77.6207 126.508 66.1508 130.439 66.0025C131.615 65.9587 132.097 67.5046 133.702 68.806C131.571 65.8713 127.895 62.3591 130.51 62.2717C131.869 62.2107 133.317 63.3029 135.186 64.9275C133.106 62.0273 129.422 58.7336 131.931 58.6356C133.545 58.5746 135.545 60.0595 137.739 62.1392C135.966 59.4747 133.212 57.0109 135.378 56.9235C139.309 56.7751 144.643 66.9244 144.643 66.9244C144.643 66.9244 147.442 62.2419 149.161 63.185C151.688 64.5758 148.152 72.1481 148.152 72.1481C148.152 72.1481 154.381 85.5486 165.935 86.9467C173.497 87.864 178.954 85.6976 183.427 82.343C185.339 80.9098 187.077 79.2507 188.717 77.5293C191.794 82.2854 190.838 90.9935 188.75 100.421Z" fill="#FCBBA4"/>
<path d="M188.749 100.421C160.036 114.748 143.411 90.3317 138.334 81.0103C140.01 80.6692 141.589 81.9376 142.799 83.1503C146.729 87.1076 150.265 91.5371 154.862 94.6997C162.223 99.7657 172.074 101.015 180.469 97.949C181.865 97.4337 183.311 96.735 184.039 95.4415C185.206 93.3538 184.021 90.8119 183.44 88.4792C182.948 86.4653 182.942 84.3636 183.423 82.3469C185.335 80.9137 187.073 79.2546 188.713 77.5332C191.794 82.2853 190.837 90.9934 188.749 100.421Z" fill="#F2A07C"/>
<path d="M266.18 88.5317C265.873 87.7191 265.531 86.9157 265.163 86.1123C265.538 86.9157 265.88 87.7191 266.18 88.5317Z" fill="#FCBBA4"/>
<path d="M266.512 89.4403C261.669 89.3794 257.02 92.2969 252.493 97.2238C251.854 95.945 251.115 94.7184 250.282 93.5553C250.216 94.1103 249.95 95.9144 249.617 97.5649C246.933 111.411 240.438 124.124 240.438 124.124C240.438 124.124 232.569 109.395 214.48 116.532C196.39 123.669 183.959 120.699 183.959 120.699C183.989 120.644 193.096 107.468 196.758 95.6098C194.212 97.4132 191.522 99.0055 188.714 100.37C190.854 90.8226 191.828 82.3311 188.714 77.5267C192.047 74.0323 194.995 70.2585 198.285 67.4715C200.294 65.7773 202.891 64.2924 205.9 63.1214C216.015 59.1641 230.726 58.6747 242.649 64.9474C244.795 66.0084 246.882 67.1835 248.901 68.4676C258.607 74.6681 263.923 82.0059 266.512 89.4403Z" fill="#00695C"/>
<path d="M205.9 63.1191C205.777 63.7656 205.461 64.4033 205.058 65.1193C202.978 68.8759 201.628 72.4928 198.478 75.5838C196.917 77.1124 195.135 78.4841 194.065 80.3796C192.749 82.7037 192.696 85.4986 192.668 88.1631C192.615 94.2239 194.909 93.6265 195.879 95.1081C196.052 95.3738 196.16 95.6761 196.195 95.9909C193.819 97.6412 191.317 99.1042 188.712 100.367C190.852 90.8189 191.826 82.3275 188.712 77.5231C192.045 74.0287 194.993 70.2549 198.283 67.4678C200.294 65.775 202.891 64.2894 205.9 63.1191Z" fill="#00695C"/>
<path d="M266.512 89.4396C261.669 89.3787 257.02 92.2961 252.493 97.2231C251.854 95.9443 251.115 94.7176 250.282 93.5546C250.216 94.1096 249.95 95.9137 249.617 97.5642C248.092 96.5893 246.601 95.1096 246.302 93.3181C246.02 91.6411 247.126 89.6668 248.836 89.5528C249.696 89.4919 250.521 89.8939 251.337 90.1648C257.228 92.1405 263.025 87.2553 261.856 84.5385C261.347 83.3768 259.891 83.0536 258.671 82.6953C255.759 81.8317 253.219 80.0277 251.451 77.5677C249.881 75.3747 249.17 72.8328 248.872 70.1769C248.805 69.5484 248.793 68.9715 248.907 68.4648C258.607 74.6674 263.923 82.0051 266.512 89.4396Z" fill="#00695C"/>
<path d="M250.22 94C248.089 109.148 240.44 124.121 240.44 124.121C240.44 124.121 232.57 109.393 214.481 116.53C196.392 123.667 183.96 120.696 183.96 120.696C183.96 120.696 188.259 114.471 192.136 106.746C199.163 104.918 204.508 107.036 211.182 108.666C219.599 110.714 228.314 111.258 236.922 110.274C238.904 110.046 241.001 109.678 242.475 108.334C244.519 106.491 244.73 103.416 244.703 100.664C244.677 97.9123 244.528 95.1431 244.282 92.3912C244.194 91.3978 243.431 87.4385 245.782 88.2246C247.239 88.7048 248.835 91.8495 249.64 93.0814C249.842 93.3882 250.036 93.6944 250.22 94Z" fill="#00695C"/>
<path d="M236.738 62.4426C235.655 65.3567 232.269 67.2529 227.772 67.2529C222.275 67.2529 218.438 64.4169 218.438 60.3649V60.3417C224.374 59.8688 230.737 60.451 236.738 62.4426Z" fill="white"/>
<path d="M272.915 141.616L268.756 142.96C268.195 136.293 266.111 130.275 262.91 125.026L267.069 123.682C270.84 129.308 272.724 135.301 272.915 141.616Z" fill="#F9A825"/>
<path d="M213.522 160.772C211.818 161.17 210.045 161.17 208.341 160.772L195.562 157.773C195.362 157.726 195.178 157.628 195.028 157.49C194.877 157.351 194.765 157.176 194.702 156.982C194.639 156.788 194.626 156.581 194.666 156.381C194.707 156.18 194.798 155.994 194.931 155.839L203.506 145.939C204.651 144.621 206.086 143.584 207.701 142.911C212.186 147.722 214.258 153.617 213.522 160.772Z" fill="#FCBBA4"/>
<path d="M213.521 160.772C211.817 161.17 210.044 161.17 208.34 160.772L200.735 158.988C201.315 158.003 202.484 157.77 203.628 157.778C205.152 157.79 206.677 158.125 208.188 157.937C209.699 157.75 211.287 156.847 211.593 155.36C211.786 154.424 211.437 153.467 211.061 152.589C210.322 150.869 209.452 149.209 208.457 147.622C207.683 146.386 206.646 144.894 206.672 143.406C207.007 143.224 207.351 143.059 207.703 142.912C212.185 147.722 214.257 153.617 213.521 160.772Z" fill="#F2A07C"/>
<path d="M272.915 141.616L268.756 142.96C268.722 142.556 268.68 142.153 268.633 141.753C269.231 141.82 269.83 141.929 270.371 141.707C271.236 141.353 271.594 140.269 271.444 139.348C271.294 138.427 270.759 137.626 270.287 136.822C268.319 133.471 267.254 129.684 266.208 125.943C266.039 125.338 265.855 124.668 265.969 124.037L267.068 123.682C270.839 129.308 272.724 135.301 272.915 141.616Z" fill="#F9A825"/>
<path d="M279.036 139.638L272.917 141.617C272.87 139.965 272.701 138.319 272.412 136.692C271.605 132.178 269.853 127.836 267.071 123.682C273.412 121.644 273.283 121.648 273.943 121.497C276.322 120.937 278.826 121.315 280.931 122.552C283.036 123.789 284.579 125.788 285.237 128.132C285.896 130.476 285.618 132.983 284.463 135.127C283.308 137.272 281.365 138.889 279.04 139.639L279.036 139.638Z" fill="#FF4D4F"/>
<path d="M279.037 139.638L272.918 141.617C272.87 139.965 272.701 138.319 272.412 136.692C273.114 136.496 273.891 136.486 274.627 136.553C275.78 136.655 276.935 136.907 278.081 136.751C280.177 136.461 281.967 134.656 282.232 132.566C282.497 130.477 281.219 128.282 279.262 127.481C278.452 127.15 277.564 127.038 276.754 126.701C275.177 126.039 274.027 124.473 273.869 122.777C273.834 122.349 273.86 121.919 273.944 121.498C276.323 120.938 278.827 121.316 280.932 122.553C283.037 123.79 284.58 125.789 285.238 128.133C285.897 130.477 285.619 132.984 284.464 135.128C283.309 137.273 281.365 138.89 279.04 139.64L279.037 139.638Z" fill="#FF4D4F"/>
<path d="M268.755 142.961L214.411 160.527C214.117 160.623 213.822 160.703 213.522 160.772C214.225 153.922 212.395 147.97 207.7 142.915C208.503 142.575 205.146 143.713 262.909 125.027C266.261 130.553 268.21 136.531 268.755 142.961Z" fill="#CBD5E1"/>
<path d="M268.755 142.961L214.411 160.527C214.117 160.623 213.821 160.703 213.521 160.772C214.225 153.917 212.353 148.219 208.247 143.526C208.828 143.149 209.499 142.934 210.191 142.901C212.709 142.801 214.61 145.111 215.822 147.31C217.035 149.51 218.201 152.03 220.523 152.999C222.446 153.802 224.696 153.288 226.514 152.276C228.332 151.264 229.848 149.804 231.51 148.554C235.905 145.264 241.246 143.467 246.745 143.428C251.306 143.408 256.968 144.784 261.198 141.962C263.245 140.595 264.665 138.098 264.202 135.688C263.521 132.158 259.02 129.746 259.091 126.261L262.909 125.027C266.261 130.553 268.21 136.531 268.755 142.961Z" fill="#00695C"/>
<path d="M260.089 131.022C260.089 131.022 259.949 131.546 259.695 132.375C258.624 135.949 255.615 145.158 253.764 142.57C253.079 141.618 254.115 140.377 254.316 138.316C253.027 141.705 252.106 146.694 250.597 144.571C249.799 143.47 249.913 141.671 250.246 139.224C248.965 142.545 248.228 147.418 246.763 145.384C245.824 144.074 245.974 141.593 246.509 138.622C245.254 141.566 244.702 145.218 243.429 143.453C241.148 140.274 246.728 130.253 246.728 130.253L240.755 132.055C241.828 128.56 244.38 125.885 249.184 124.461C249.184 124.461 255.264 112.572 254.071 102.622C253.852 100.761 253.378 98.9797 252.562 97.3458C252.536 97.3021 252.518 97.2584 252.492 97.2133C257.027 92.295 261.671 89.3775 266.511 89.4384C273.634 109.881 260.089 131.022 260.089 131.022Z" fill="#FCBBA4"/>
<path d="M260.089 131.023C260.089 131.023 259.949 131.547 259.694 132.376C259.291 132.167 259.096 121.674 262.58 112.363C264.26 107.879 266.177 103.33 265.993 98.5515C265.941 97.1103 265.537 95.4386 264.212 94.8736C262.756 94.2623 261.124 95.3889 260.288 96.7281C259.464 98.0647 259.06 99.6635 258.034 100.852C256.998 101.682 255.516 102.494 254.068 102.625C253.849 100.764 253.375 98.9826 252.559 97.3487C252.533 97.305 252.515 97.2613 252.489 97.2163C257.025 92.2979 261.668 89.3804 266.508 89.4414C273.634 109.882 260.089 131.023 260.089 131.023Z" fill="#F2A07C"/>
<path d="M238.397 37.5806C239.04 38.8558 239.326 40.28 239.225 41.7034C239.123 43.1267 238.639 44.4965 237.821 45.6686C237.004 46.8407 235.885 47.7718 234.581 48.3638C233.277 48.9558 231.837 49.1868 230.412 49.0326C228.988 48.8783 227.631 48.3445 226.486 47.4874C225.34 46.6302 224.448 45.4813 223.903 44.1617C223.357 42.8421 223.18 41.4005 223.388 39.9888C223.596 38.577 224.183 37.2472 225.086 36.1394C224.395 36.2598 223.694 36.3197 222.993 36.3182C221.149 36.328 219.328 35.908 217.676 35.0916C217.335 35.4905 216.941 35.841 216.504 36.1334C216.706 36.5872 216.81 37.0783 216.809 37.5746C216.809 38.5072 216.442 39.4027 215.787 40.0696C215.133 40.7366 214.242 41.1222 213.306 41.144C212.37 41.1658 211.462 40.822 210.777 40.1863C210.091 39.5505 209.683 38.6731 209.639 37.7415C209.634 37.686 209.632 37.6303 209.633 37.5746C209.632 37.0783 209.736 36.5872 209.938 36.1334C208.903 35.4387 208.117 34.4346 207.693 33.2662C207.269 32.0977 207.229 30.8254 207.579 29.6327C207.928 28.44 208.649 27.3887 209.637 26.6306C210.626 25.8724 211.83 25.4466 213.078 25.4146C214.304 21.8302 218.28 19.2041 222.993 19.2041C227.891 19.2041 231.987 22.0381 233.036 25.8378C234.351 25.9483 235.612 26.4056 236.69 27.1628C237.768 27.92 238.624 28.9497 239.17 30.1458C239.716 31.342 239.932 32.6613 239.795 33.9681C239.659 35.2749 239.175 36.5218 238.394 37.5806H238.397Z" fill="#F9A825"/>
<path d="M215.643 32.7627L214.859 40.7542C214.325 41.0269 213.731 41.1618 213.13 41.1464C212.53 41.131 211.943 40.9658 211.424 40.666C210.904 40.3662 210.469 39.9413 210.157 39.4303C209.845 38.9194 209.667 38.3386 209.639 37.7413L209.741 37.3777C210.446 34.8291 213.09 32.7627 215.643 32.7627Z" fill="#F9A825"/>
<path d="M239.301 35.9553C239.319 35.7705 239.325 35.5857 239.325 35.395C239.326 33.5408 238.628 31.7537 237.369 30.3881C236.109 29.0226 234.38 28.1783 232.525 28.0228C231.472 24.2238 227.375 21.3891 222.478 21.3891C217.766 21.3891 213.789 24.0151 212.562 27.6002C211.455 27.6275 210.377 27.9662 209.454 28.5774C208.532 29.1886 207.801 30.0473 207.348 31.0542C207.404 29.5651 208.028 28.1533 209.092 27.1057C210.156 26.0581 211.581 25.4534 213.077 25.4146C214.303 21.8302 218.28 19.2041 222.992 19.2041C227.89 19.2041 231.986 22.0381 233.035 25.8378C234.892 25.9918 236.622 26.8353 237.883 28.2009C239.144 29.5665 239.843 31.3543 239.841 33.2093C239.841 34.1509 239.658 35.0835 239.301 35.9553Z" fill="#F9A825"/>
<path d="M225.807 29.8848C225.807 29.8848 221.788 29.2384 220.736 33.2036H225.017C225.009 32.0889 225.27 30.9822 225.807 29.8848Z" fill="#F9A825"/>
<path d="M233.595 40.4995V60.3648C233.595 64.8878 221.947 64.8878 221.947 60.3648V55.4757C219.242 55.2608 216.717 54.0392 214.876 52.0541C213.036 50.069 212.013 47.4661 212.013 44.7641V36.968C212.013 35.9698 212.412 35.0125 213.12 34.3067C213.829 33.6009 214.79 33.2043 215.793 33.2041H225.02V33.2101C225.02 34.179 225.211 35.1386 225.584 36.0339C225.956 36.9291 226.502 37.7426 227.19 38.4278C227.878 39.113 228.695 39.6564 229.594 40.0271C230.493 40.3978 231.456 40.5885 232.429 40.5882C232.82 40.5888 233.21 40.5591 233.595 40.4995Z" fill="#FCBBA4"/>
<path d="M221.647 55.1299L221.946 59.9701C222.423 57.1579 224.387 55.3776 224.673 55.1299H221.647Z" fill="#F2A07C"/>
<path d="M232.74 42.4341V44.4144H233.596V40.4988C233.21 40.5587 232.82 40.5886 232.43 40.5882C231.457 40.5884 230.493 40.3977 229.594 40.0269C228.695 39.6561 227.878 39.1126 227.19 38.4274C226.502 37.7421 225.956 36.9286 225.584 36.0333C225.212 35.138 225.02 34.1784 225.02 33.2094V33.2041H215.793C214.876 33.2036 213.99 33.5358 213.301 34.1386C212.612 34.7414 212.167 35.5735 212.049 36.4792C212.403 36.0588 212.845 35.7209 213.344 35.4893C213.843 35.2578 214.387 35.1383 214.938 35.1394H224.165V35.1453C224.165 36.1143 224.356 37.0739 224.729 37.9692C225.101 38.8644 225.647 39.6779 226.335 40.3631C227.023 41.0482 227.84 41.5917 228.739 41.9624C229.638 42.3331 230.601 42.5238 231.574 42.5235C231.965 42.5238 232.355 42.4939 232.74 42.4341Z" fill="#F2A07C"/>
<path d="M236.342 42.5118C236.342 43.1107 236.163 43.6959 235.829 44.1937C235.495 44.6915 235.02 45.0794 234.464 45.3084C233.908 45.5374 233.297 45.5973 232.707 45.4803C232.117 45.3634 231.576 45.0749 231.151 44.6515C230.725 44.228 230.436 43.6885 230.319 43.1012C230.201 42.5139 230.261 41.9051 230.492 41.3519C230.722 40.7986 231.111 40.3257 231.611 39.993C232.111 39.6602 232.699 39.4826 233.3 39.4824C233.7 39.4822 234.096 39.5604 234.465 39.7125C234.834 39.8647 235.169 40.0878 235.452 40.3692C235.734 40.6506 235.958 40.9846 236.111 41.3523C236.264 41.7199 236.342 42.114 236.342 42.5118Z" fill="#F2A07C"/>
<path d="M130.111 168.974L111.759 47.8102C110.717 40.9274 104.24 35.3203 97.3172 35.3203H10.9079C3.92754 35.3203 -0.91117 40.9725 0.142374 47.938L18.4936 169.098C19.5411 175.987 26.0187 181.594 32.9359 181.594H119.351C126.306 181.591 131.168 175.967 130.111 168.974ZM19.3257 168.974L0.973769 47.8102C-0.00661228 41.3738 4.42304 36.1535 10.9099 36.1535H97.3172C103.845 36.1535 109.949 41.4394 110.935 47.9426L129.287 169.103C130.249 175.506 125.871 180.766 119.351 180.766H32.9379C26.4158 180.759 20.306 175.474 19.3257 168.974Z" fill="#101010"/>
<path d="M29.8863 70.1811H88.6514C90.7864 70.1811 92.2257 68.4333 91.9104 66.3649L89.7102 51.8285C89.3983 49.7932 87.4881 48.1348 85.4382 48.1348H26.6718C24.5714 48.1348 23.0942 49.8568 23.4128 51.9503L25.6203 66.4874C25.9262 68.528 27.8424 70.1811 29.8863 70.1811ZM26.6718 48.9666H85.4369C87.0797 48.9666 88.6334 50.2912 88.8788 51.9503L91.0851 66.4874C91.3285 68.1147 90.2204 69.3493 88.6514 69.3493H29.8863C28.2375 69.3493 26.6938 68.0127 26.4444 66.3656L24.2441 51.8292C23.9941 50.2409 25.0789 48.9666 26.6718 48.9666Z" fill="#101010"/>
<path d="M47.3455 106.078V106.085C48.2933 112.344 43.972 117.411 37.6867 117.411C34.5407 117.411 31.5131 116.146 29.1412 114.094C26.7694 112.042 25.0707 109.211 24.5972 106.085V106.077C23.6494 99.8193 27.9706 94.752 34.2553 94.752C37.402 94.752 40.4296 96.017 42.8008 98.0688C45.1719 100.121 46.8713 102.945 47.3455 106.078Z" fill="#00695C"/>
<path d="M47.3472 106.077V106.084C48.2956 112.345 43.9757 117.409 37.6877 117.409C34.541 117.409 31.5147 116.141 29.1436 114.09C28.6239 113.64 28.1381 113.153 27.6903 112.633C29.7429 113.948 32.1266 114.718 34.5802 114.718C40.8676 114.718 45.1882 109.652 44.2397 103.392V103.386C43.8686 100.935 42.7465 98.6779 41.1469 96.832C41.7278 97.2032 42.2806 97.616 42.8011 98.0672C45.1716 100.121 46.8723 102.943 47.3472 106.077Z" fill="#00695C"/>
<path d="M34.4449 109.363L32.1256 107.053C31.5636 106.495 31.5044 105.657 31.9926 105.182C32.4808 104.706 33.3335 104.774 33.8955 105.333L35.1891 106.62L38.0658 103.751C38.5493 103.27 39.4 103.329 39.9667 103.884C40.5334 104.438 40.6025 105.274 40.1196 105.757L36.3591 109.506C35.8536 110.007 34.9909 109.906 34.4449 109.363Z" fill="#00695C"/>
<path d="M34.3419 108.684L32.0187 106.374C31.4573 105.816 31.3981 104.977 31.8857 104.502C32.3732 104.028 33.2265 104.094 33.7886 104.653L35.0829 105.94L37.9588 103.072C38.4424 102.59 39.2931 102.649 39.8598 103.204C40.4264 103.759 40.4963 104.595 40.0127 105.077L36.2528 108.827C35.7507 109.327 34.888 109.226 34.3419 108.684Z" fill="white"/>
<path d="M37.6885 117.826C44.2066 117.826 48.7467 112.571 47.7583 106.025V106.019C46.7793 99.5499 40.7487 94.3389 34.2565 94.3389C27.7024 94.3389 23.1983 99.6268 24.1806 106.147C25.1816 112.683 31.2481 117.826 37.6885 117.826ZM25.012 106.019C24.0942 99.9765 28.2418 95.1707 34.2571 95.1707C40.3469 95.1707 46.0117 100.084 46.9336 106.141V106.147C47.8401 112.184 43.7024 116.995 37.6885 116.995C31.5927 116.995 25.9286 112.064 25.012 106.019Z" fill="#101010"/>
<path d="M101.63 102.662C101.63 102.552 101.586 102.446 101.507 102.368C101.429 102.29 101.323 102.246 101.212 102.246H58.8062C58.6982 102.25 58.5961 102.296 58.5212 102.374C58.4464 102.451 58.4045 102.555 58.4045 102.662C58.4045 102.77 58.4464 102.873 58.5212 102.951C58.5961 103.029 58.6982 103.074 58.8062 103.079H101.213C101.323 103.078 101.43 103.034 101.508 102.956C101.586 102.878 101.63 102.772 101.63 102.662Z" fill="#101010"/>
<path d="M85.34 109.501C85.34 109.391 85.2959 109.285 85.2176 109.207C85.1393 109.129 85.0331 109.085 84.9223 109.085H59.8414C59.7306 109.085 59.6244 109.129 59.546 109.207C59.4677 109.285 59.4237 109.391 59.4237 109.501C59.4237 109.611 59.4677 109.717 59.546 109.795C59.6244 109.873 59.7306 109.917 59.8414 109.917H84.9223C85.0331 109.917 85.1393 109.873 85.2176 109.795C85.2959 109.717 85.34 109.611 85.34 109.501Z" fill="#101010"/>
<path d="M54.7711 141.792V141.8C55.7189 148.058 51.3982 153.125 45.1129 153.125C41.9662 153.125 38.9386 151.861 36.5675 149.808C34.1964 147.756 32.497 144.925 32.0234 141.8V141.792C31.0757 135.533 35.3969 130.467 41.6823 130.467C44.8283 130.467 47.8559 131.732 50.227 133.784C52.5981 135.836 54.2968 138.661 54.7711 141.792Z" fill="#F9A825"/>
<path d="M41.8714 145.08L39.5481 142.771C38.9867 142.212 38.9276 141.374 39.4151 140.899C39.9026 140.424 40.756 140.49 41.318 141.05L42.6116 142.337L45.4883 139.468C45.9718 138.987 46.8225 139.046 47.3892 139.601C47.9559 140.156 48.0257 140.992 47.5421 141.474L43.7822 145.223C43.2801 145.723 42.4174 145.623 41.8714 145.08Z" fill="#F9A825"/>
<path d="M54.7734 141.793V141.8C55.7219 148.061 51.4019 153.125 45.1146 153.125C41.9673 153.125 38.9417 151.858 36.5705 149.806C36.0504 149.356 35.5644 148.869 35.1166 148.349C37.1691 149.663 39.5529 150.433 42.0065 150.433C48.2945 150.433 52.6145 145.368 51.666 139.107V139.101C51.2949 136.65 50.1728 134.394 48.5725 132.548C49.1534 132.919 49.7063 133.331 50.2267 133.782C52.5978 135.839 54.2985 138.661 54.7734 141.793Z" fill="#F9A825"/>
<path d="M41.7697 144.4L39.4472 142.091C38.8851 141.532 38.8259 140.694 39.3141 140.219C39.8023 139.743 40.6543 139.811 41.2164 140.37L42.5107 141.656L45.3873 138.789C45.8702 138.307 46.7209 138.366 47.2882 138.921C47.8556 139.476 47.9241 140.312 47.4412 140.794L43.6806 144.544C43.1778 145.044 42.3151 144.943 41.7697 144.4Z" fill="white"/>
<path d="M41.6809 130.051C35.1994 130.051 30.6187 135.268 31.6111 141.864C32.5888 148.327 38.626 153.544 45.1176 153.544C51.7335 153.544 56.1798 148.155 55.1815 141.725C54.2024 135.268 48.1751 130.051 41.6809 130.051ZM45.1176 152.712C39.0777 152.712 33.3603 147.845 32.4352 141.731C31.5412 135.781 35.5938 130.883 41.6803 130.883C47.7668 130.883 53.4482 135.815 54.3567 141.858L54.362 141.864C55.2566 147.815 51.2041 152.712 45.1176 152.712Z" fill="#101010"/>
<path d="M108.64 137.963H66.2336C66.1228 137.963 66.0166 138.007 65.9383 138.085C65.8599 138.163 65.8159 138.268 65.8159 138.379C65.8159 138.489 65.8599 138.595 65.9383 138.673C66.0166 138.751 66.1228 138.795 66.2336 138.795H108.64C108.751 138.795 108.857 138.751 108.935 138.673C109.014 138.595 109.058 138.489 109.058 138.379C109.058 138.268 109.014 138.163 108.935 138.085C108.857 138.007 108.751 137.963 108.64 137.963Z" fill="#101010"/>
<path d="M92.3503 144.801H67.2694C67.1586 144.801 67.0524 144.845 66.974 144.923C66.8957 145.001 66.8517 145.106 66.8517 145.217C66.8517 145.327 66.8957 145.433 66.974 145.511C67.0524 145.589 67.1586 145.633 67.2694 145.633H92.3503C92.461 145.633 92.5673 145.589 92.6456 145.511C92.7239 145.433 92.7679 145.327 92.7679 145.217C92.7679 145.106 92.7239 145.001 92.6456 144.923C92.5673 144.845 92.461 144.801 92.3503 144.801Z" fill="#101010"/>
<path d="M161.652 47.9799C174.941 47.9799 185.757 37.2199 185.757 23.9869C185.757 10.7539 174.941 0 161.652 0C148.363 0 137.564 10.7599 137.564 23.9869C137.564 37.214 148.368 47.9799 161.652 47.9799ZM161.652 0.831867C174.484 0.831867 184.922 11.2202 184.922 23.9869C184.922 36.7537 174.484 47.148 161.652 47.148C148.831 47.148 138.399 36.7603 138.399 23.9869C138.399 11.2136 148.831 0.831867 161.652 0.831867Z" fill="#101010"/>
<path d="M161.658 41.4739C171.344 41.4739 179.225 33.6321 179.225 23.9888C179.225 14.3456 171.344 6.50781 161.658 6.50781C151.973 6.50781 144.099 14.3502 144.099 23.9888C144.099 33.6275 151.973 41.4739 161.658 41.4739ZM161.658 7.33767C170.881 7.33767 178.389 14.8085 178.389 23.9868C178.389 33.1651 170.881 40.642 161.658 40.642C152.435 40.642 144.93 33.1731 144.93 23.9868C144.93 14.8006 152.435 7.33767 161.658 7.33767Z" fill="#101010"/>
<path d="M285.515 127.633C283.833 122.467 278.246 119.63 273.061 121.305L264.01 124.233C274.992 98.7871 268.038 77.0851 242.845 64.574C240.169 63.166 237.171 62.0149 233.895 61.185C233.975 60.9188 234.014 60.6422 234.012 60.3644V49.0449C235.661 48.4782 237.092 47.4134 238.106 45.9988C239.119 44.5843 239.664 42.8903 239.665 41.1527C239.671 39.9314 239.403 38.7242 238.88 37.6193C242.217 32.7997 239.138 26.1355 233.359 25.4513C232.117 21.5139 227.901 18.7852 222.994 18.7852C218.344 18.7852 214.189 21.3304 212.779 25.0109C209.527 25.2381 206.926 27.9946 206.926 31.2777C206.925 32.2475 207.151 33.2043 207.585 34.0725C208.019 34.9407 208.649 35.6965 209.427 36.2801C209.286 36.6965 209.215 37.133 209.216 37.5723C209.216 38.3428 209.441 39.0966 209.863 39.7424C210.285 40.3882 210.886 40.8983 211.594 41.211V44.7637C211.594 50.4205 215.927 55.2182 221.53 55.8561V59.7822C220.494 59.7935 219.447 59.8432 218.404 59.9266C210.216 60.5757 202.591 63.2766 198.013 67.1531C189.3 74.5094 183.166 88.6186 165.977 86.537C155.489 85.2673 149.379 73.6921 148.605 72.1449C149.229 70.7746 151.997 64.2747 149.357 62.8276C147.694 61.9122 145.586 64.7019 144.661 66.1053C143.398 63.8369 138.958 56.3938 135.355 56.5104C133.532 56.5766 134.135 58.0443 135.238 59.5107C133.923 58.5954 132.844 58.1861 131.907 58.2238C129.436 58.3145 131.153 60.6273 132.726 62.5288C131.963 62.0851 131.222 61.8241 130.493 61.8579C128.248 61.9354 129.345 63.9277 130.626 65.59C130.557 65.5847 130.488 65.5847 130.419 65.59C126.149 65.7483 133.464 74.6511 136.284 77.8468C136.847 79.1283 145.708 98.7003 162.913 103.942C174.504 107.452 186.004 103.432 195.979 96.6485C193.369 104.427 187.925 114.126 183.608 120.458L152.023 153.823C149.632 156.344 147.796 159.334 146.632 162.603L122.592 229.88C120.992 234.336 123.676 239.232 128.379 240.251L137.084 242.136L135.33 246.463C134.583 246.562 133.933 246.961 133.386 247.66C131.069 250.605 125.138 251.864 120.57 252.397C119.177 252.561 117.868 253.15 116.825 254.085C115.782 255.02 115.055 256.253 114.745 257.616C114.711 257.777 114.683 257.932 114.655 258.093C114.546 258.829 114.718 259.58 115.136 260.197C115.555 260.814 116.19 261.252 116.917 261.426C151.748 269.486 149.889 269.155 150.551 269.155C150.967 269.153 151.378 269.064 151.757 268.894C152.136 268.725 152.475 268.478 152.753 268.169C153.031 267.861 153.24 267.499 153.368 267.105C153.497 266.711 153.541 266.295 153.498 265.883C152.112 253.272 152.312 253.541 151.979 252.928L154.898 246.007L160.646 247.255C161.713 247.485 162.817 247.493 163.887 247.279C164.958 247.066 165.973 246.634 166.869 246.012C167.765 245.39 168.523 244.591 169.094 243.664C169.666 242.738 170.04 241.704 170.192 240.627L178.674 180.318C179.303 175.875 181.027 171.657 183.693 168.039L191.434 157.551L189.724 163.552C187.582 171.088 187.331 179.031 188.993 186.686L200.851 241.154C201.641 244.792 204.933 247.437 208.67 247.437H214.841L214.067 252.107C213.36 252.357 212.809 252.89 212.43 253.697C211.171 256.337 207.1 258.966 200.962 261.107C199.561 261.599 198.361 262.535 197.545 263.771C196.729 265.007 196.343 266.475 196.445 267.951C196.475 268.392 196.606 268.822 196.825 269.207C197.045 269.592 197.349 269.923 197.715 270.175H97.1775C99.5054 267.446 107.292 257.651 102.826 253.464C99.7954 250.63 93.7747 254.756 91.4409 256.559C92.67 250.811 94.7891 237.502 88.8622 237.12C83.6244 236.818 81.9942 249.656 81.5107 254.87V254.875C81.501 254.891 81.4935 254.908 81.488 254.926C80.0288 246.851 77.1828 226.441 82.8469 213.856C83.9939 214.404 85.309 214.49 86.5178 214.095C87.7267 213.701 88.736 212.857 89.3352 211.74C89.9343 210.622 90.0771 209.318 89.7338 208.098C89.3904 206.878 88.5874 205.838 87.4922 205.193C86.3971 204.549 85.0944 204.35 83.8558 204.639C82.6172 204.928 81.5385 205.682 80.8445 206.743C80.1505 207.805 79.8949 209.092 80.1311 210.337C80.3672 211.582 81.0768 212.688 82.1119 213.424C76.765 225.093 78.6586 243.046 80.1831 252.419C77.6935 246.479 73.1761 237.621 68.6925 238.908C64.3081 240.134 67.1954 249.847 68.6201 254.149C65.9243 249.467 62.332 244.515 58.0826 241.753C58.2553 241.286 58.3166 240.786 58.2615 240.292C58.2065 239.797 58.0366 239.323 57.7653 238.905C57.3884 238.322 56.8335 237.876 56.1822 237.631C55.531 237.386 54.818 237.356 54.1485 237.546C53.479 237.735 52.8883 238.134 52.4637 238.683C52.0391 239.232 51.8029 239.903 51.7901 240.596C51.7773 241.289 51.9885 241.968 52.3926 242.532C52.7966 243.096 53.3722 243.516 54.0343 243.73C54.6963 243.944 55.4099 243.941 56.0697 243.72C56.7296 243.499 57.3007 243.073 57.6988 242.505C63.4414 246.298 68.0527 254.434 70.7152 260.025C66.783 256.803 56.7577 249.115 53.7946 252.044C52.9539 252.87 52.5695 253.918 52.6586 255.149C53.0264 260.391 61.9097 267.8 64.9173 270.169H54.5867C54.5319 270.169 54.4776 270.179 54.4269 270.2C54.3762 270.221 54.3302 270.252 54.2914 270.29C54.2526 270.329 54.2218 270.375 54.2009 270.425C54.1799 270.476 54.1691 270.53 54.1691 270.585C54.1691 270.639 54.1799 270.693 54.2009 270.744C54.2218 270.794 54.2526 270.84 54.2914 270.879C54.3302 270.917 54.3762 270.948 54.4269 270.969C54.4776 270.99 54.5319 271.001 54.5867 271.001H250.464C250.574 271.001 250.681 270.957 250.759 270.879C250.837 270.801 250.881 270.695 250.881 270.585C250.881 270.474 250.837 270.368 250.759 270.29C250.681 270.212 250.574 270.169 250.464 270.169H235.299C235.706 269.782 235.993 269.286 236.127 268.742C236.26 268.197 236.233 267.626 236.051 267.096L232.102 255.439C232.02 255.201 231.893 254.981 231.729 254.79L233.054 247.438H238.596C244.098 247.438 247.993 242.022 246.137 236.807L225.208 177.914C224.498 175.916 224.355 173.762 224.796 171.688L228.01 156.569C283.489 138.642 278.859 140.136 279.167 140.036C284.351 138.36 287.202 132.791 285.515 127.633ZM80.8781 209.455C80.8785 208.659 81.116 207.881 81.5604 207.22C82.0048 206.558 82.6362 206.043 83.3749 205.739C84.1135 205.434 84.9261 205.355 85.71 205.511C86.4939 205.667 87.2138 206.05 87.7786 206.613C88.3435 207.176 88.728 207.894 88.8834 208.675C89.0389 209.455 88.9584 210.264 88.652 211C88.3457 211.735 87.8273 212.363 87.1624 212.805C86.4976 213.246 85.7161 213.482 84.9167 213.481C84.386 213.481 83.8606 213.377 83.3703 213.175C82.8801 212.972 82.4348 212.675 82.0598 212.302C81.6847 211.928 81.3873 211.484 81.1846 210.995C80.9818 210.507 80.8777 209.984 80.8781 209.455ZM56.3386 242.676C55.9376 242.934 55.4688 243.068 54.9914 243.06C54.514 243.053 54.0496 242.905 53.6568 242.635C53.264 242.364 52.9605 241.984 52.7848 241.542C52.609 241.1 52.5688 240.616 52.6693 240.151C52.7698 239.687 53.0064 239.262 53.3493 238.931C53.6922 238.6 54.1259 238.378 54.5956 238.293C55.0653 238.207 55.5498 238.263 55.9879 238.452C56.4261 238.64 56.7981 238.955 57.057 239.354C57.4034 239.889 57.5225 240.54 57.3884 241.162C57.2542 241.785 56.8777 242.329 56.3413 242.676H56.3386ZM68.9207 239.704C73.365 238.433 78.6839 250.391 80.8841 256.486C80.3267 258.283 80.0261 260.418 79.8645 261.927C78.662 258.843 76.0441 253.181 73.3151 253.957C70.4232 254.762 72.9067 261.728 74.0055 264.512C73.8219 264.362 73.627 264.207 73.4149 264.048C72.6174 262.044 63.3676 241.246 68.9233 239.704H68.9207ZM66.2748 270.17C65.0444 269.233 53.877 260.598 53.4926 255.096C53.4201 254.102 53.7101 253.293 54.3839 252.633C56.8681 250.182 67.5279 258.356 71.5379 261.812C71.7374 262.261 71.9223 262.677 72.0893 263.065C69.6782 261.343 66.6872 259.66 65.5006 260.825C63.0271 263.258 68.1545 267.986 70.8362 270.17H66.2748ZM72.1844 270.17C69.9629 268.49 64.1085 263.387 66.0853 261.418C67.2951 260.214 73.3723 265.035 74.7577 266.221C74.8295 266.283 74.9203 266.318 75.0152 266.322C75.1101 266.326 75.2035 266.297 75.2799 266.241C75.3564 266.185 75.4114 266.105 75.4359 266.013C75.4605 265.922 75.453 265.825 75.4149 265.738C74.4411 263.526 71.3683 255.414 73.5432 254.757C75.6098 254.158 78.4392 260.109 79.7288 263.997C79.7618 264.089 79.8249 264.166 79.9079 264.218C79.9908 264.269 80.0888 264.291 80.1857 264.279C80.282 264.266 80.3704 264.219 80.4355 264.147C80.5007 264.075 80.5384 263.983 80.5423 263.886C80.6533 261.73 81.087 258.529 81.7674 256.443V256.438C82.0887 255.458 82.7578 253.812 83.7894 253.855C86.2503 254.011 84.9979 261.364 84.4132 263.771C84.3937 263.857 84.4017 263.946 84.436 264.027C84.4704 264.107 84.5293 264.175 84.6045 264.221C84.6797 264.266 84.7673 264.287 84.855 264.28C84.9427 264.273 85.0259 264.239 85.093 264.182C86.2064 263.222 89.381 260.982 90.6401 262.163C92.4166 263.827 89.075 268.38 87.4821 270.172L72.1844 270.17ZM88.5868 270.17C90.102 268.351 93.5273 263.714 91.2154 261.56C89.6856 260.129 86.9327 261.765 85.4734 262.824C86.09 259.722 87.0178 253.232 83.8472 253.022C83.3624 252.994 82.9061 253.161 82.4937 253.504C82.9593 249.311 84.5981 237.656 88.8123 237.948C93.963 238.279 91.6523 252.933 90.3607 257.531C90.3398 257.617 90.3467 257.707 90.3804 257.788C90.4142 257.87 90.4729 257.939 90.5484 257.985C90.6238 258.031 90.712 258.052 90.8003 258.046C90.8885 258.039 90.9724 258.004 91.0398 257.947C91.1236 257.875 99.0717 251.092 102.252 254.065C106.508 258.052 97.256 268.828 96.0661 270.171L88.5868 270.17ZM259.738 130.798C259.716 130.832 259.699 130.87 259.688 130.909C258.396 135.612 255.94 142.351 254.531 142.6C254.475 142.612 254.325 142.633 254.102 142.328C253.598 141.612 254.541 140.331 254.731 138.358C254.782 137.873 254.098 137.716 253.929 138.169C253.107 140.288 252.044 144.545 251.317 144.663C251.278 144.663 251.139 144.608 250.938 144.325C250.259 143.393 250.32 141.768 250.66 139.278C250.726 138.799 250.044 138.609 249.858 139.073C248.993 141.316 248.062 145.348 247.435 145.446C245.94 144.961 246.643 140.236 246.923 138.696C247 138.209 246.324 138.003 246.124 138.457C245.336 140.296 244.528 143.365 244.062 143.499C244.062 143.499 243.957 143.471 243.767 143.21C242.052 140.814 245.461 133.433 247.014 130.599C247.042 130.548 247.065 130.499 247.093 130.454C247.132 130.383 247.15 130.301 247.143 130.219C247.136 130.138 247.104 130.06 247.053 129.997C247.002 129.933 246.933 129.885 246.854 129.861C246.776 129.836 246.692 129.835 246.613 129.858H246.608L241.244 131.471C241.784 129.153 245.332 125.82 249.281 124.866C249.34 124.852 249.395 124.826 249.442 124.788C249.489 124.751 249.527 124.704 249.554 124.65C249.905 123.962 258.076 107.757 253.002 97.2969C255.167 94.9609 258.023 92.4196 260.955 91.1069H260.961C264.014 89.7101 266.022 89.8942 266.216 89.8651C270.913 103.729 265.98 121.038 259.738 130.798ZM240.807 124.326C240.807 124.32 240.813 124.32 240.813 124.315C240.891 124.165 248.304 109.501 250.543 94.6648C251.379 95.9365 251.899 96.9876 252.192 97.5267C256.937 107.061 249.763 122.335 248.894 124.104C244.704 125.202 240.506 129.029 240.345 131.879L232.724 134.344L233.699 129.746C239.091 127.944 240.601 124.821 240.807 124.328V124.326ZM233.918 128.746L235.906 119.368C238.279 121.392 239.593 123.489 239.971 124.136C239.641 124.783 238.178 127.167 233.918 128.748V128.746ZM210.052 37.5749C210.049 37.1377 210.14 36.7049 210.318 36.3053C210.359 36.2156 210.367 36.1142 210.339 36.0195C210.311 35.9248 210.251 35.8431 210.167 35.7893C209.425 35.2927 208.817 34.6214 208.397 33.8349C207.978 33.0484 207.759 32.171 207.761 31.2803C207.761 28.5516 209.833 26.2388 212.49 25.8785H212.494C212.116 27.2736 212.251 28.7576 212.877 30.0617C212.899 30.113 212.931 30.1594 212.971 30.198C213.012 30.2367 213.06 30.2668 213.112 30.2866C213.164 30.3065 213.22 30.3156 213.276 30.3135C213.332 30.3114 213.387 30.298 213.438 30.2743C213.489 30.2505 213.534 30.2168 213.572 30.1752C213.609 30.1336 213.638 30.085 213.656 30.0321C213.674 29.9793 213.681 29.9234 213.677 29.8677C213.673 29.812 213.658 29.7577 213.632 29.708C213.324 29.0643 213.151 28.365 213.123 27.6526C213.095 26.9402 213.213 26.2295 213.47 25.5639C213.473 25.554 213.47 25.5441 213.474 25.5341C213.479 25.5188 213.485 25.5041 213.492 25.4904V25.4845C214.712 22.0298 218.614 19.617 222.994 19.617C227.639 19.617 231.605 22.2232 232.638 25.9507C232.661 26.0324 232.709 26.1051 232.774 26.1588C232.84 26.2124 232.921 26.2443 233.006 26.2501C238.415 26.6919 241.304 32.9752 238.061 37.3312C238.016 37.3941 237.988 37.468 237.981 37.5452C237.975 37.6223 237.989 37.6999 238.023 37.7697C238.557 38.8177 238.834 39.9773 238.83 41.1527C238.829 42.6684 238.369 44.1484 237.509 45.3991C236.649 46.6499 235.43 47.6131 234.012 48.1626V45.8777C234.536 45.7695 235.027 45.5418 235.447 45.2126C235.868 44.8833 236.206 44.4615 236.435 43.9801C236.664 43.4988 236.778 42.9712 236.767 42.4387C236.757 41.9062 236.623 41.3833 236.375 40.9112C236.128 40.4391 235.773 40.0306 235.34 39.7178C234.908 39.4051 234.408 39.1966 233.88 39.1087C233.353 39.0208 232.812 39.0559 232.3 39.2113C231.789 39.3667 231.32 39.6382 230.932 40.0043C226.191 38.9757 223.955 33.5362 226.499 29.5113C226.557 29.417 226.576 29.3036 226.551 29.1957C226.526 29.0877 226.46 28.9938 226.366 28.9344C226.272 28.8763 226.159 28.8576 226.051 28.8824C225.944 28.9073 225.85 28.9736 225.792 29.0669C225.088 30.1879 224.681 31.4687 224.61 32.7891H215.794C214.681 32.7896 213.614 33.2296 212.827 34.0124C212.04 34.7952 211.596 35.8571 211.594 36.965V40.2765C211.123 39.9986 210.734 39.6033 210.463 39.1295C210.193 38.6557 210.051 38.1199 210.052 37.5749ZM222.366 55.8905C223.329 55.8374 224.282 55.6718 225.206 55.3971C225.313 55.3643 225.402 55.2914 225.455 55.194C225.508 55.0966 225.521 54.9824 225.49 54.8758C225.458 54.771 225.386 54.683 225.289 54.6311C225.192 54.5791 225.078 54.5674 224.972 54.5983C223.156 55.1282 222.004 55.062 221.948 55.062C216.607 54.6235 212.43 50.1085 212.43 44.7623V36.965C212.432 36.0777 212.787 35.2276 213.418 34.6008C214.048 33.974 214.903 33.6216 215.794 33.6209H224.61C224.61 33.6766 224.635 34.025 224.682 34.3362C224.793 35.085 225.012 35.8137 225.334 36.4994V36.5046C225.816 37.525 226.513 38.4297 227.378 39.1572C228.243 39.8846 229.256 40.4175 230.346 40.7196C230.014 41.2584 229.838 41.8787 229.84 42.5112C229.84 42.6215 229.884 42.7273 229.962 42.8053C230.04 42.8833 230.147 42.9271 230.257 42.9271C230.368 42.9271 230.474 42.8833 230.553 42.8053C230.631 42.7273 230.675 42.6215 230.675 42.5112C230.686 41.8255 230.967 41.1716 231.458 40.6905C231.949 40.2095 232.61 39.9399 233.299 39.9399C233.987 39.9399 234.648 40.2095 235.139 40.6905C235.63 41.1716 235.911 41.8255 235.922 42.5112C235.922 45.1107 233.232 45.122 233.176 45.1458C233.09 45.1704 233.015 45.2221 232.962 45.2931C232.909 45.3641 232.88 45.4506 232.881 45.5392C232.881 45.6278 232.91 45.714 232.963 45.7849C233.016 45.8559 233.091 45.908 233.176 45.9333V60.3644C233.176 62.5189 229.963 63.3448 227.768 63.3448C221.616 63.3448 222.41 59.8286 222.365 59.7736L222.366 55.8905ZM221.542 60.6161C221.737 63.062 224.861 64.1767 227.769 64.1767C230.086 64.1767 232.531 63.472 233.533 61.9526C234.597 62.2175 235.705 62.5487 236.179 62.701C234.987 65.2635 231.812 66.8385 227.774 66.8385C222.7 66.8385 219.113 64.3542 218.869 60.732C219.631 60.6724 220.775 60.6141 221.542 60.6141V60.6161ZM163.166 103.142C145.751 97.8433 137.051 77.4527 136.961 77.3467C135.179 75.3313 127.948 66.5259 130.45 66.4153H130.483C131.332 66.4153 131.895 67.8724 133.435 69.1274C133.513 69.1919 133.612 69.2257 133.714 69.2226C133.815 69.2194 133.912 69.1795 133.986 69.1102C134.06 69.04 134.105 68.9458 134.114 68.845C134.123 68.7442 134.096 68.6435 134.037 68.5612C133.53 67.8624 132.939 67.1359 132.374 66.4371C129.591 63.0156 129.704 62.7143 130.525 62.6885C131.672 62.6328 133.003 63.5865 134.908 65.239C135.287 65.5635 135.809 65.0807 135.527 64.6846C133.212 61.4665 130.472 59.106 131.945 59.055C133.616 58.9835 135.883 60.9578 137.448 62.4441C137.816 62.7845 138.359 62.3116 138.083 61.9142C137.038 60.3247 134.853 57.8854 134.997 57.4277C134.997 57.4277 135.075 57.3555 135.396 57.3443C138.281 57.239 142.509 63.8554 144.101 66.806C143.421 67.5107 142.046 69.3162 142.566 72.0204C142.587 72.1288 142.65 72.2245 142.741 72.2865C142.833 72.3485 142.946 72.3716 143.055 72.3509C143.163 72.3302 143.26 72.2673 143.322 72.176C143.384 72.0847 143.407 71.9725 143.386 71.8641C142.793 68.7784 144.97 67.1981 145.003 67.1432C146.078 65.3403 148.016 63.0368 148.957 63.5548C150.55 64.431 149.074 69.1844 147.776 71.9793C147.749 72.0334 147.734 72.0932 147.734 72.1539C147.734 72.2145 147.749 72.2743 147.776 72.3284C147.837 72.4608 154.237 85.9554 165.883 87.3629C176.692 88.6716 183.236 83.8089 188.63 78.223C191.741 83.7069 189.709 93.9926 188.332 100.167C179.463 104.528 171.025 105.532 163.166 103.142ZM197.154 95.7318C197.154 95.7265 197.159 95.7153 197.159 95.7093V95.704C197.216 95.647 199.221 89.5809 198.501 84.9891C198.493 84.9352 198.475 84.8833 198.447 84.8366C198.419 84.7898 198.382 84.749 198.338 84.7165C198.294 84.684 198.244 84.6605 198.191 84.6472C198.138 84.634 198.083 84.6314 198.028 84.6394C197.918 84.6567 197.82 84.7166 197.754 84.8061C197.688 84.8956 197.661 85.0073 197.677 85.1169C198.095 87.7841 197.666 91.2288 196.402 95.349C193.798 97.1763 190.984 98.793 189.317 99.603C190.719 93.1614 192.61 83.1777 189.245 77.5792C192.538 74.0928 195.364 70.4964 198.557 67.7849C202.929 64.0853 210.186 61.4844 218.039 60.7969C218.295 64.8675 222.229 67.6684 227.775 67.6684C232.192 67.6684 235.673 65.8801 236.976 62.966C238.864 63.6062 240.7 64.3904 242.468 65.3119C252.626 70.362 261.852 77.9759 265.787 88.6782C265.787 88.6782 265.793 88.6782 265.793 88.6835C265.793 88.6888 265.798 88.6948 265.798 88.7001C265.843 88.8054 265.876 88.916 265.921 89.0272C260.717 89.2259 256.117 92.7203 252.593 96.5034C249.7 91.0539 245.687 87.545 240.468 85.4223C240.417 85.4009 240.363 85.3899 240.308 85.3898C240.253 85.3897 240.198 85.4005 240.147 85.4217C240.096 85.4428 240.05 85.4739 240.012 85.513C239.973 85.5521 239.943 85.5985 239.922 85.6494C239.881 85.7517 239.881 85.8662 239.924 85.9681C239.967 86.0699 240.048 86.1508 240.15 86.1932C244.188 87.8351 247.363 90.281 249.842 93.6634C248.104 106.38 242.339 119.204 240.585 122.886C240.518 123.025 240.457 123.151 240.401 123.263C240.173 122.914 239.844 122.443 239.41 121.899V121.894C233.757 114.812 224.948 111.94 214.324 116.148C202.942 120.642 192.003 121.636 184.793 120.424C184.743 120.418 184.699 120.408 184.654 120.402C189.233 113.563 194.702 103.69 197.153 95.7318H197.154ZM154.032 245.908L151.359 252.247C151.188 252.128 150.997 252.038 150.797 251.982C149.722 251.682 148.084 251.56 146.397 252.68C144.174 254.161 142.693 252.209 142.648 252.15C142.503 251.935 139.279 247.038 136.22 246.5L137.909 242.327L154.032 245.908ZM183.017 167.543C180.271 171.273 178.494 175.621 177.843 180.2L169.365 240.508C168.793 244.555 164.886 247.326 160.817 246.437C160.76 246.424 132.586 240.298 128.558 239.443C124.356 238.531 121.948 234.154 123.378 230.159L147.428 162.879C148.551 159.718 150.327 156.827 152.642 154.393L184.11 121.145C185.452 121.41 192.108 122.51 201.961 120.629L192.086 155.258L183.017 167.543ZM232.191 247.484L230.977 254.253C230.784 254.173 230.579 254.125 230.37 254.114C229.25 254.059 227.629 254.296 226.226 255.755C224.388 257.68 222.511 256.105 222.45 256.05C222.26 255.866 218.038 251.79 214.942 251.934L215.683 247.436L232.191 247.484ZM223.975 171.514C223.503 173.738 223.657 176.049 224.421 178.192L245.352 237.08C247.008 241.759 243.527 246.603 238.596 246.603H208.67C205.323 246.603 202.377 244.235 201.669 240.979L189.806 186.506C188.175 178.985 188.424 171.18 190.53 163.777C194.352 150.357 197.125 140.627 202.884 120.445C206.003 119.843 210.375 118.597 214.635 116.918C221.775 114.093 229.087 114.063 235.176 118.776C232.537 131.201 238.631 102.506 231.806 134.643C221.451 138.008 208.771 142.039 207.54 142.53C207.46 142.608 205.227 143.325 203.19 145.669L194.613 155.568C193.823 156.499 194.296 157.91 195.466 158.18L208.248 161.181C210.443 161.683 212.678 161.539 214.541 160.92L227.09 156.866L223.975 171.514ZM213.134 160.427C211.583 160.747 209.981 160.729 208.438 160.372L199.868 158.358C200.236 157.373 200.259 156.293 199.933 155.293C199.607 154.293 198.951 153.432 198.072 152.85L203.824 146.213C204.859 145.016 206.144 144.06 207.59 143.412H207.595C211.978 148.307 213.707 153.76 213.132 160.427H213.134ZM213.991 160.222C214.571 153.879 212.753 147.981 208.416 143.079C208.472 143.063 207.21 143.465 245.878 130.972C244.535 133.579 241.082 140.899 243.093 143.694C243.433 144.166 243.8 144.383 244.179 144.322C244.83 144.227 245.22 143.428 245.671 142.175C245.618 144.075 246.342 146.574 247.57 146.268C248.417 146.13 248.891 144.848 249.587 142.591C249.637 143.462 249.826 144.216 250.261 144.81C250.623 145.326 251.024 145.553 251.447 145.486C252.199 145.369 252.717 144.343 253.313 142.638C253.594 143.151 254.092 143.534 254.677 143.426C257.1 142.993 259.896 133.298 260.481 131.197C260.687 130.858 261.785 129.061 263.121 126.216C263.437 126.636 265.449 130.53 266.346 133.382C267.199 135.79 267.972 139.157 268.312 142.672L213.991 160.222ZM269.125 142.402C269.126 142.389 269.124 142.376 269.119 142.364C268.826 139.319 268.197 136.315 267.244 133.407C266.193 130.189 265.078 128.011 263.551 125.281C263.556 125.271 263.556 125.265 263.562 125.254L266.899 124.178C269.153 127.553 270.902 131.553 271.78 135.699C272.237 137.846 272.482 140.276 272.482 141.317L269.125 142.402ZM278.911 139.241L273.313 141.049C273.239 140.233 273.187 137.092 272.032 133.262C271.061 129.952 269.608 126.801 267.719 123.91L273.317 122.096C274.448 121.73 275.64 121.589 276.825 121.683C278.011 121.776 279.166 122.1 280.225 122.638C281.284 123.176 282.227 123.916 282.999 124.816C283.771 125.717 284.357 126.76 284.724 127.886C286.261 132.613 283.654 137.705 278.909 139.241H278.911Z" fill="#101010"/>
<path d="M223.993 38.7403H221.214C221.103 38.7403 220.997 38.7841 220.918 38.8621C220.84 38.9401 220.796 39.0459 220.796 39.1562C220.796 39.2665 220.84 39.3723 220.918 39.4503C220.997 39.5283 221.103 39.5721 221.214 39.5721H223.993C224.104 39.5721 224.21 39.5283 224.288 39.4503C224.367 39.3723 224.411 39.2665 224.411 39.1562C224.412 39.1014 224.401 39.047 224.38 38.9962C224.36 38.9454 224.329 38.8993 224.29 38.8605C224.251 38.8217 224.205 38.7912 224.154 38.7705C224.103 38.7499 224.048 38.7396 223.993 38.7403Z" fill="#101010"/>
<path d="M216.468 39.5721C216.867 39.5721 216.911 39.1006 216.886 39.1562C216.886 39.1015 216.875 39.0473 216.854 38.9968C216.833 38.9462 216.803 38.9003 216.764 38.8616C216.725 38.823 216.679 38.7924 216.628 38.7715C216.577 38.7507 216.523 38.7401 216.468 38.7402H213.689C213.578 38.7402 213.472 38.7841 213.394 38.8621C213.315 38.9401 213.271 39.0459 213.271 39.1562C213.271 39.2665 213.315 39.3723 213.394 39.4503C213.472 39.5283 213.578 39.5721 213.689 39.5721H216.468Z" fill="#101010"/>
<path d="M215.838 41.336C215.836 41.1343 215.756 40.9413 215.613 40.7982C215.471 40.655 215.277 40.5733 215.075 40.5703C214.923 40.5697 214.775 40.6138 214.649 40.6971C214.522 40.7804 214.423 40.8992 214.365 41.0384C214.306 41.1776 214.29 41.331 214.319 41.4791C214.348 41.6273 214.421 41.7635 214.528 41.8707C214.634 41.9778 214.771 42.051 214.919 42.081C215.068 42.111 215.222 42.0965 215.362 42.0393C215.502 41.982 215.622 41.8846 215.707 41.7594C215.792 41.6342 215.837 41.4869 215.838 41.336Z" fill="#101010"/>
<path d="M222.41 40.5704C222.258 40.5687 222.11 40.6119 221.982 40.6945C221.855 40.7772 221.756 40.8956 221.696 41.0347C221.637 41.1738 221.621 41.3274 221.649 41.4759C221.677 41.6244 221.749 41.7611 221.856 41.8688C221.962 41.9765 222.099 42.0502 222.247 42.0806C222.396 42.1111 222.55 42.0968 222.691 42.0398C222.831 41.9827 222.952 41.8853 223.037 41.76C223.122 41.6347 223.167 41.4872 223.168 41.336C223.169 41.1346 223.089 40.9411 222.948 40.7976C222.806 40.6542 222.612 40.5725 222.41 40.5704Z" fill="#101010"/>
<path d="M234.113 43.1882C234.224 43.1882 234.33 43.1444 234.408 43.0664C234.487 42.9884 234.531 42.8826 234.531 42.7723C234.531 42.662 234.487 42.5562 234.408 42.4782C234.33 42.4002 234.224 42.3564 234.113 42.3564C234.024 42.357 233.936 42.3401 233.853 42.3067C233.771 42.2732 233.696 42.2239 233.633 42.1616C233.57 42.0992 233.52 42.0251 233.485 41.9434C233.451 41.8617 233.433 41.774 233.433 41.6854C233.433 41.6308 233.422 41.5767 233.401 41.5263C233.38 41.4758 233.35 41.43 233.311 41.3914C233.272 41.3527 233.226 41.3221 233.175 41.3012C233.125 41.2803 233.07 41.2695 233.015 41.2695C232.961 41.2695 232.906 41.2803 232.856 41.3012C232.805 41.3221 232.759 41.3527 232.72 41.3914C232.681 41.43 232.651 41.4758 232.63 41.5263C232.609 41.5767 232.598 41.6308 232.598 41.6854C232.6 42.0844 232.76 42.4663 233.044 42.7479C233.328 43.0294 233.712 43.1877 234.113 43.1882Z" fill="#101010"/>
<path d="M218.225 45.0238H219.205C219.316 45.0238 219.422 44.98 219.501 44.902C219.579 44.824 219.623 44.7182 219.623 44.6078C219.623 44.4975 219.579 44.3917 219.501 44.3137C219.422 44.2357 219.316 44.1919 219.205 44.1919H218.225C218.174 44.1923 218.124 44.1798 218.079 44.1557C218.034 44.1317 217.996 44.0967 217.968 44.0542C217.941 44.0116 217.924 43.9628 217.92 43.9122C217.917 43.8616 217.926 43.8109 217.947 43.7647L219.35 40.5923C219.373 40.5424 219.385 40.4886 219.387 40.434C219.388 40.3794 219.379 40.325 219.359 40.2739C219.339 40.2229 219.31 40.1763 219.272 40.1367C219.234 40.0971 219.189 40.0653 219.139 40.0432C219.037 40.0001 218.922 39.9986 218.819 40.039C218.716 40.0794 218.632 40.1584 218.587 40.2591L217.178 43.4316C217.102 43.6047 217.07 43.7939 217.086 43.9822C217.101 44.1706 217.164 44.352 217.268 44.5101C217.372 44.6682 217.514 44.798 217.681 44.8877C217.848 44.9774 218.035 45.0242 218.225 45.0238Z" fill="#101010"/>
<path d="M221.737 46.3987C221.41 46.5052 221.077 46.5906 220.739 46.6544C218.667 47.0921 216.98 46.765 215.983 46.4431C215.639 46.336 215.305 46.1989 214.985 46.0331C214.959 46.0193 214.929 46.013 214.899 46.015C214.87 46.017 214.841 46.0272 214.817 46.0444C214.793 46.0616 214.773 46.0853 214.762 46.1126C214.75 46.14 214.747 46.17 214.751 46.1994C215.202 48.2227 216.265 51.3959 218.338 51.3959C220.497 51.3959 221.587 48.7181 221.947 46.5709C221.949 46.5445 221.944 46.5179 221.934 46.4936C221.923 46.4692 221.907 46.4477 221.887 46.4308C221.866 46.4139 221.842 46.4022 221.816 46.3966C221.79 46.3911 221.763 46.3918 221.737 46.3987Z" fill="#101010"/>
<path d="M219.766 50.0907C219.441 50.4696 218.986 50.7141 218.49 50.7762C218.433 50.7826 218.376 50.7853 218.319 50.7841C217.662 50.7841 217.152 50.353 216.764 49.7748C217.09 49.3961 217.545 49.1517 218.041 49.0893C218.098 49.0828 218.154 49.0802 218.211 49.0813C218.869 49.0813 219.38 49.5132 219.766 50.0907Z" fill="#FF4D4F"/>
<path d="M220.737 46.6526C220.549 47.1416 220.21 47.5592 219.77 47.8462C219.33 48.1333 218.811 48.2753 218.285 48.2521C217.76 48.229 217.255 48.0419 216.842 47.7173C216.429 47.3927 216.129 46.947 215.984 46.4434C216.984 46.7679 218.666 47.0924 220.737 46.6526Z" fill="white"/>
</g>
<defs>
<clipPath id="clip0_27943_11059">
<rect width="286" height="271" fill="white"/>
</clipPath>
</defs>
</svg>
