<svg width="60" height="60" viewBox="0 0 60 60" fill="none" xmlns="http://www.w3.org/2000/svg">
<rect width="60" height="60" rx="30" fill="#00695C"/>
<path d="M37.1491 28.0784C37.8701 27.5952 38.3871 26.8743 38.6151 26.0236C38.8643 25.0937 38.7379 24.1251 38.2592 23.296C37.7806 22.467 37.0049 21.8732 36.075 21.624C35.2243 21.3961 34.3415 21.4834 33.5625 21.8662L31.5553 18.3897C31.128 17.6496 30.3606 17.2182 29.5085 17.2327C28.6541 17.2484 27.9054 17.7085 27.5053 18.4636C27.2244 18.9941 26.9605 19.5452 26.6812 20.1287C25.5428 22.5067 24.2525 25.202 21.463 26.8125L17.8787 28.8819C16.6449 29.5943 15.7611 30.749 15.3901 32.1335C15.0191 33.518 15.2071 34.96 15.9194 36.1938C16.9097 37.9091 18.7127 38.8691 20.564 38.8691C21.2393 38.8691 21.9209 38.7411 22.572 38.4758L25.0778 42.8159C25.5962 43.7138 26.5398 44.2163 27.5089 44.2163C27.9839 44.2163 28.4651 44.0955 28.9052 43.8414C29.5513 43.4684 30.014 42.864 30.2082 42.1395C30.4022 41.4151 30.3037 40.6603 29.9307 40.0141L27.465 35.7435C30.0609 34.5094 32.7857 34.7188 35.2117 34.9063C35.8572 34.9562 36.4669 35.0033 37.0672 35.0253C37.92 35.0558 38.6941 34.6381 39.1347 33.9059C39.5754 33.1738 39.5835 32.295 39.1562 31.5549L37.149 28.0783L37.1491 28.0784ZM35.6959 23.0389C36.2478 23.1868 36.7077 23.5382 36.9907 24.0284C37.5371 24.9748 37.2723 26.1701 36.4141 26.8054L34.2975 23.1393C34.7356 22.9491 35.2237 22.9123 35.6959 23.0389H35.6959ZM20.5616 37.4046C19.217 37.4045 17.9073 36.7072 17.1881 35.4614C16.6714 34.5665 16.5354 33.5193 16.8051 32.5127C17.0748 31.5061 17.7163 30.6672 18.6112 30.1505L21.5615 28.4472L25.453 35.1791L22.499 36.8846C21.8883 37.2372 21.2209 37.4047 20.5616 37.4046ZM28.7933 41.7605C28.7005 42.107 28.4801 42.3955 28.1728 42.5729C27.5344 42.9415 26.715 42.7221 26.3464 42.0836L23.8657 37.7869L26.1814 36.4499L28.6621 40.7466C28.8395 41.0539 28.8861 41.414 28.7932 41.7605H28.7933ZM37.8798 33.1506C37.7132 33.4274 37.4446 33.574 37.1208 33.5615C36.5502 33.5407 35.9549 33.4946 35.3246 33.4459C32.6772 33.2414 29.7006 33.012 26.7342 34.4684L22.8176 27.6929C25.5654 25.8503 26.8556 23.157 28.0025 20.7612C28.2752 20.1915 28.5329 19.6534 28.7998 19.1493C28.951 18.8637 29.2122 18.7033 29.5353 18.6974C29.5414 18.6973 29.5475 18.6972 29.5536 18.6972C29.8683 18.6972 30.1282 18.8476 30.2867 19.1221L37.8878 32.2875C38.0493 32.5673 38.0465 32.8739 37.8798 33.1507L37.8798 33.1506ZM35.9772 18.7696L37.4897 16.1498C37.692 15.7995 38.1399 15.6794 38.4902 15.8817C38.8405 16.084 38.9605 16.532 38.7583 16.8822L37.2457 19.5021C37.1101 19.737 36.8639 19.8684 36.6108 19.8684C36.4865 19.8684 36.3606 19.8368 36.2453 19.7701C35.8949 19.5679 35.7749 19.1199 35.9772 18.7696ZM42.7772 21.5333L40.0939 23.0825C39.9786 23.1491 39.8526 23.1808 39.7284 23.1808C39.4753 23.1808 39.2291 23.0494 39.0934 22.8144C38.8912 22.4641 39.0112 22.0162 39.3615 21.8139L42.0447 20.2647C42.395 20.0624 42.843 20.1825 43.0452 20.5328C43.2475 20.8831 43.1274 21.3311 42.7772 21.5333ZM44.7957 26.8031C44.7957 27.2076 44.4678 27.5355 44.0633 27.5355H41.0381C40.6336 27.5355 40.3057 27.2076 40.3057 26.8031C40.3057 26.3986 40.6336 26.0707 41.0381 26.0707H44.0633C44.4678 26.0707 44.7957 26.3986 44.7957 26.8031Z" fill="white"/>
</svg>
