<svg width="60" height="36" viewBox="0 0 60 36" fill="none" xmlns="http://www.w3.org/2000/svg">
<path d="M2.8125 12.4035H4.6875C7.11469 12.4035 9.03844 11.855 11.1722 11.1858L5.31281 6.83477H1.875C1.3575 6.83477 0.9375 6.41897 0.9375 5.90664C0.9375 5.39432 1.3575 4.97852 1.875 4.97852H5.625C5.8275 4.97852 6.02531 5.04349 6.1875 5.16414L13.3753 10.5018C16.3931 9.5978 20.2313 8.69102 26.25 8.69102C33.3975 8.69102 41.1816 12.669 42.4688 13.3548C43.9847 13.5117 53.3391 14.6412 59.6072 19.073C59.8538 19.2475 60 19.5287 60 19.8285V27.2535C60 28.7886 58.7381 30.0379 57.1875 30.0379H53.6137C52.6388 31.7002 50.8266 32.8223 48.75 32.8223C46.6734 32.8223 44.8603 31.7002 43.8862 30.0379H17.0522C16.0772 31.7002 14.265 32.8223 12.1884 32.8223C10.1119 32.8223 8.29875 31.7002 7.32469 30.0379H3.75C1.68187 30.0379 0 28.3728 0 26.3254V15.1879C0 13.6528 1.26188 12.4035 2.8125 12.4035ZM1.875 17.9723H3.75375C3.31875 17.6372 2.70937 17.33 1.875 17.1954V17.9723ZM58.125 20.7566H56.1834C56.6212 21.1223 57.2484 21.4629 58.125 21.6087V20.7566ZM48.75 30.966C50.8181 30.966 52.5 29.301 52.5 27.2535C52.5 25.2061 50.8181 23.541 48.75 23.541C46.6819 23.541 45 25.2061 45 27.2535C45 29.301 46.6819 30.966 48.75 30.966ZM12.1875 30.966C14.2556 30.966 15.9375 29.301 15.9375 27.2535C15.9375 25.2061 14.2556 23.541 12.1875 23.541C10.1194 23.541 8.4375 25.2061 8.4375 27.2535C8.4375 29.301 10.1194 30.966 12.1875 30.966ZM3.75 28.1817H6.64687C6.59531 27.8791 6.5625 27.57 6.5625 27.2535C6.5625 24.1824 9.08531 21.6848 12.1875 21.6848C15.2897 21.6848 17.8125 24.1824 17.8125 27.2535C17.8125 27.57 17.7797 27.8791 17.7281 28.1817H43.2094C43.1578 27.8791 43.125 27.57 43.125 27.2535C43.125 24.1824 45.6478 21.6848 48.75 21.6848C51.8522 21.6848 54.375 24.1824 54.375 27.2535C54.375 27.57 54.3422 27.8791 54.2906 28.1817H57.1875C57.7041 28.1817 58.125 27.7649 58.125 27.2535H56.25C55.7325 27.2535 55.3125 26.8377 55.3125 26.3254C55.3125 25.8131 55.7325 25.3973 56.25 25.3973H58.125V23.4816C54.5241 23.0547 53.5294 20.2517 53.4853 20.1218C53.3897 19.8387 53.4384 19.5278 53.6147 19.2856C53.7909 19.0433 54.0741 18.9004 54.375 18.9004H55.6622C49.5975 15.8961 42.1884 15.1916 42.1031 15.1842C41.9737 15.1721 41.8472 15.1341 41.7328 15.071C41.6503 15.0264 33.4134 10.5473 26.25 10.5473C19.3669 10.5473 15.6047 11.7353 12.285 12.784C9.77719 13.5757 7.61063 14.2598 4.6875 14.2598H2.8125C2.29594 14.2598 1.875 14.6765 1.875 15.1879V15.3234C5.47031 15.7392 6.46781 18.4735 6.51188 18.5988C6.61031 18.8818 6.56437 19.1955 6.38812 19.4387C6.21188 19.6837 5.92781 19.8285 5.625 19.8285H1.875V26.3254C1.875 27.3491 2.71594 28.1817 3.75 28.1817Z" fill="white"/>
<path d="M10.3125 26.325H11.25V25.3969C11.25 24.8846 11.67 24.4688 12.1875 24.4688C12.705 24.4688 13.125 24.8846 13.125 25.3969V26.325H14.0625C14.58 26.325 15 26.7408 15 27.2531C15 27.7655 14.58 28.1813 14.0625 28.1813H13.125V29.1094C13.125 29.6217 12.705 30.0375 12.1875 30.0375C11.67 30.0375 11.25 29.6217 11.25 29.1094V28.1813H10.3125C9.795 28.1813 9.375 27.7655 9.375 27.2531C9.375 26.7408 9.795 26.325 10.3125 26.325Z" fill="white"/>
<path d="M46.875 26.325H47.8125V25.3969C47.8125 24.8846 48.2325 24.4688 48.75 24.4688C49.2675 24.4688 49.6875 24.8846 49.6875 25.3969V26.325H50.625C51.1425 26.325 51.5625 26.7408 51.5625 27.2531C51.5625 27.7655 51.1425 28.1813 50.625 28.1813H49.6875V29.1094C49.6875 29.6217 49.2675 30.0375 48.75 30.0375C48.2325 30.0375 47.8125 29.6217 47.8125 29.1094V28.1813H46.875C46.3575 28.1813 45.9375 27.7655 45.9375 27.2531C45.9375 26.7408 46.3575 26.325 46.875 26.325Z" fill="white"/>
<path d="M20.625 25.3965H40.3125C40.83 25.3965 41.25 25.8123 41.25 26.3246C41.25 26.8369 40.83 27.2527 40.3125 27.2527H20.625C20.1075 27.2527 19.6875 26.8369 19.6875 26.3246C19.6875 25.8123 20.1075 25.3965 20.625 25.3965Z" fill="white"/>
<path d="M10.9813 14.1578C11.511 14.001 12.0378 13.8358 12.5713 13.6668C15.8253 12.6394 19.5135 11.4746 26.2503 11.4746C33.0791 11.4746 41.361 16.0401 41.7097 16.234C42.081 16.441 42.2647 16.8698 42.1569 17.2782C42.0491 17.6866 41.6769 17.9715 41.2503 17.9715H21.5628C12.965 17.9715 10.7835 15.9129 10.5641 15.6781C10.3438 15.4433 10.2613 15.1129 10.3466 14.8029C10.43 14.4938 10.671 14.2497 10.9813 14.1578ZM27.1878 13.3754V16.1152H37.1741C34.4619 14.9467 30.6435 13.5954 27.1878 13.3754ZM21.5628 16.1152H25.3128V13.3401C19.8716 13.4357 16.595 14.3527 13.7769 15.2354C15.215 15.6716 17.6403 16.1152 21.5628 16.1152Z" fill="white"/>
</svg>
