<svg width="20" height="20" viewBox="0 0 20 20" fill="none" xmlns="http://www.w3.org/2000/svg">
<g clip-path="url(#clip0_27095_16479)">
<path d="M18.6358 7.94648C18.6432 7.94219 18.6506 7.93789 18.658 7.93359C19.2397 7.59063 19.4866 6.87852 19.2494 6.24648C18.9237 5.3793 18.4643 4.58359 17.876 3.86797C17.4471 3.34609 16.7073 3.20391 16.1194 3.53633C16.1119 3.54062 16.1045 3.54492 16.0971 3.54883C15.3698 3.95977 14.4811 3.94805 13.7584 3.5293C13.7502 3.52461 13.7424 3.51992 13.7342 3.51523C13.0073 3.09766 12.5483 2.33359 12.5405 1.49492C12.5405 1.48633 12.5405 1.47773 12.5405 1.46914C12.5342 0.79375 12.0412 0.224219 11.3752 0.113672C10.4616 -0.0378906 9.54319 -0.0378906 8.62952 0.113672C7.96272 0.224219 7.46937 0.794531 7.46312 1.47031V1.49609C7.4553 2.33281 6.99866 3.09687 6.27327 3.51406C6.26937 3.51641 6.26546 3.51836 6.26155 3.5207C6.25765 3.52305 6.25374 3.525 6.24983 3.52734C5.52562 3.94727 4.63577 3.96094 3.90726 3.54883C3.89983 3.54453 3.89202 3.54023 3.8846 3.53594C3.29632 3.20352 2.55569 3.3457 2.1264 3.86758C1.53851 4.5832 1.07913 5.37852 0.753741 6.2457C0.516241 6.87773 0.763116 7.58984 1.34476 7.93281C1.35218 7.93711 1.3596 7.94141 1.36702 7.94609C2.08929 8.37187 2.52171 9.15156 2.51976 9.98984V10.018C2.52093 10.8535 2.08694 11.6289 1.36741 12.0531C1.35999 12.0574 1.35257 12.0617 1.34515 12.0664C0.763507 12.4094 0.516241 13.1215 0.753741 13.7535C1.07952 14.6207 1.5389 15.4164 2.12718 16.132C2.55608 16.6539 3.29593 16.7957 3.88382 16.4637C3.89124 16.4594 3.89866 16.4551 3.90608 16.4512C4.63343 16.0402 5.5221 16.052 6.24476 16.4707C6.25296 16.4754 6.26077 16.4801 6.26898 16.4848C6.99593 16.9023 7.45491 17.6664 7.46273 18.5051V18.5309C7.46898 19.2063 7.96194 19.7758 8.62796 19.8863C9.54163 20.0379 10.46 20.0379 11.3741 19.8863C12.0408 19.7758 12.5342 19.2055 12.5405 18.5297C12.5405 18.5211 12.5405 18.5125 12.5405 18.5039C12.5483 17.6672 13.0049 16.9031 13.7303 16.4859C13.7342 16.4836 13.7381 16.4816 13.742 16.4793C13.7459 16.477 13.7498 16.4746 13.7537 16.4727C14.478 16.0527 15.3678 16.0391 16.0963 16.4512C16.1037 16.4555 16.1112 16.4598 16.1186 16.4641C16.7069 16.7965 17.4475 16.6543 17.8768 16.1324C18.4647 15.4168 18.9241 14.6215 19.2494 13.7543C19.4869 13.1223 19.2401 12.4102 18.6584 12.0672C18.651 12.0629 18.6436 12.0586 18.6362 12.0539C17.9139 11.6281 17.4815 10.8484 17.4834 10.0102C17.4834 10.0008 17.4834 9.99141 17.4834 9.98242C17.4823 9.14688 17.9162 8.37148 18.6358 7.94727V7.94648ZM11.6326 12.827C10.0713 13.7281 8.07523 13.1934 7.17366 11.632C6.27249 10.0707 6.80726 8.07461 8.36858 7.17305C9.92991 6.27188 11.926 6.80664 12.8276 8.36758C13.7287 9.92891 13.194 11.925 11.6326 12.8266V12.827Z" fill="#64748B"/>
</g>
<defs>
<clipPath id="clip0_27095_16479">
<rect width="20" height="20" fill="white"/>
</clipPath>
</defs>
</svg>
