<svg width="60" height="36" viewBox="0 0 60 36" fill="none" xmlns="http://www.w3.org/2000/svg">
<path d="M12.6559 24.2812H5.82545C5.3243 24.2812 4.91797 23.8368 4.91797 23.2876C4.91797 22.7384 5.3243 22.2939 5.82545 22.2939H12.6559C13.157 22.2939 13.5634 22.7384 13.5634 23.2876C13.5634 23.8368 13.157 24.2812 12.6559 24.2812Z" fill="#00695C"/>
<path d="M56.8703 24.2812H52.2669C51.7657 24.2812 51.3594 23.8368 51.3594 23.2876C51.3594 22.7384 51.7657 22.2939 52.2669 22.2939H56.8703C57.3714 22.2939 57.7777 22.7384 57.7777 23.2876C57.7777 23.8368 57.3714 24.2812 56.8703 24.2812Z" fill="#00695C"/>
<path d="M44.2109 24.2812H20.7122C20.211 24.2812 19.8047 23.8368 19.8047 23.2876C19.8047 22.7384 20.211 22.2939 20.7122 22.2939H44.2109C44.712 22.2939 45.1183 22.7384 45.1183 23.2876C45.1183 23.8368 44.712 24.2812 44.2109 24.2812Z" fill="#00695C"/>
<path d="M42.1225 29.3134H22.8001C22.2989 29.3134 21.8926 28.869 21.8926 28.3198C21.8926 27.7706 22.2989 27.3262 22.8001 27.3262H42.1225C42.6236 27.3262 43.03 27.7706 43.03 28.3198C43.03 28.869 42.6236 29.3134 42.1225 29.3134Z" fill="#00695C"/>
<path d="M58.9883 29.3123H54.3574C53.8563 29.3123 53.4499 28.8679 53.4499 28.3187C53.4499 27.7694 53.8563 27.325 54.3574 27.325H58.0808V24.282H56.8725C56.6226 24.282 56.3837 24.1694 56.2122 23.9705C56.0408 23.7716 55.9521 23.5038 55.9663 23.2301L56.3992 15.1035C56.4298 14.5378 56.0496 14.0565 55.5343 14.008L40.8503 12.6233C40.5596 12.5961 40.2982 12.4166 40.1488 12.142L35.4373 3.48549C34.9339 2.56172 34.011 1.98727 33.0282 1.98727H9.54055C8.00785 1.98727 6.74988 3.35255 6.73614 5.03126V23.2884C6.73614 23.8376 6.32981 24.282 5.82866 24.282H4.85206V27.325H10.5712C11.0724 27.325 11.4787 27.7694 11.4787 28.3187C11.4787 28.8679 11.0724 29.3123 10.5712 29.3123H3.94459C3.44344 29.3123 3.03711 28.8679 3.03711 28.3187V23.2884C3.03711 22.7391 3.44344 22.2947 3.94459 22.2947H4.92119V5.02252C4.94379 2.24927 7.01574 0 9.54055 0H33.0282C34.6468 0 36.1671 0.94609 36.9962 2.46857L41.4697 10.6874L55.6898 12.0284C57.1919 12.1691 58.2997 13.5713 58.2111 15.2199L57.8344 22.2947H58.9883C59.4894 22.2947 59.8958 22.7391 59.8958 23.2884V28.3187C59.8958 28.8679 59.4894 29.3123 58.9883 29.3123Z" fill="#00695C"/>
<path d="M16.6853 35.9973C12.8126 35.9973 9.66211 32.5516 9.66211 28.317C9.66211 24.0765 12.8126 20.627 16.6853 20.627C20.558 20.627 23.7089 24.0765 23.7089 28.317C23.7089 32.5516 20.558 35.9973 16.6853 35.9973ZM16.6853 22.6142C13.8135 22.6142 11.4771 25.1721 11.4771 28.317C11.4771 31.456 13.8135 34.01 16.6853 34.01C19.5575 34.01 21.894 31.456 21.894 28.317C21.894 25.1721 19.5575 22.6142 16.6853 22.6142Z" fill="#00695C"/>
<path d="M16.6842 31.505C15.0739 31.505 13.7637 30.0767 13.7637 28.3203C13.7637 26.5572 15.0739 25.1221 16.6842 25.1221C18.2953 25.1221 19.606 26.5572 19.606 28.3203C19.606 30.0767 18.2953 31.505 16.6842 31.505ZM16.6842 27.1093C16.0745 27.1093 15.5786 27.6527 15.5786 28.3203C15.5786 28.9802 16.0745 29.5177 16.6842 29.5177C17.2943 29.5177 17.791 28.9802 17.791 28.3203C17.791 27.6527 17.2943 27.1093 16.6842 27.1093Z" fill="#00695C"/>
<path d="M48.2408 31.505C46.6306 31.505 45.3203 30.0767 45.3203 28.3203C45.3203 26.5572 46.6306 25.1221 48.2408 25.1221C49.8519 25.1221 51.1626 26.5572 51.1626 28.3203C51.1626 30.0767 49.8519 31.505 48.2408 31.505ZM48.2408 27.1093C47.6311 27.1093 47.1353 27.6527 47.1353 28.3203C47.1353 28.9802 47.6311 29.5177 48.2408 29.5177C48.851 29.5177 49.3477 28.9802 49.3477 28.3203C49.3477 27.6527 48.851 27.1093 48.2408 27.1093Z" fill="#00695C"/>
<path d="M48.238 35.9973C44.3653 35.9973 41.2148 32.5516 41.2148 28.317C41.2148 26.0968 42.0895 23.9892 43.6147 22.5366C44.893 21.3062 46.5365 20.627 48.238 20.627C49.94 20.627 51.5835 21.3062 52.8654 22.5405C54.387 23.9892 55.2617 26.0968 55.2617 28.317C55.2617 32.5516 52.1108 35.9973 48.238 35.9973ZM48.238 22.6142C46.9774 22.6142 45.7598 23.1178 44.8093 24.0329C43.6772 25.1119 43.0298 26.6713 43.0298 28.317C43.0298 31.456 45.3663 34.01 48.238 34.01C51.1102 34.01 53.4467 31.456 53.4467 28.317C53.4467 26.6713 52.7994 25.1119 51.6708 24.0368C50.7168 23.1178 49.4987 22.6142 48.238 22.6142Z" fill="#00695C"/>
<path d="M40.925 12.6271H25.7473C25.2462 12.6271 24.8398 12.1827 24.8398 11.6335V0.993637C24.8398 0.44442 25.2462 0 25.7473 0C26.2485 0 26.6548 0.44442 26.6548 0.993637V10.6399H40.925C41.4261 10.6399 41.8324 11.0843 41.8324 11.6335C41.8324 12.1827 41.4261 12.6271 40.925 12.6271Z" fill="#00695C"/>
<path d="M25.7478 12.6279H5.85865C5.3575 12.6279 4.95117 12.1835 4.95117 11.6343C4.95117 11.085 5.3575 10.6406 5.85865 10.6406H25.7478C26.249 10.6406 26.6553 11.085 26.6553 11.6343C26.6553 12.1835 26.249 12.6279 25.7478 12.6279Z" fill="#00695C"/>
<path d="M5.77054 20.5227H2.76364C1.2398 20.5227 0 19.1652 0 17.4962V8.82804C0 7.16001 1.2398 5.80249 2.76364 5.80249H5.80776C6.30891 5.80249 6.71524 6.24691 6.71524 6.79613C6.71524 7.34534 6.30891 7.78976 5.80776 7.78976H2.76364C2.24033 7.78976 1.81495 8.25553 1.81495 8.82804V17.4962C1.81495 18.0696 2.24033 18.5354 2.76364 18.5354H5.77054C6.27169 18.5354 6.67802 18.9798 6.67802 19.529C6.67802 20.0783 6.27169 20.5227 5.77054 20.5227Z" fill="#00695C"/>
<path d="M57.1401 19.2654H53.593C53.0919 19.2654 52.6855 18.821 52.6855 18.2718V16.5669C52.6855 16.0177 53.0919 15.5732 53.593 15.5732C54.0942 15.5732 54.5005 16.0177 54.5005 16.5669V17.2781H57.1401C57.6412 17.2781 58.0475 17.7226 58.0475 18.2718C58.0475 18.821 57.6412 19.2654 57.1401 19.2654Z" fill="#00695C"/>
<path d="M34.512 16.9336H31.4661C30.9649 16.9336 30.5586 16.4891 30.5586 15.9399C30.5586 15.3907 30.9649 14.9463 31.4661 14.9463H34.512C35.0131 14.9463 35.4194 15.3907 35.4194 15.9399C35.4194 16.4891 35.0131 16.9336 34.512 16.9336Z" fill="#00695C"/>
<path d="M18.7327 16.9336H15.6868C15.1856 16.9336 14.7793 16.4891 14.7793 15.9399C14.7793 15.3907 15.1856 14.9463 15.6868 14.9463H18.7327C19.2338 14.9463 19.6401 15.3907 19.6401 15.9399C19.6401 16.4891 19.2338 16.9336 18.7327 16.9336Z" fill="#00695C"/>
<path d="M59.0934 36H1.0149C0.513748 36 0.107422 35.5555 0.107422 35.0063C0.107422 34.4571 0.513748 34.0127 1.0149 34.0127H59.0934C59.5946 34.0127 60.0009 34.4571 60.0009 35.0063C60.0009 35.5555 59.5946 36 59.0934 36Z" fill="#00695C"/>
</svg>
