<svg width="89" height="50" viewBox="0 0 89 50" fill="none" xmlns="http://www.w3.org/2000/svg">
<g opacity="0.4">
<path d="M45 8.96875C31.7445 8.96875 21 16.1462 21 25C21 33.8538 31.7445 41.0312 45 41.0312C58.2546 41.0312 69 33.8538 69 25C69 16.1462 58.2546 8.96875 45 8.96875ZM57.0463 15.2461C57.7533 15.7685 57.7513 16.8106 57.0425 17.3321C56.0757 18.0419 54.372 18.885 52.0155 19.4992C51.9701 19.3351 51.9228 19.1718 51.8725 19.0115C50.8111 15.5648 48.8448 13.022 46.4969 12.2533C51.7925 12.5053 55.4412 14.0582 57.0463 15.2461ZM40.8742 23.618C42.1992 23.7687 43.5833 23.8488 45 23.8488C46.4167 23.8488 47.7998 23.7687 49.1249 23.618C49.1539 24.0323 49.1693 24.4592 49.1693 24.8967C49.1693 30.5182 46.6593 34.248 45 34.248C43.3398 34.248 40.8297 30.5183 40.8297 24.8967C40.8297 24.4592 40.8452 24.0323 40.8742 23.618ZM48.5097 20.1482C47.4232 20.2757 46.2517 20.348 45 20.348C44.5885 20.348 44.1859 20.3403 43.7928 20.3249C43.7889 20.3249 43.786 20.3249 43.7831 20.3239C42.9805 20.294 42.2166 20.2332 41.4893 20.1482C42.347 17.2722 43.87 15.5445 45 15.5445C46.129 15.5445 47.6521 17.2722 48.5097 20.1482ZM32.9565 15.2344C34.1956 14.3247 36.6468 13.1948 40.1295 12.6106C40.1884 12.6009 40.2492 12.5903 40.3101 12.5807C41.2952 12.4223 42.3605 12.3074 43.503 12.2533C41.0451 13.0578 39.0063 15.8053 37.9844 19.4983C35.624 18.8822 33.9184 18.0352 32.9527 17.3206C32.2457 16.7971 32.2477 15.755 32.9565 15.2344ZM46.4535 37.9544C46.3724 37.9592 46.2912 37.9621 46.2101 37.965H46.2072C45.8074 37.9814 45.4046 37.9892 45 37.9892C33.9175 37.9892 24.5551 32.0412 24.5551 25C24.5551 22.2814 25.9497 19.727 28.3004 17.615C29.1358 19.9483 32.631 21.9589 37.3557 23.028C37.3016 23.6383 37.2746 24.2622 37.2746 24.8967C37.2746 32.0133 40.7332 37.7825 45 37.7825C49.2659 37.7825 52.7244 32.0133 52.7244 24.8967C52.7244 24.2622 52.6974 23.6383 52.6433 23.028C57.368 21.9589 60.8633 19.9483 61.6987 17.615C64.0484 19.7271 65.444 22.2814 65.444 25C65.444 31.7312 56.888 37.4628 46.4535 37.9544ZM51.8726 19.0114C51.9161 19.1756 51.9634 19.3388 52.0156 19.4991C51.9701 19.335 51.9228 19.1717 51.8726 19.0114Z" fill="#00695C"/>
<path d="M32.9512 17.318C33.917 18.0327 35.6226 18.8796 37.983 19.4958C33.8919 19.3316 31.7027 18.1408 31.0106 17.4809C30.3184 16.821 30.5593 15.7525 31.2681 15.232C32.8752 14.0519 34.7852 13.3363 40.3086 12.5781C40.2478 12.5878 40.1869 12.5984 40.128 12.608C36.6454 13.1923 34.1942 14.3222 32.955 15.2319C32.2462 15.7526 32.2442 16.7946 32.9512 17.318Z" fill="#00695C"/>
<path d="M45.0003 8.96875C44.5954 8.96875 44.193 8.97569 43.793 8.98891C56.4866 9.409 66.5857 16.4165 66.5857 25C66.5857 33.5835 56.4866 40.591 43.793 41.0111C44.193 41.0243 44.5954 41.0312 45.0003 41.0312C58.2548 41.0312 69.0003 33.8538 69.0003 25C69.0003 16.1462 58.2548 8.96875 45.0003 8.96875Z" fill="#00695C"/>
<path d="M52.6435 23.0264C52.6976 23.6367 52.7246 24.2606 52.7246 24.8951C52.7246 32.0116 49.2661 37.7809 45.0002 37.7809C44.5898 37.7809 44.1861 37.7268 43.793 37.6235C47.4852 36.6568 50.2232 33.2565 50.2232 26.8256C50.2232 26.8188 50.3101 24.8825 50.3101 24.8758C50.3092 23.8115 51.5936 23.2069 52.6435 23.0264Z" fill="#00695C"/>
<path d="M52.0164 19.4989C51.9463 19.5259 51.8675 19.5481 51.7821 19.5659C50.68 19.7965 49.5641 19.1847 49.1398 18.1418C47.9185 15.1402 45.6494 12.9555 43.5039 12.253C44.5905 11.9865 45.5128 12.0936 46.4979 12.253C48.8458 13.0217 50.8121 15.5645 51.8735 19.0112C51.917 19.1754 51.9643 19.3386 52.0164 19.4989Z" fill="#00695C"/>
</g>
</svg>
