<svg width="60" height="36" viewBox="0 0 60 36" fill="none" xmlns="http://www.w3.org/2000/svg">
<path d="M59.4396 20.1574L54.6357 10.0136C54.2374 9.17545 53.5968 8.46472 52.7898 7.96593C51.9829 7.46715 51.0437 7.20129 50.0839 7.19998H41.2462V3.59999C41.2452 2.64553 40.8496 1.73047 40.1465 1.05556C39.4433 0.38066 38.4899 0.00104223 37.4955 0H6.23922C5.24479 0.00104223 4.29141 0.38066 3.58824 1.05556C2.88507 1.73047 2.48956 2.64553 2.48847 3.59999V18C2.48687 18.1585 2.51803 18.3158 2.58014 18.4627C2.64225 18.6097 2.73409 18.7433 2.85034 18.856C2.9666 18.9687 3.10496 19.0581 3.25744 19.1191C3.40992 19.1802 3.57349 19.2116 3.7387 19.2116C3.90391 19.2116 4.06748 19.1802 4.21996 19.1191C4.37244 19.0581 4.51081 18.9687 4.62706 18.856C4.74331 18.7433 4.83515 18.6097 4.89726 18.4627C4.95937 18.3158 4.99053 18.1585 4.98893 18V3.59999C4.9893 3.28183 5.12115 2.97681 5.35554 2.75183C5.58994 2.52686 5.90774 2.40031 6.23922 2.39996H37.4955C37.827 2.40031 38.1448 2.52686 38.3792 2.75183C38.6136 2.97681 38.7454 3.28183 38.7458 3.59999V22.8C38.7453 23.1181 38.6134 23.4231 38.3791 23.648C38.1447 23.8729 37.8269 23.9995 37.4955 23.9999H22.4925C22.163 24.003 21.8481 24.1307 21.6163 24.3554C21.3844 24.5801 21.2543 24.8836 21.2543 25.1999C21.2543 25.5161 21.3844 25.8196 21.6163 26.0443C21.8481 26.269 22.163 26.3968 22.4925 26.3999H37.4955C38.4899 26.3988 39.4433 26.0192 40.1465 25.3443C40.8496 24.6694 41.2452 23.7543 41.2462 22.7999V9.59994H50.0839C50.5639 9.60057 51.0336 9.73349 51.4372 9.98288C51.8407 10.2323 52.1612 10.5876 52.3604 11.0067L52.8308 11.9999H47.4977C46.8347 12.0005 46.199 12.2536 45.7302 12.7035C45.2614 13.1535 44.9977 13.7636 44.997 14.4V19.2C44.9976 19.8363 45.2613 20.4464 45.7301 20.8963C46.1989 21.3463 46.8345 21.5993 47.4975 21.5999H57.3361C57.4436 21.9368 57.4987 22.2871 57.4994 22.6394V27.6C57.4989 27.9181 57.3671 28.223 57.1327 28.448C56.8984 28.6729 56.5807 28.7995 56.2492 28.7999H52.3724C52.0841 27.4449 51.3171 26.227 50.2009 25.3523C49.0848 24.4777 47.6881 23.9999 46.2472 23.9999C44.8062 23.9999 43.4096 24.4777 42.2934 25.3523C41.1773 26.227 40.4102 27.4449 40.122 28.7999H19.8659C19.5777 27.4449 18.8106 26.227 17.6945 25.3523C16.5783 24.4777 15.1816 23.9999 13.7407 23.9999C12.2998 23.9999 10.9031 24.4777 9.78697 25.3523C8.67083 26.227 7.90375 27.4449 7.61551 28.7999H6.23922C5.90776 28.7995 5.58999 28.6729 5.35561 28.448C5.12123 28.223 4.98937 27.918 4.98893 27.5999V26.4C5.31842 26.3969 5.63332 26.2691 5.86518 26.0444C6.09704 25.8197 6.22712 25.5162 6.22712 25.2C6.22712 24.8837 6.09704 24.5803 5.86518 24.3556C5.63332 24.1308 5.31842 24.0031 4.98893 24H1.23818C0.908698 24.0031 0.593793 24.1308 0.361931 24.3556C0.13007 24.5803 0 24.8837 0 25.2C0 25.5162 0.13007 25.8197 0.361931 26.0444C0.593793 26.2691 0.908698 26.3969 1.23818 26.4H2.48847V27.6C2.48956 28.5545 2.88507 29.4695 3.58824 30.1444C4.29141 30.8193 5.24479 31.1989 6.23922 31.2H7.61563C7.90386 32.555 8.67094 33.7729 9.78709 34.6476C10.9032 35.5223 12.2999 36 13.7408 36C15.1818 36 16.5784 35.5223 17.6946 34.6476C18.8107 33.7729 19.5778 32.555 19.866 31.2H40.1221C40.4103 32.555 41.1774 33.7729 42.2935 34.6476C43.4097 35.5223 44.8064 36 46.2473 36C47.6882 36 49.0849 35.5223 50.201 34.6476C51.3172 33.7729 52.0843 32.555 52.3725 31.2H56.2492C57.2437 31.1989 58.1971 30.8193 58.9002 30.1444C59.6034 29.4695 59.9989 28.5545 60 27.6V22.6394C60.0014 21.783 59.8103 20.9364 59.4396 20.1574ZM13.7407 33.5999C12.9989 33.5999 12.2737 33.3888 11.6569 32.9932C11.0401 32.5977 10.5594 32.0354 10.2755 31.3776C9.99159 30.7198 9.91731 29.996 10.062 29.2976C10.2068 28.5993 10.564 27.9578 11.0885 27.4544C11.6131 26.9509 12.2814 26.608 13.009 26.4691C13.7366 26.3302 14.4907 26.4015 15.1761 26.674C15.8614 26.9465 16.4472 27.4079 16.8594 27.9999C17.2715 28.5919 17.4915 29.2879 17.4915 30C17.4904 30.9544 17.0949 31.8695 16.3917 32.5444C15.6885 33.2193 14.7351 33.5989 13.7407 33.5999ZM46.2472 33.5999C45.5053 33.5999 44.7802 33.3888 44.1634 32.9932C43.5466 32.5977 43.0658 32.0354 42.7819 31.3776C42.498 30.7198 42.4238 29.996 42.5685 29.2976C42.7132 28.5993 43.0704 27.9578 43.595 27.4544C44.1195 26.9509 44.7879 26.608 45.5154 26.4691C46.243 26.3302 46.9972 26.4015 47.6825 26.674C48.3679 26.9465 48.9537 27.4079 49.3658 27.9999C49.7779 28.5919 49.9979 29.2879 49.9979 30C49.9968 30.9544 49.6013 31.8694 48.8982 32.5443C48.195 33.2192 47.2417 33.5989 46.2473 33.5999H46.2472ZM47.4975 14.4H53.9668L56.2399 19.2H47.4975V14.4Z" fill="#00695C"/>
<path d="M1.23818 22.7994H7.48939C7.81888 22.7963 8.13378 22.6685 8.36564 22.4438C8.5975 22.2191 8.72758 21.9156 8.72758 21.5994C8.72758 21.2831 8.5975 20.9797 8.36564 20.755C8.13378 20.5302 7.81888 20.4025 7.48939 20.3994H1.23818C0.908698 20.4025 0.593793 20.5302 0.361931 20.755C0.13007 20.9797 0 21.2831 0 21.5994C0 21.9156 0.13007 22.2191 0.361931 22.4438C0.593793 22.6685 0.908698 22.7963 1.23818 22.7994Z" fill="#00695C"/>
</svg>
