<svg width="62" height="38" viewBox="0 0 62 38" fill="none" xmlns="http://www.w3.org/2000/svg">
<path d="M53.5668 32.1166C53.5668 34.8134 51.5096 36.9995 48.9718 36.9995C46.4341 36.9995 44.377 34.8134 44.377 32.1166C44.377 29.4199 46.4341 27.2338 48.9718 27.2338C51.5096 27.2338 53.5668 29.4199 53.5668 32.1166Z" stroke="#00695C" stroke-width="2" stroke-miterlimit="10" stroke-linecap="round" stroke-linejoin="round"/>
<path d="M17.7368 32.1166C17.7368 34.8134 15.6796 36.9995 13.1419 36.9995C10.6041 36.9995 8.54688 34.8134 8.54688 32.1166C8.54688 29.4199 10.6041 27.2338 13.1419 27.2338C15.6796 27.2338 17.7368 29.4199 17.7368 32.1166Z" stroke="#00695C" stroke-width="2" stroke-miterlimit="10" stroke-linecap="round" stroke-linejoin="round"/>
<path d="M61.0007 29.4247V31.5565C61.0007 32.7656 60.0775 33.7466 58.941 33.7466H53.3044C53.4739 33.2373 53.5666 32.6891 53.5666 32.1176C53.5666 29.4208 51.5105 27.2346 48.9727 27.2346H58.941C60.0775 27.2346 61.0007 28.2156 61.0007 29.4247Z" stroke="#00695C" stroke-width="2" stroke-miterlimit="10" stroke-linecap="round" stroke-linejoin="round"/>
<path d="M8.54512 32.1176C8.54512 32.6891 8.63781 33.2373 8.80732 33.7466H3.05976C1.92317 33.7466 1 32.7656 1 31.5565V29.4247C1 28.2156 1.92317 27.2346 3.05976 27.2346H13.1402C10.6024 27.2346 8.54512 29.4208 8.54512 32.1176Z" stroke="#00695C" stroke-width="2" stroke-miterlimit="10" stroke-linecap="round" stroke-linejoin="round"/>
<path d="M55.4746 23.5442V25.539C55.4746 26.4745 56.1883 27.2329 57.0685 27.2329H60.7384L60.1039 21.8503H57.0685C56.1883 21.8503 55.4746 22.6087 55.4746 23.5442Z" stroke="#00695C" stroke-width="2" stroke-miterlimit="10" stroke-linecap="round" stroke-linejoin="round"/>
<path d="M36.7006 33.7466H44.6398C44.4703 33.2373 44.3775 32.6891 44.3775 32.1176C44.3775 29.4208 46.4349 27.2346 48.9727 27.2346H58.941C59.8897 27.2346 60.691 27.9188 60.9288 28.8493L59.7812 19.1156C59.6373 17.9441 58.9337 17.0784 58.0043 16.6637L51.9849 13.8645C50.8593 13.3617 49.8495 12.6075 49.0227 11.6524L41.2532 2.66903C40.3323 1.60507 39.0337 0.999877 37.6738 0.999877H6.64953C5.12026 0.999877 3.81782 2.18435 3.58245 3.79L1.51172 27.9823C1.88855 27.5236 2.44343 27.2346 3.0605 27.2346H13.141C15.6788 27.2346 17.7361 29.4208 17.7361 32.1176C17.7361 32.6891 17.6433 33.2373 17.4739 33.7466L25.9689 33.7466" stroke="#00695C" stroke-width="2" stroke-miterlimit="10" stroke-linecap="round" stroke-linejoin="round"/>
<path d="M32.2207 7.83465V15.0955C32.2207 15.9027 32.8366 16.5571 33.5961 16.5571H43.8544C44.8316 16.5571 45.3402 15.3203 44.6764 14.5582L38.1881 7.10842C37.7797 6.63955 37.2059 6.37311 36.6047 6.37311H33.5961C32.8366 6.37311 32.2207 7.02742 32.2207 7.83465Z" stroke="#00695C" stroke-width="2" stroke-miterlimit="10" stroke-linecap="round" stroke-linejoin="round"/>
<path d="M17.4183 6.37311H9.8239C9.09048 6.37311 8.49609 7.00474 8.49609 7.78398V15.1463C8.49609 15.9254 9.09048 16.5571 9.8239 16.5571H17.4183V6.37311Z" stroke="#00695C" stroke-width="2" stroke-miterlimit="10" stroke-linecap="round" stroke-linejoin="round"/>
<path d="M17.416 6.37311H25.3763C26.1096 6.37311 26.7041 7.00474 26.7041 7.78398V15.1463C26.7041 15.9254 26.1096 16.5571 25.3763 16.5571H17.416V6.37311Z" stroke="#00695C" stroke-width="2" stroke-miterlimit="10" stroke-linecap="round" stroke-linejoin="round"/>
<path d="M32.2754 21.7366H35.0661" stroke="#00695C" stroke-width="2" stroke-miterlimit="10" stroke-linecap="round" stroke-linejoin="round"/>
</svg>
