<svg width="60" height="60" viewBox="0 0 60 60" fill="none" xmlns="http://www.w3.org/2000/svg">
<rect width="60" height="60" rx="30" fill="#00695C"/>
<path fill-rule="evenodd" clip-rule="evenodd" d="M15.4467 18.8647C15.16 19.173 15 19.578 15 19.9997V32.9713C15 35.8447 16.48 38.5147 18.9167 40.038C22.8583 42.5013 29.1167 46.413 29.1167 46.413C29.6567 46.7513 30.3433 46.7513 30.8833 46.413C30.8833 46.413 37.1417 42.5013 41.0833 40.038C43.52 38.5147 45 35.8447 45 32.9713V19.9997C45 19.578 44.84 19.173 44.5533 18.8647C41.8267 15.933 36.3433 13.333 30 13.333C23.6567 13.333 18.1733 15.933 15.4467 18.8647ZM28.3333 30.9763L35.4883 23.8213C36.1383 23.1713 37.195 23.1713 37.845 23.8213C38.495 24.4713 38.495 25.528 37.845 26.178L29.5117 34.5113C28.8617 35.163 27.805 35.163 27.155 34.5113L22.155 29.5113C21.505 28.8613 21.505 27.8047 22.155 27.1547C22.805 26.5047 23.8617 26.5047 24.5117 27.1547L28.3333 30.9763Z" fill="white"/>
</svg>
